<svg width="80" height="80" viewBox="0 0 80 80" fill="none" xmlns="http://www.w3.org/2000/svg">
<rect width="80" height="80" fill="#0F0F0F"/>
<path d="M29.6119 68.2257C29.3665 68.6924 29.8678 69.1907 30.3268 68.9266V68.9236L40.0793 63.3439C40.0793 63.3439 44.4246 61.1874 44.4246 56.8923V26.0497C44.4246 24.9902 44.7685 23.7657 45.3697 22.6716C45.6242 22.2094 45.1168 21.7052 44.6564 21.9693L44.4246 22.1014V22.0984L34.5192 27.7635C34.5192 27.7635 30.3268 30.0626 30.3268 34.1506V64.9947C30.3268 66.3123 30.0693 67.3523 29.6119 68.2242V68.2257Z" fill="#F1F1F1"/>
<path d="M10.3159 24.3074C9.94328 24.3749 9.88118 24.8732 10.2326 25.0127H10.2341L17.6783 27.9962C17.6783 27.9962 20.8075 29.4699 23.2445 27.585L39.746 17.2691C40.3473 16.8039 41.1925 16.4587 42.077 16.3131C42.4511 16.2516 42.5147 15.7489 42.1618 15.6078L41.9846 15.5373H41.9861L34.4268 12.5058C34.4268 12.5058 31.3794 11.3097 28.9636 12.9725C24.9575 15.7308 17.0422 20.7207 12.509 23.3635C11.6911 23.8407 11.0111 24.1798 10.3159 24.3074Z" fill="#F1F1F1"/>
<path d="M36.9486 33.3222L36.0701 32.6319L49.0139 16.4467H38.2466V15.3362H49.9014L53.1911 11.2212C53.8606 10.3853 54.9011 9.9306 55.9765 10.0086C57.0518 10.0852 58.0151 10.6825 58.5558 11.6069C59.1465 12.6169 59.1481 13.8219 58.5604 14.8334C57.9727 15.8449 56.9186 16.4482 55.7417 16.4482H50.4437L36.9486 33.3237V33.3222ZM51.3327 15.3362H55.7417C56.5127 15.3362 57.2033 14.94 57.5895 14.2782C57.9742 13.6148 57.9742 12.8255 57.5865 12.1637C57.2275 11.5499 56.6111 11.1672 55.8962 11.1162C55.1828 11.0651 54.5164 11.3548 54.0711 11.9115L51.3327 15.3362Z" fill="#F1F1F1"/>
</svg>
