<svg width="305" height="48" viewBox="0 0 305 48" fill="none" xmlns="http://www.w3.org/2000/svg">
<path d="M15.9554 47.3701C15.7558 47.7498 16.1637 48.1551 16.537 47.9403V47.9378L24.4713 43.3984C24.4713 43.3984 28.0065 41.644 28.0065 38.1497V13.0574C28.0065 12.1954 28.2862 11.1992 28.7754 10.3091C28.9824 9.93308 28.5696 9.52286 28.195 9.73774L28.0065 9.84518V9.84274L19.9478 14.4517C19.9478 14.4517 16.537 16.3221 16.537 19.6479V44.7414C16.537 45.8134 16.3275 46.6595 15.9554 47.3689V47.3701Z" fill="#F1F1F1"/>
<path d="M0.256977 11.6399C-0.0461477 11.6949 -0.0966686 12.1002 0.189206 12.2138H0.190438L6.24678 14.6409C6.24678 14.6409 8.79254 15.8399 10.7752 14.3064L24.2002 5.91382C24.6894 5.53534 25.3769 5.25453 26.0965 5.1361C26.4009 5.08604 26.4527 4.67703 26.1656 4.56227L26.0214 4.50488H26.0226L19.8726 2.03863C19.8726 2.03863 17.3934 1.06556 15.428 2.41834C12.1688 4.66238 5.72925 8.72193 2.04123 10.872C1.37583 11.2602 0.822565 11.5361 0.256977 11.6399Z" fill="#F1F1F1"/>
<path d="M21.9243 18.974L21.2096 18.4124L31.7401 5.24476H22.9803V4.34128H32.4622L35.1386 0.993525C35.6832 0.313474 36.5297 -0.0564638 37.4046 0.00702392C38.2795 0.0692907 39.0632 0.555216 39.5031 1.3073C39.9836 2.12898 39.9849 3.10938 39.5068 3.93227C39.0287 4.75517 38.171 5.24598 37.2136 5.24598H32.9033L21.9243 18.9752V18.974ZM33.6266 4.34128H37.2136C37.8408 4.34128 38.4027 4.01896 38.7169 3.48053C39.0299 2.94089 39.0299 2.29869 38.7144 1.76026C38.4224 1.26091 37.9209 0.949572 37.3393 0.908061C36.7589 0.86655 36.2167 1.10219 35.8545 1.55515L33.6266 4.34128Z" fill="#F1F1F1"/>
<path d="M55.9923 8.576H65.2403V10.304H61.6083V20H59.6083V10.304H55.9923V8.576ZM66.3086 8.576H68.1326V12.816H68.1646C68.3886 12.4427 68.7193 12.1333 69.1566 11.888C69.6046 11.632 70.1006 11.504 70.6446 11.504C71.5513 11.504 72.266 11.7387 72.7886 12.208C73.3113 12.6773 73.5726 13.3813 73.5726 14.32V20H71.7486V14.8C71.7273 14.1493 71.5886 13.68 71.3326 13.392C71.0766 13.0933 70.6766 12.944 70.1326 12.944C69.8233 12.944 69.546 13.0027 69.3006 13.12C69.0553 13.2267 68.8473 13.3813 68.6766 13.584C68.506 13.776 68.3726 14.0053 68.2766 14.272C68.1806 14.5387 68.1326 14.8213 68.1326 15.12V20H66.3086V8.576ZM81.1761 15.136C81.1548 14.848 81.0908 14.5707 80.9841 14.304C80.8881 14.0373 80.7495 13.808 80.5681 13.616C80.3975 13.4133 80.1841 13.2533 79.9281 13.136C79.6828 13.008 79.4055 12.944 79.0961 12.944C78.7761 12.944 78.4828 13.0027 78.2161 13.12C77.9601 13.2267 77.7361 13.3813 77.5441 13.584C77.3628 13.776 77.2135 14.0053 77.0961 14.272C76.9895 14.5387 76.9308 14.8267 76.9201 15.136H81.1761ZM76.9201 16.336C76.9201 16.656 76.9628 16.9653 77.0481 17.264C77.1441 17.5627 77.2828 17.824 77.4641 18.048C77.6455 18.272 77.8748 18.4533 78.1521 18.592C78.4295 18.72 78.7601 18.784 79.1441 18.784C79.6775 18.784 80.1041 18.672 80.4241 18.448C80.7548 18.2133 81.0001 17.8667 81.1601 17.408H82.8881C82.7921 17.856 82.6268 18.256 82.3921 18.608C82.1575 18.96 81.8748 19.2587 81.5441 19.504C81.2135 19.7387 80.8401 19.9147 80.4241 20.032C80.0188 20.16 79.5921 20.224 79.1441 20.224C78.4935 20.224 77.9175 20.1173 77.4161 19.904C76.9148 19.6907 76.4881 19.392 76.1361 19.008C75.7948 18.624 75.5335 18.1653 75.3521 17.632C75.1815 17.0987 75.0961 16.512 75.0961 15.872C75.0961 15.2853 75.1868 14.7307 75.3681 14.208C75.5601 13.6747 75.8268 13.2107 76.1681 12.816C76.5201 12.4107 76.9415 12.0907 77.4321 11.856C77.9228 11.6213 78.4775 11.504 79.0961 11.504C79.7468 11.504 80.3281 11.6427 80.8401 11.92C81.3628 12.1867 81.7948 12.544 82.1361 12.992C82.4775 13.44 82.7228 13.9573 82.8721 14.544C83.0321 15.12 83.0748 15.7173 83.0001 16.336H76.9201ZM84.3868 11.728H86.0988V13.328H86.1308C86.1841 13.104 86.2854 12.8853 86.4348 12.672C86.5948 12.4587 86.7814 12.2667 86.9948 12.096C87.2188 11.9147 87.4641 11.7707 87.7308 11.664C87.9974 11.5573 88.2694 11.504 88.5468 11.504C88.7601 11.504 88.9041 11.5093 88.9788 11.52C89.0641 11.5307 89.1494 11.5413 89.2348 11.552V13.312C89.1068 13.2907 88.9734 13.2747 88.8348 13.264C88.7068 13.2427 88.5788 13.232 88.4508 13.232C88.1414 13.232 87.8481 13.296 87.5708 13.424C87.3041 13.5413 87.0694 13.7227 86.8668 13.968C86.6641 14.2027 86.5041 14.496 86.3868 14.848C86.2694 15.2 86.2108 15.6053 86.2108 16.064V20H84.3868V11.728ZM95.4105 15.136C95.3892 14.848 95.3252 14.5707 95.2185 14.304C95.1225 14.0373 94.9838 13.808 94.8025 13.616C94.6318 13.4133 94.4185 13.2533 94.1625 13.136C93.9172 13.008 93.6398 12.944 93.3305 12.944C93.0105 12.944 92.7172 13.0027 92.4505 13.12C92.1945 13.2267 91.9705 13.3813 91.7785 13.584C91.5972 13.776 91.4478 14.0053 91.3305 14.272C91.2238 14.5387 91.1652 14.8267 91.1545 15.136H95.4105ZM91.1545 16.336C91.1545 16.656 91.1972 16.9653 91.2825 17.264C91.3785 17.5627 91.5172 17.824 91.6985 18.048C91.8798 18.272 92.1092 18.4533 92.3865 18.592C92.6638 18.72 92.9945 18.784 93.3785 18.784C93.9118 18.784 94.3385 18.672 94.6585 18.448C94.9892 18.2133 95.2345 17.8667 95.3945 17.408H97.1225C97.0265 17.856 96.8612 18.256 96.6265 18.608C96.3918 18.96 96.1092 19.2587 95.7785 19.504C95.4478 19.7387 95.0745 19.9147 94.6585 20.032C94.2532 20.16 93.8265 20.224 93.3785 20.224C92.7278 20.224 92.1518 20.1173 91.6505 19.904C91.1492 19.6907 90.7225 19.392 90.3705 19.008C90.0292 18.624 89.7678 18.1653 89.5865 17.632C89.4158 17.0987 89.3305 16.512 89.3305 15.872C89.3305 15.2853 89.4212 14.7307 89.6025 14.208C89.7945 13.6747 90.0612 13.2107 90.4025 12.816C90.7545 12.4107 91.1758 12.0907 91.6665 11.856C92.1572 11.6213 92.7118 11.504 93.3305 11.504C93.9812 11.504 94.5625 11.6427 95.0745 11.92C95.5972 12.1867 96.0292 12.544 96.3705 12.992C96.7118 13.44 96.9572 13.9573 97.1065 14.544C97.2665 15.12 97.3092 15.7173 97.2345 16.336H91.1545ZM99.9971 17.344C100.05 17.8773 100.253 18.2507 100.605 18.464C100.957 18.6773 101.378 18.784 101.869 18.784C102.04 18.784 102.232 18.7733 102.445 18.752C102.669 18.72 102.877 18.6667 103.069 18.592C103.261 18.5173 103.416 18.4107 103.533 18.272C103.661 18.1227 103.72 17.9307 103.709 17.696C103.698 17.4613 103.613 17.2693 103.453 17.12C103.293 16.9707 103.085 16.8533 102.829 16.768C102.584 16.672 102.301 16.592 101.981 16.528C101.661 16.464 101.336 16.3947 101.005 16.32C100.664 16.2453 100.333 16.1547 100.013 16.048C99.7038 15.9413 99.4211 15.7973 99.1651 15.616C98.9198 15.4347 98.7225 15.2053 98.5731 14.928C98.4238 14.64 98.3491 14.288 98.3491 13.872C98.3491 13.424 98.4558 13.0507 98.6691 12.752C98.8931 12.4427 99.1705 12.1973 99.5011 12.016C99.8425 11.824 100.216 11.6907 100.621 11.616C101.037 11.5413 101.432 11.504 101.805 11.504C102.232 11.504 102.637 11.552 103.021 11.648C103.416 11.7333 103.768 11.8773 104.077 12.08C104.397 12.2827 104.658 12.5493 104.861 12.88C105.074 13.2 105.208 13.5893 105.261 14.048H103.357C103.272 13.6107 103.069 13.3173 102.749 13.168C102.44 13.0187 102.082 12.944 101.677 12.944C101.549 12.944 101.394 12.9547 101.213 12.976C101.042 12.9973 100.877 13.04 100.717 13.104C100.568 13.1573 100.44 13.2427 100.333 13.36C100.226 13.4667 100.173 13.6107 100.173 13.792C100.173 14.016 100.248 14.1973 100.397 14.336C100.557 14.4747 100.76 14.592 101.005 14.688C101.261 14.7733 101.549 14.848 101.869 14.912C102.189 14.976 102.52 15.0453 102.861 15.12C103.192 15.1947 103.517 15.2853 103.837 15.392C104.157 15.4987 104.44 15.6427 104.685 15.824C104.941 16.0053 105.144 16.2347 105.293 16.512C105.453 16.7893 105.533 17.1307 105.533 17.536C105.533 18.0267 105.421 18.4427 105.197 18.784C104.973 19.1253 104.68 19.4027 104.317 19.616C103.965 19.8293 103.57 19.984 103.133 20.08C102.696 20.176 102.264 20.224 101.837 20.224C101.314 20.224 100.829 20.1653 100.381 20.048C99.9438 19.9307 99.5598 19.7547 99.2291 19.52C98.9091 19.2747 98.6531 18.976 98.4611 18.624C98.2798 18.2613 98.1838 17.8347 98.1731 17.344H99.9971ZM113.846 18.16C113.846 18.384 113.873 18.544 113.926 18.64C113.99 18.736 114.107 18.784 114.278 18.784C114.331 18.784 114.395 18.784 114.47 18.784C114.545 18.784 114.63 18.7733 114.726 18.752V20.016C114.662 20.0373 114.577 20.0587 114.47 20.08C114.374 20.112 114.273 20.1387 114.166 20.16C114.059 20.1813 113.953 20.1973 113.846 20.208C113.739 20.2187 113.649 20.224 113.574 20.224C113.201 20.224 112.891 20.1493 112.646 20C112.401 19.8507 112.241 19.5893 112.166 19.216C111.803 19.568 111.355 19.824 110.822 19.984C110.299 20.144 109.793 20.224 109.302 20.224C108.929 20.224 108.571 20.1707 108.23 20.064C107.889 19.968 107.585 19.824 107.318 19.632C107.062 19.4293 106.854 19.1787 106.694 18.88C106.545 18.5707 106.47 18.2133 106.47 17.808C106.47 17.296 106.561 16.88 106.742 16.56C106.934 16.24 107.179 15.9893 107.478 15.808C107.787 15.6267 108.129 15.4987 108.502 15.424C108.886 15.3387 109.27 15.2747 109.654 15.232C109.985 15.168 110.299 15.1253 110.598 15.104C110.897 15.072 111.158 15.024 111.382 14.96C111.617 14.896 111.798 14.8 111.926 14.672C112.065 14.5333 112.134 14.3307 112.134 14.064C112.134 13.8293 112.075 13.6373 111.958 13.488C111.851 13.3387 111.713 13.2267 111.542 13.152C111.382 13.0667 111.201 13.0133 110.998 12.992C110.795 12.96 110.603 12.944 110.422 12.944C109.91 12.944 109.489 13.0507 109.158 13.264C108.827 13.4773 108.641 13.808 108.598 14.256H106.774C106.806 13.7227 106.934 13.28 107.158 12.928C107.382 12.576 107.665 12.2933 108.006 12.08C108.358 11.8667 108.753 11.7173 109.19 11.632C109.627 11.5467 110.075 11.504 110.534 11.504C110.939 11.504 111.339 11.5467 111.734 11.632C112.129 11.7173 112.481 11.856 112.79 12.048C113.11 12.24 113.366 12.4907 113.558 12.8C113.75 13.0987 113.846 13.4667 113.846 13.904V18.16ZM112.022 15.856C111.745 16.0373 111.403 16.1493 110.998 16.192C110.593 16.224 110.187 16.2773 109.782 16.352C109.59 16.384 109.403 16.432 109.222 16.496C109.041 16.5493 108.881 16.6293 108.742 16.736C108.603 16.832 108.491 16.9653 108.406 17.136C108.331 17.296 108.294 17.4933 108.294 17.728C108.294 17.9307 108.353 18.1013 108.47 18.24C108.587 18.3787 108.726 18.4907 108.886 18.576C109.057 18.6507 109.238 18.704 109.43 18.736C109.633 18.768 109.814 18.784 109.974 18.784C110.177 18.784 110.395 18.7573 110.63 18.704C110.865 18.6507 111.083 18.56 111.286 18.432C111.499 18.304 111.675 18.144 111.814 17.952C111.953 17.7493 112.022 17.504 112.022 17.216V15.856ZM128.23 12.208C128.144 11.8773 128.027 11.5733 127.878 11.296C127.728 11.0187 127.536 10.7787 127.302 10.576C127.067 10.3733 126.79 10.2187 126.47 10.112C126.16 9.99467 125.798 9.936 125.382 9.936C124.774 9.936 124.246 10.0587 123.798 10.304C123.36 10.5493 123.003 10.88 122.726 11.296C122.448 11.7013 122.24 12.1653 122.102 12.688C121.974 13.2107 121.91 13.744 121.91 14.288C121.91 14.832 121.974 15.3653 122.102 15.888C122.24 16.4107 122.448 16.88 122.726 17.296C123.003 17.7013 123.36 18.0267 123.798 18.272C124.246 18.5173 124.774 18.64 125.382 18.64C125.83 18.64 126.224 18.5653 126.566 18.416C126.907 18.256 127.2 18.0427 127.446 17.776C127.691 17.4987 127.883 17.1787 128.022 16.816C128.16 16.4533 128.251 16.064 128.294 15.648H130.246C130.203 16.3307 130.054 16.9547 129.798 17.52C129.552 18.0853 129.216 18.576 128.79 18.992C128.363 19.3973 127.862 19.712 127.286 19.936C126.71 20.16 126.075 20.272 125.382 20.272C124.528 20.272 123.76 20.1173 123.078 19.808C122.406 19.488 121.835 19.056 121.366 18.512C120.896 17.968 120.534 17.3333 120.278 16.608C120.032 15.8827 119.91 15.1093 119.91 14.288C119.91 13.4773 120.032 12.7093 120.278 11.984C120.534 11.2587 120.896 10.624 121.366 10.08C121.835 9.536 122.406 9.104 123.078 8.784C123.76 8.464 124.528 8.304 125.382 8.304C126.022 8.304 126.624 8.39467 127.19 8.576C127.755 8.74667 128.251 9.00267 128.678 9.344C129.115 9.67467 129.467 10.08 129.734 10.56C130 11.04 130.166 11.5893 130.23 12.208H128.23ZM138.737 18.16C138.737 18.384 138.763 18.544 138.817 18.64C138.881 18.736 138.998 18.784 139.169 18.784C139.222 18.784 139.286 18.784 139.361 18.784C139.435 18.784 139.521 18.7733 139.617 18.752V20.016C139.553 20.0373 139.467 20.0587 139.361 20.08C139.265 20.112 139.163 20.1387 139.057 20.16C138.95 20.1813 138.843 20.1973 138.737 20.208C138.63 20.2187 138.539 20.224 138.465 20.224C138.091 20.224 137.782 20.1493 137.537 20C137.291 19.8507 137.131 19.5893 137.057 19.216C136.694 19.568 136.246 19.824 135.713 19.984C135.19 20.144 134.683 20.224 134.193 20.224C133.819 20.224 133.462 20.1707 133.121 20.064C132.779 19.968 132.475 19.824 132.209 19.632C131.953 19.4293 131.745 19.1787 131.585 18.88C131.435 18.5707 131.361 18.2133 131.361 17.808C131.361 17.296 131.451 16.88 131.633 16.56C131.825 16.24 132.07 15.9893 132.369 15.808C132.678 15.6267 133.019 15.4987 133.393 15.424C133.777 15.3387 134.161 15.2747 134.545 15.232C134.875 15.168 135.19 15.1253 135.489 15.104C135.787 15.072 136.049 15.024 136.273 14.96C136.507 14.896 136.689 14.8 136.817 14.672C136.955 14.5333 137.025 14.3307 137.025 14.064C137.025 13.8293 136.966 13.6373 136.849 13.488C136.742 13.3387 136.603 13.2267 136.433 13.152C136.273 13.0667 136.091 13.0133 135.889 12.992C135.686 12.96 135.494 12.944 135.313 12.944C134.801 12.944 134.379 13.0507 134.049 13.264C133.718 13.4773 133.531 13.808 133.489 14.256H131.665C131.697 13.7227 131.825 13.28 132.049 12.928C132.273 12.576 132.555 12.2933 132.897 12.08C133.249 11.8667 133.643 11.7173 134.081 11.632C134.518 11.5467 134.966 11.504 135.425 11.504C135.83 11.504 136.23 11.5467 136.625 11.632C137.019 11.7173 137.371 11.856 137.681 12.048C138.001 12.24 138.257 12.4907 138.449 12.8C138.641 13.0987 138.737 13.4667 138.737 13.904V18.16ZM136.913 15.856C136.635 16.0373 136.294 16.1493 135.889 16.192C135.483 16.224 135.078 16.2773 134.673 16.352C134.481 16.384 134.294 16.432 134.113 16.496C133.931 16.5493 133.771 16.6293 133.633 16.736C133.494 16.832 133.382 16.9653 133.297 17.136C133.222 17.296 133.185 17.4933 133.185 17.728C133.185 17.9307 133.243 18.1013 133.361 18.24C133.478 18.3787 133.617 18.4907 133.777 18.576C133.947 18.6507 134.129 18.704 134.321 18.736C134.523 18.768 134.705 18.784 134.865 18.784C135.067 18.784 135.286 18.7573 135.521 18.704C135.755 18.6507 135.974 18.56 136.177 18.432C136.39 18.304 136.566 18.144 136.705 17.952C136.843 17.7493 136.913 17.504 136.913 17.216V15.856ZM142.075 17.344C142.129 17.8773 142.331 18.2507 142.683 18.464C143.035 18.6773 143.457 18.784 143.947 18.784C144.118 18.784 144.31 18.7733 144.523 18.752C144.747 18.72 144.955 18.6667 145.147 18.592C145.339 18.5173 145.494 18.4107 145.611 18.272C145.739 18.1227 145.798 17.9307 145.787 17.696C145.777 17.4613 145.691 17.2693 145.531 17.12C145.371 16.9707 145.163 16.8533 144.907 16.768C144.662 16.672 144.379 16.592 144.059 16.528C143.739 16.464 143.414 16.3947 143.083 16.32C142.742 16.2453 142.411 16.1547 142.091 16.048C141.782 15.9413 141.499 15.7973 141.243 15.616C140.998 15.4347 140.801 15.2053 140.651 14.928C140.502 14.64 140.427 14.288 140.427 13.872C140.427 13.424 140.534 13.0507 140.747 12.752C140.971 12.4427 141.249 12.1973 141.579 12.016C141.921 11.824 142.294 11.6907 142.699 11.616C143.115 11.5413 143.51 11.504 143.883 11.504C144.31 11.504 144.715 11.552 145.099 11.648C145.494 11.7333 145.846 11.8773 146.155 12.08C146.475 12.2827 146.737 12.5493 146.939 12.88C147.153 13.2 147.286 13.5893 147.339 14.048H145.435C145.35 13.6107 145.147 13.3173 144.827 13.168C144.518 13.0187 144.161 12.944 143.755 12.944C143.627 12.944 143.473 12.9547 143.291 12.976C143.121 12.9973 142.955 13.04 142.795 13.104C142.646 13.1573 142.518 13.2427 142.411 13.36C142.305 13.4667 142.251 13.6107 142.251 13.792C142.251 14.016 142.326 14.1973 142.475 14.336C142.635 14.4747 142.838 14.592 143.083 14.688C143.339 14.7733 143.627 14.848 143.947 14.912C144.267 14.976 144.598 15.0453 144.939 15.12C145.27 15.1947 145.595 15.2853 145.915 15.392C146.235 15.4987 146.518 15.6427 146.763 15.824C147.019 16.0053 147.222 16.2347 147.371 16.512C147.531 16.7893 147.611 17.1307 147.611 17.536C147.611 18.0267 147.499 18.4427 147.275 18.784C147.051 19.1253 146.758 19.4027 146.395 19.616C146.043 19.8293 145.649 19.984 145.211 20.08C144.774 20.176 144.342 20.224 143.915 20.224C143.393 20.224 142.907 20.1653 142.459 20.048C142.022 19.9307 141.638 19.7547 141.307 19.52C140.987 19.2747 140.731 18.976 140.539 18.624C140.358 18.2613 140.262 17.8347 140.251 17.344H142.075ZM148.164 11.728H149.54V9.248H151.364V11.728H153.012V13.088H151.364V17.504C151.364 17.696 151.369 17.8613 151.38 18C151.401 18.1387 151.439 18.256 151.492 18.352C151.556 18.448 151.647 18.5227 151.764 18.576C151.881 18.6187 152.041 18.64 152.244 18.64C152.372 18.64 152.5 18.64 152.628 18.64C152.756 18.6293 152.884 18.608 153.012 18.576V19.984C152.809 20.0053 152.612 20.0267 152.42 20.048C152.228 20.0693 152.031 20.08 151.828 20.08C151.348 20.08 150.959 20.0373 150.66 19.952C150.372 19.856 150.143 19.7227 149.972 19.552C149.812 19.3707 149.7 19.1467 149.636 18.88C149.583 18.6133 149.551 18.3093 149.54 17.968V13.088H148.164V11.728ZM160.004 15.136C159.983 14.848 159.919 14.5707 159.812 14.304C159.716 14.0373 159.578 13.808 159.396 13.616C159.226 13.4133 159.012 13.2533 158.756 13.136C158.511 13.008 158.234 12.944 157.924 12.944C157.604 12.944 157.311 13.0027 157.044 13.12C156.788 13.2267 156.564 13.3813 156.372 13.584C156.191 13.776 156.042 14.0053 155.924 14.272C155.818 14.5387 155.759 14.8267 155.748 15.136H160.004ZM155.748 16.336C155.748 16.656 155.791 16.9653 155.876 17.264C155.972 17.5627 156.111 17.824 156.292 18.048C156.474 18.272 156.703 18.4533 156.98 18.592C157.258 18.72 157.588 18.784 157.972 18.784C158.506 18.784 158.932 18.672 159.252 18.448C159.583 18.2133 159.828 17.8667 159.988 17.408H161.716C161.62 17.856 161.455 18.256 161.22 18.608C160.986 18.96 160.703 19.2587 160.372 19.504C160.042 19.7387 159.668 19.9147 159.252 20.032C158.847 20.16 158.42 20.224 157.972 20.224C157.322 20.224 156.746 20.1173 156.244 19.904C155.743 19.6907 155.316 19.392 154.964 19.008C154.623 18.624 154.362 18.1653 154.18 17.632C154.01 17.0987 153.924 16.512 153.924 15.872C153.924 15.2853 154.015 14.7307 154.196 14.208C154.388 13.6747 154.655 13.2107 154.996 12.816C155.348 12.4107 155.77 12.0907 156.26 11.856C156.751 11.6213 157.306 11.504 157.924 11.504C158.575 11.504 159.156 11.6427 159.668 11.92C160.191 12.1867 160.623 12.544 160.964 12.992C161.306 13.44 161.551 13.9573 161.7 14.544C161.86 15.12 161.903 15.7173 161.828 16.336H155.748ZM163.263 8.576H165.087V20H163.263V8.576ZM167.122 8.576H168.946V20H167.122V8.576ZM178.198 20H176.406V18.848H176.374C176.15 19.264 175.814 19.6 175.366 19.856C174.928 20.1013 174.48 20.224 174.022 20.224C172.934 20.224 172.144 19.9573 171.654 19.424C171.174 18.88 170.934 18.064 170.934 16.976V11.728H172.758V16.8C172.758 17.5253 172.896 18.0373 173.174 18.336C173.451 18.6347 173.84 18.784 174.342 18.784C174.726 18.784 175.046 18.7253 175.302 18.608C175.558 18.4907 175.766 18.336 175.926 18.144C176.086 17.9413 176.198 17.7013 176.262 17.424C176.336 17.1467 176.374 16.848 176.374 16.528V11.728H178.198V20ZM185.705 14.496C185.63 13.984 185.422 13.6 185.081 13.344C184.75 13.0773 184.329 12.944 183.817 12.944C183.582 12.944 183.332 12.9867 183.065 13.072C182.798 13.1467 182.553 13.296 182.329 13.52C182.105 13.7333 181.918 14.0373 181.769 14.432C181.62 14.816 181.545 15.3227 181.545 15.952C181.545 16.2933 181.582 16.6347 181.657 16.976C181.742 17.3173 181.87 17.6213 182.041 17.888C182.222 18.1547 182.452 18.3733 182.729 18.544C183.006 18.704 183.342 18.784 183.737 18.784C184.27 18.784 184.708 18.6187 185.049 18.288C185.401 17.9573 185.62 17.4933 185.705 16.896H187.529C187.358 17.9733 186.948 18.8 186.297 19.376C185.657 19.9413 184.804 20.224 183.737 20.224C183.086 20.224 182.51 20.1173 182.009 19.904C181.518 19.68 181.102 19.3813 180.761 19.008C180.42 18.624 180.158 18.1707 179.977 17.648C179.806 17.1253 179.721 16.56 179.721 15.952C179.721 15.3333 179.806 14.752 179.977 14.208C180.148 13.664 180.404 13.1947 180.745 12.8C181.086 12.3947 181.508 12.08 182.009 11.856C182.521 11.6213 183.118 11.504 183.801 11.504C184.281 11.504 184.734 11.568 185.161 11.696C185.598 11.8133 185.982 11.9947 186.313 12.24C186.654 12.4853 186.932 12.7947 187.145 13.168C187.358 13.5413 187.486 13.984 187.529 14.496H185.705ZM194.596 14.496C194.521 13.984 194.313 13.6 193.972 13.344C193.641 13.0773 193.22 12.944 192.708 12.944C192.473 12.944 192.222 12.9867 191.956 13.072C191.689 13.1467 191.444 13.296 191.22 13.52C190.996 13.7333 190.809 14.0373 190.66 14.432C190.51 14.816 190.436 15.3227 190.436 15.952C190.436 16.2933 190.473 16.6347 190.548 16.976C190.633 17.3173 190.761 17.6213 190.932 17.888C191.113 18.1547 191.342 18.3733 191.62 18.544C191.897 18.704 192.233 18.784 192.628 18.784C193.161 18.784 193.598 18.6187 193.94 18.288C194.292 17.9573 194.51 17.4933 194.596 16.896H196.42C196.249 17.9733 195.838 18.8 195.188 19.376C194.548 19.9413 193.694 20.224 192.628 20.224C191.977 20.224 191.401 20.1173 190.9 19.904C190.409 19.68 189.993 19.3813 189.652 19.008C189.31 18.624 189.049 18.1707 188.868 17.648C188.697 17.1253 188.612 16.56 188.612 15.952C188.612 15.3333 188.697 14.752 188.868 14.208C189.038 13.664 189.294 13.1947 189.636 12.8C189.977 12.3947 190.398 12.08 190.9 11.856C191.412 11.6213 192.009 11.504 192.692 11.504C193.172 11.504 193.625 11.568 194.052 11.696C194.489 11.8133 194.873 11.9947 195.204 12.24C195.545 12.4853 195.822 12.7947 196.036 13.168C196.249 13.5413 196.377 13.984 196.42 14.496H194.596ZM197.95 8.576H199.774V10.304H197.95V8.576ZM197.95 11.728H199.774V20H197.95V11.728Z" fill="#F1F1F1"/>
<path d="M65.6563 37.576C65.2083 38.1733 64.6536 38.6053 63.9923 38.872C63.3309 39.128 62.6643 39.256 61.9923 39.256C61.1389 39.256 60.3763 39.1013 59.7043 38.792C59.0323 38.472 58.4616 38.0453 57.9923 37.512C57.5229 36.9787 57.1656 36.3653 56.9203 35.672C56.6749 34.9787 56.5523 34.2587 56.5523 33.512C56.5523 32.68 56.6643 31.8907 56.8883 31.144C57.1229 30.3867 57.4643 29.7253 57.9123 29.16C58.3709 28.5947 58.9363 28.1467 59.6083 27.816C60.2909 27.4747 61.0856 27.304 61.9923 27.304C62.6109 27.304 63.1923 27.3787 63.7363 27.528C64.2909 27.6667 64.7816 27.8907 65.2083 28.2C65.6456 28.5093 66.0083 28.904 66.2963 29.384C66.5949 29.8533 66.7976 30.424 66.9043 31.096H65.3843C65.3096 30.6587 65.1709 30.2853 64.9683 29.976C64.7656 29.656 64.5149 29.3947 64.2163 29.192C63.9176 28.9893 63.5763 28.84 63.1923 28.744C62.8189 28.6373 62.4189 28.584 61.9923 28.584C61.2989 28.584 60.7016 28.7227 60.2003 29C59.7096 29.2773 59.3043 29.6453 58.9843 30.104C58.6749 30.552 58.4456 31.0693 58.2963 31.656C58.1469 32.232 58.0723 32.824 58.0723 33.432C58.0723 34.0293 58.1576 34.6053 58.3283 35.16C58.4989 35.704 58.7496 36.1893 59.0803 36.616C59.4109 37.032 59.8163 37.368 60.2963 37.624C60.7869 37.8693 61.3523 37.992 61.9923 37.992C62.5896 37.992 63.1176 37.896 63.5763 37.704C64.0349 37.512 64.4189 37.2507 64.7283 36.92C65.0483 36.5787 65.2883 36.184 65.4483 35.736C65.6083 35.2773 65.6776 34.7867 65.6563 34.264H62.0083V32.984H67.0163V39H66.0563L65.6563 37.576ZM68.9809 30.728H70.2609V32.472H70.2929C70.6235 31.8 71.0289 31.304 71.5089 30.984C71.9889 30.664 72.5969 30.5147 73.3329 30.536V31.976C72.7889 31.976 72.3249 32.0507 71.9409 32.2C71.5569 32.3493 71.2475 32.568 71.0129 32.856C70.7782 33.144 70.6075 33.496 70.5009 33.912C70.3942 34.3173 70.3409 34.7867 70.3409 35.32V39H68.9809V30.728ZM81.685 38.968C81.4503 39.1067 81.125 39.176 80.709 39.176C80.357 39.176 80.0743 39.08 79.861 38.888C79.6583 38.6853 79.557 38.36 79.557 37.912C79.1837 38.36 78.7463 38.6853 78.245 38.888C77.7543 39.08 77.221 39.176 76.645 39.176C76.2717 39.176 75.9143 39.1333 75.573 39.048C75.2423 38.9627 74.9543 38.8293 74.709 38.648C74.4637 38.4667 74.2663 38.232 74.117 37.944C73.9783 37.6453 73.909 37.288 73.909 36.872C73.909 36.4027 73.989 36.0187 74.149 35.72C74.309 35.4213 74.517 35.1813 74.773 35C75.0397 34.808 75.3383 34.664 75.669 34.568C76.0103 34.472 76.357 34.392 76.709 34.328C77.0823 34.2533 77.4343 34.2 77.765 34.168C78.1063 34.1253 78.405 34.072 78.661 34.008C78.917 33.9333 79.1197 33.832 79.269 33.704C79.4183 33.5653 79.493 33.368 79.493 33.112C79.493 32.8133 79.4343 32.5733 79.317 32.392C79.2103 32.2107 79.0663 32.072 78.885 31.976C78.7143 31.88 78.517 31.816 78.293 31.784C78.0797 31.752 77.8663 31.736 77.653 31.736C77.077 31.736 76.597 31.848 76.213 32.072C75.829 32.2853 75.621 32.696 75.589 33.304H74.229C74.2503 32.792 74.357 32.36 74.549 32.008C74.741 31.656 74.997 31.3733 75.317 31.16C75.637 30.936 75.9997 30.776 76.405 30.68C76.821 30.584 77.2637 30.536 77.733 30.536C78.1063 30.536 78.4743 30.5627 78.837 30.616C79.2103 30.6693 79.5463 30.7813 79.845 30.952C80.1437 31.112 80.3837 31.3413 80.565 31.64C80.7463 31.9387 80.837 32.328 80.837 32.808V37.064C80.837 37.384 80.853 37.6187 80.885 37.768C80.9277 37.9173 81.0557 37.992 81.269 37.992C81.3863 37.992 81.525 37.9653 81.685 37.912V38.968ZM79.477 34.728C79.3063 34.856 79.0823 34.952 78.805 35.016C78.5277 35.0693 78.2343 35.1173 77.925 35.16C77.6263 35.192 77.3223 35.2347 77.013 35.288C76.7037 35.3307 76.4263 35.4053 76.181 35.512C75.9357 35.6187 75.733 35.7733 75.573 35.976C75.4237 36.168 75.349 36.4347 75.349 36.776C75.349 37 75.3917 37.192 75.477 37.352C75.573 37.5013 75.6903 37.624 75.829 37.72C75.9783 37.816 76.149 37.8853 76.341 37.928C76.533 37.9707 76.7357 37.992 76.949 37.992C77.397 37.992 77.781 37.9333 78.101 37.816C78.421 37.688 78.6823 37.5333 78.885 37.352C79.0877 37.16 79.237 36.9573 79.333 36.744C79.429 36.52 79.477 36.312 79.477 36.12V34.728ZM82.9988 30.728H84.3588V31.848H84.3908C84.6148 31.3893 84.9668 31.0587 85.4468 30.856C85.9268 30.6427 86.4548 30.536 87.0308 30.536C87.6708 30.536 88.2254 30.6533 88.6948 30.888C89.1748 31.1227 89.5694 31.4427 89.8788 31.848C90.1988 32.2427 90.4388 32.7013 90.5988 33.224C90.7588 33.7467 90.8388 34.3013 90.8388 34.888C90.8388 35.4747 90.7588 36.0293 90.5988 36.552C90.4494 37.0747 90.2148 37.5333 89.8948 37.928C89.5854 38.312 89.1908 38.616 88.7108 38.84C88.2414 39.064 87.6921 39.176 87.0628 39.176C86.8601 39.176 86.6308 39.1547 86.3748 39.112C86.1294 39.0693 85.8841 39 85.6388 38.904C85.3934 38.808 85.1588 38.68 84.9348 38.52C84.7214 38.3493 84.5401 38.1413 84.3908 37.896H84.3588V42.152H82.9988V30.728ZM89.3988 34.792C89.3988 34.408 89.3454 34.0347 89.2388 33.672C89.1428 33.2987 88.9881 32.968 88.7748 32.68C88.5721 32.392 88.3054 32.1627 87.9748 31.992C87.6548 31.8213 87.2761 31.736 86.8388 31.736C86.3801 31.736 85.9908 31.8267 85.6708 32.008C85.3508 32.1893 85.0894 32.4293 84.8868 32.728C84.6841 33.016 84.5348 33.3467 84.4388 33.72C84.3534 34.0933 84.3108 34.472 84.3108 34.856C84.3108 35.2613 84.3588 35.656 84.4548 36.04C84.5508 36.4133 84.7001 36.744 84.9028 37.032C85.1161 37.32 85.3881 37.5547 85.7188 37.736C86.0494 37.9067 86.4494 37.992 86.9188 37.992C87.3881 37.992 87.7774 37.9013 88.0868 37.72C88.4068 37.5387 88.6628 37.2987 88.8548 37C89.0468 36.7013 89.1854 36.36 89.2708 35.976C89.3561 35.592 89.3988 35.1973 89.3988 34.792ZM92.4351 27.576H93.7951V31.944H93.8271C93.9338 31.688 94.0831 31.4747 94.2751 31.304C94.4671 31.1227 94.6805 30.9787 94.9151 30.872C95.1605 30.7547 95.4111 30.6693 95.6671 30.616C95.9338 30.5627 96.1898 30.536 96.4351 30.536C96.9791 30.536 97.4325 30.6107 97.7951 30.76C98.1578 30.9093 98.4511 31.1173 98.6751 31.384C98.8991 31.6507 99.0538 31.9707 99.1391 32.344C99.2351 32.7067 99.2831 33.112 99.2831 33.56V39H97.9231V33.4C97.9231 32.888 97.7738 32.4827 97.4751 32.184C97.1765 31.8853 96.7658 31.736 96.2431 31.736C95.8271 31.736 95.4645 31.8 95.1551 31.928C94.8565 32.056 94.6058 32.2373 94.4031 32.472C94.2005 32.7067 94.0458 32.984 93.9391 33.304C93.8431 33.6133 93.7951 33.9547 93.7951 34.328V39H92.4351V27.576ZM102.766 29.24H101.406V27.576H102.766V29.24ZM101.406 30.728H102.766V39H101.406V30.728ZM110.489 33.384C110.382 32.8613 110.158 32.456 109.817 32.168C109.475 31.88 109.017 31.736 108.441 31.736C107.95 31.736 107.539 31.8267 107.209 32.008C106.878 32.1893 106.611 32.4293 106.409 32.728C106.217 33.0267 106.078 33.3733 105.993 33.768C105.907 34.152 105.865 34.552 105.865 34.968C105.865 35.352 105.907 35.7253 105.993 36.088C106.089 36.4507 106.233 36.776 106.425 37.064C106.617 37.3413 106.867 37.5653 107.177 37.736C107.486 37.9067 107.854 37.992 108.281 37.992C108.953 37.992 109.475 37.816 109.849 37.464C110.233 37.112 110.467 36.616 110.553 35.976H111.945C111.795 37 111.411 37.7893 110.793 38.344C110.185 38.8987 109.353 39.176 108.297 39.176C107.667 39.176 107.107 39.0747 106.617 38.872C106.137 38.6693 105.731 38.3813 105.401 38.008C105.081 37.6347 104.835 37.192 104.665 36.68C104.505 36.1573 104.425 35.5867 104.425 34.968C104.425 34.3493 104.505 33.7733 104.665 33.24C104.825 32.696 105.065 32.2267 105.385 31.832C105.715 31.4267 106.126 31.112 106.617 30.888C107.107 30.6533 107.678 30.536 108.329 30.536C108.798 30.536 109.235 30.5947 109.641 30.712C110.057 30.8187 110.419 30.9893 110.729 31.224C111.049 31.4587 111.31 31.7573 111.513 32.12C111.715 32.472 111.843 32.8933 111.897 33.384H110.489ZM119.664 37.72H122.192C122.362 37.72 122.576 37.7093 122.832 37.688C123.088 37.656 123.36 37.592 123.648 37.496C123.936 37.3893 124.218 37.24 124.496 37.048C124.784 36.856 125.04 36.5947 125.264 36.264C125.488 35.9333 125.669 35.5227 125.808 35.032C125.957 34.5307 126.032 33.928 126.032 33.224C126.032 32.5413 125.962 31.9333 125.824 31.4C125.696 30.856 125.477 30.3973 125.168 30.024C124.869 29.64 124.48 29.352 124 29.16C123.52 28.9573 122.928 28.856 122.224 28.856H119.664V37.72ZM118.144 27.576H122.064C123.824 27.576 125.178 28.024 126.128 28.92C127.077 29.816 127.552 31.1813 127.552 33.016C127.552 33.976 127.445 34.8293 127.232 35.576C127.018 36.312 126.688 36.936 126.24 37.448C125.792 37.9493 125.221 38.3333 124.528 38.6C123.834 38.8667 123.013 39 122.064 39H118.144V27.576ZM134.929 34.072C134.908 33.752 134.833 33.448 134.705 33.16C134.588 32.872 134.422 32.6267 134.209 32.424C134.006 32.2107 133.761 32.0453 133.473 31.928C133.196 31.8 132.886 31.736 132.545 31.736C132.193 31.736 131.873 31.8 131.585 31.928C131.308 32.0453 131.068 32.2107 130.865 32.424C130.662 32.6373 130.502 32.888 130.385 33.176C130.268 33.4533 130.198 33.752 130.177 34.072H134.929ZM136.241 36.376C136.06 37.304 135.66 38.0027 135.041 38.472C134.422 38.9413 133.644 39.176 132.705 39.176C132.044 39.176 131.468 39.0693 130.977 38.856C130.497 38.6427 130.092 38.344 129.761 37.96C129.43 37.576 129.18 37.1173 129.009 36.584C128.849 36.0507 128.758 35.4693 128.737 34.84C128.737 34.2107 128.833 33.6347 129.025 33.112C129.217 32.5893 129.484 32.136 129.825 31.752C130.177 31.368 130.588 31.0693 131.057 30.856C131.537 30.6427 132.06 30.536 132.625 30.536C133.361 30.536 133.969 30.6907 134.449 31C134.94 31.2987 135.329 31.6827 135.617 32.152C135.916 32.6213 136.118 33.1333 136.225 33.688C136.342 34.2427 136.39 34.7707 136.369 35.272H130.177C130.166 35.6347 130.209 35.9813 130.305 36.312C130.401 36.632 130.556 36.92 130.769 37.176C130.982 37.4213 131.254 37.6187 131.585 37.768C131.916 37.9173 132.305 37.992 132.753 37.992C133.329 37.992 133.798 37.8587 134.161 37.592C134.534 37.3253 134.78 36.92 134.897 36.376H136.241ZM138.611 36.392C138.622 36.6907 138.691 36.9467 138.819 37.16C138.947 37.3627 139.112 37.528 139.315 37.656C139.528 37.7733 139.763 37.8587 140.019 37.912C140.286 37.9653 140.558 37.992 140.835 37.992C141.048 37.992 141.272 37.976 141.507 37.944C141.742 37.912 141.955 37.8533 142.147 37.768C142.35 37.6827 142.515 37.56 142.643 37.4C142.771 37.2293 142.835 37.016 142.835 36.76C142.835 36.408 142.702 36.1413 142.435 35.96C142.168 35.7787 141.832 35.6347 141.427 35.528C141.032 35.4107 140.6 35.3093 140.131 35.224C139.662 35.128 139.224 35 138.819 34.84C138.424 34.6693 138.094 34.4347 137.827 34.136C137.56 33.8373 137.427 33.4213 137.427 32.888C137.427 32.472 137.518 32.1147 137.699 31.816C137.891 31.5173 138.131 31.2773 138.419 31.096C138.718 30.904 139.048 30.7653 139.411 30.68C139.784 30.584 140.152 30.536 140.515 30.536C140.984 30.536 141.416 30.5787 141.811 30.664C142.206 30.7387 142.552 30.8773 142.851 31.08C143.16 31.272 143.406 31.5387 143.587 31.88C143.768 32.2107 143.875 32.6267 143.907 33.128H142.547C142.526 32.8613 142.456 32.6427 142.339 32.472C142.222 32.2907 142.072 32.1467 141.891 32.04C141.71 31.9333 141.507 31.8587 141.283 31.816C141.07 31.7627 140.851 31.736 140.627 31.736C140.424 31.736 140.216 31.752 140.003 31.784C139.8 31.816 139.614 31.8747 139.443 31.96C139.272 32.0347 139.134 32.1413 139.027 32.28C138.92 32.408 138.867 32.5787 138.867 32.792C138.867 33.0267 138.947 33.224 139.107 33.384C139.278 33.5333 139.491 33.6613 139.747 33.768C140.003 33.864 140.291 33.9493 140.611 34.024C140.931 34.088 141.251 34.1573 141.571 34.232C141.912 34.3067 142.243 34.3973 142.563 34.504C142.894 34.6107 143.182 34.7547 143.427 34.936C143.683 35.1067 143.886 35.3253 144.035 35.592C144.195 35.8587 144.275 36.1893 144.275 36.584C144.275 37.0853 144.168 37.5013 143.955 37.832C143.752 38.1627 143.48 38.4293 143.139 38.632C142.808 38.8347 142.43 38.9733 142.003 39.048C141.587 39.1333 141.171 39.176 140.755 39.176C140.296 39.176 139.859 39.128 139.443 39.032C139.027 38.936 138.659 38.7813 138.339 38.568C138.019 38.344 137.763 38.056 137.571 37.704C137.379 37.3413 137.272 36.904 137.251 36.392H138.611ZM147.219 29.24H145.859V27.576H147.219V29.24ZM145.859 30.728H147.219V39H145.859V30.728ZM156.462 38.296C156.462 39.6507 156.152 40.664 155.534 41.336C154.915 42.008 153.944 42.344 152.622 42.344C152.238 42.344 151.843 42.3013 151.438 42.216C151.043 42.1307 150.68 41.992 150.35 41.8C150.03 41.608 149.763 41.3573 149.55 41.048C149.336 40.7387 149.219 40.36 149.198 39.912H150.558C150.568 40.1573 150.643 40.3653 150.782 40.536C150.931 40.7067 151.107 40.8453 151.31 40.952C151.523 41.0587 151.752 41.1333 151.998 41.176C152.243 41.2293 152.478 41.256 152.702 41.256C153.15 41.256 153.528 41.176 153.838 41.016C154.147 40.8667 154.403 40.6533 154.606 40.376C154.808 40.1093 154.952 39.784 155.038 39.4C155.134 39.016 155.182 38.5947 155.182 38.136V37.592H155.15C154.915 38.104 154.558 38.4827 154.078 38.728C153.608 38.9627 153.107 39.08 152.574 39.08C151.955 39.08 151.416 38.968 150.958 38.744C150.499 38.52 150.115 38.2213 149.806 37.848C149.496 37.464 149.262 37.0213 149.102 36.52C148.952 36.008 148.878 35.4693 148.878 34.904C148.878 34.4133 148.942 33.912 149.07 33.4C149.198 32.8773 149.411 32.408 149.71 31.992C150.008 31.5653 150.403 31.2187 150.894 30.952C151.384 30.6747 151.987 30.536 152.702 30.536C153.224 30.536 153.704 30.6533 154.142 30.888C154.579 31.112 154.92 31.4533 155.166 31.912H155.182V30.728H156.462V38.296ZM152.654 37.896C153.102 37.896 153.48 37.8053 153.79 37.624C154.11 37.432 154.366 37.1867 154.558 36.888C154.75 36.5787 154.888 36.232 154.974 35.848C155.07 35.464 155.118 35.08 155.118 34.696C155.118 34.3333 155.075 33.976 154.99 33.624C154.904 33.272 154.766 32.9573 154.574 32.68C154.392 32.392 154.152 32.1627 153.854 31.992C153.555 31.8213 153.192 31.736 152.766 31.736C152.328 31.736 151.955 31.8213 151.646 31.992C151.336 32.152 151.08 32.3707 150.878 32.648C150.686 32.9253 150.542 33.2453 150.446 33.608C150.36 33.9707 150.318 34.3493 150.318 34.744C150.318 35.1173 150.355 35.4907 150.43 35.864C150.504 36.2373 150.632 36.5787 150.814 36.888C150.995 37.1867 151.235 37.432 151.534 37.624C151.832 37.8053 152.206 37.896 152.654 37.896ZM158.513 30.728H159.793V32.04H159.825C160.391 31.0373 161.287 30.536 162.513 30.536C163.057 30.536 163.511 30.6107 163.873 30.76C164.236 30.9093 164.529 31.1173 164.753 31.384C164.977 31.6507 165.132 31.9707 165.217 32.344C165.313 32.7067 165.361 33.112 165.361 33.56V39H164.001V33.4C164.001 32.888 163.852 32.4827 163.553 32.184C163.255 31.8853 162.844 31.736 162.321 31.736C161.905 31.736 161.543 31.8 161.233 31.928C160.935 32.056 160.684 32.2373 160.481 32.472C160.279 32.7067 160.124 32.984 160.017 33.304C159.921 33.6133 159.873 33.9547 159.873 34.328V39H158.513V30.728ZM175.233 31.976C175.393 31.8693 175.564 31.752 175.745 31.624C175.926 31.496 176.092 31.352 176.241 31.192C176.39 31.032 176.513 30.856 176.609 30.664C176.705 30.4613 176.753 30.2373 176.753 29.992C176.753 29.6613 176.636 29.3787 176.401 29.144C176.166 28.8987 175.846 28.776 175.441 28.776C175.121 28.776 174.822 28.8773 174.545 29.08C174.268 29.272 174.129 29.576 174.129 29.992C174.129 30.1627 174.161 30.3333 174.225 30.504C174.3 30.6747 174.39 30.8453 174.497 31.016C174.604 31.176 174.721 31.336 174.849 31.496C174.977 31.656 175.105 31.816 175.233 31.976ZM178.161 37.576C177.82 38.1093 177.35 38.5093 176.753 38.776C176.166 39.0427 175.558 39.176 174.929 39.176C174.161 39.176 173.542 39.0587 173.073 38.824C172.604 38.5893 172.241 38.3067 171.985 37.976C171.729 37.6453 171.558 37.304 171.473 36.952C171.398 36.6 171.361 36.3067 171.361 36.072C171.361 35.624 171.43 35.2293 171.569 34.888C171.718 34.5467 171.91 34.2427 172.145 33.976C172.39 33.6987 172.673 33.4533 172.993 33.24C173.324 33.016 173.67 32.808 174.033 32.616C173.873 32.392 173.718 32.1787 173.569 31.976C173.42 31.7733 173.281 31.5707 173.153 31.368C173.036 31.1547 172.94 30.936 172.865 30.712C172.801 30.4773 172.769 30.216 172.769 29.928C172.769 29.6187 172.822 29.3253 172.929 29.048C173.046 28.76 173.212 28.5093 173.425 28.296C173.649 28.072 173.921 27.896 174.241 27.768C174.561 27.64 174.929 27.576 175.345 27.576C175.697 27.576 176.038 27.624 176.369 27.72C176.71 27.816 177.009 27.9653 177.265 28.168C177.521 28.36 177.724 28.6053 177.873 28.904C178.033 29.192 178.113 29.528 178.113 29.912C178.113 30.2533 178.054 30.5733 177.937 30.872C177.82 31.16 177.66 31.4267 177.457 31.672C177.254 31.9173 177.025 32.1413 176.769 32.344C176.513 32.536 176.246 32.712 175.969 32.872L178.033 35.384C178.246 34.7867 178.369 34.1947 178.401 33.608H179.697C179.665 33.9493 179.628 34.2427 179.585 34.488C179.553 34.7227 179.505 34.9413 179.441 35.144C179.388 35.3467 179.318 35.5493 179.233 35.752C179.148 35.944 179.046 36.168 178.929 36.424L181.153 39H179.377L178.161 37.576ZM174.785 33.48C174.518 33.6293 174.262 33.784 174.017 33.944C173.782 34.104 173.574 34.2853 173.393 34.488C173.212 34.6907 173.068 34.92 172.961 35.176C172.854 35.4213 172.801 35.7147 172.801 36.056C172.801 36.344 172.86 36.6107 172.977 36.856C173.105 37.0907 173.27 37.2933 173.473 37.464C173.676 37.624 173.905 37.752 174.161 37.848C174.428 37.944 174.7 37.992 174.977 37.992C175.5 37.992 175.964 37.8693 176.369 37.624C176.785 37.3787 177.132 37.048 177.409 36.632L174.785 33.48ZM186.644 27.576H188.724L192.324 37.176L195.94 27.576H198.02V39H196.58V29.496H196.548L192.98 39H191.684L188.116 29.496H188.084V39H186.644V27.576ZM201.318 34.872C201.318 35.3733 201.382 35.8213 201.51 36.216C201.648 36.6 201.835 36.9253 202.07 37.192C202.304 37.448 202.576 37.6453 202.886 37.784C203.206 37.9227 203.542 37.992 203.894 37.992C204.246 37.992 204.576 37.9227 204.886 37.784C205.206 37.6453 205.483 37.448 205.718 37.192C205.952 36.9253 206.134 36.6 206.262 36.216C206.4 35.8213 206.47 35.3733 206.47 34.872C206.47 34.3707 206.4 33.928 206.262 33.544C206.134 33.1493 205.952 32.8187 205.718 32.552C205.483 32.2853 205.206 32.0827 204.886 31.944C204.576 31.8053 204.246 31.736 203.894 31.736C203.542 31.736 203.206 31.8053 202.886 31.944C202.576 32.0827 202.304 32.2853 202.07 32.552C201.835 32.8187 201.648 33.1493 201.51 33.544C201.382 33.928 201.318 34.3707 201.318 34.872ZM199.878 34.872C199.878 34.264 199.963 33.6987 200.134 33.176C200.304 32.6427 200.56 32.184 200.902 31.8C201.243 31.4053 201.664 31.096 202.166 30.872C202.667 30.648 203.243 30.536 203.894 30.536C204.555 30.536 205.131 30.648 205.622 30.872C206.123 31.096 206.544 31.4053 206.886 31.8C207.227 32.184 207.483 32.6427 207.654 33.176C207.824 33.6987 207.91 34.264 207.91 34.872C207.91 35.48 207.824 36.0453 207.654 36.568C207.483 37.0907 207.227 37.5493 206.886 37.944C206.544 38.328 206.123 38.632 205.622 38.856C205.131 39.0693 204.555 39.176 203.894 39.176C203.243 39.176 202.667 39.0693 202.166 38.856C201.664 38.632 201.243 38.328 200.902 37.944C200.56 37.5493 200.304 37.0907 200.134 36.568C199.963 36.0453 199.878 35.48 199.878 34.872ZM211.401 30.728H213.049V31.928H211.401V37.064C211.401 37.224 211.412 37.352 211.433 37.448C211.465 37.544 211.519 37.6187 211.593 37.672C211.668 37.7253 211.769 37.7627 211.897 37.784C212.036 37.7947 212.212 37.8 212.425 37.8H213.049V39H212.009C211.657 39 211.353 38.9787 211.097 38.936C210.852 38.8827 210.649 38.792 210.489 38.664C210.34 38.536 210.228 38.3547 210.153 38.12C210.079 37.8853 210.041 37.576 210.041 37.192V31.928H208.633V30.728H210.041V28.248H211.401V30.728ZM216 29.24H214.64V27.576H216V29.24ZM214.64 30.728H216V39H214.64V30.728ZM219.099 34.872C219.099 35.3733 219.163 35.8213 219.291 36.216C219.43 36.6 219.616 36.9253 219.851 37.192C220.086 37.448 220.358 37.6453 220.667 37.784C220.987 37.9227 221.323 37.992 221.675 37.992C222.027 37.992 222.358 37.9227 222.667 37.784C222.987 37.6453 223.264 37.448 223.499 37.192C223.734 36.9253 223.915 36.6 224.043 36.216C224.182 35.8213 224.251 35.3733 224.251 34.872C224.251 34.3707 224.182 33.928 224.043 33.544C223.915 33.1493 223.734 32.8187 223.499 32.552C223.264 32.2853 222.987 32.0827 222.667 31.944C222.358 31.8053 222.027 31.736 221.675 31.736C221.323 31.736 220.987 31.8053 220.667 31.944C220.358 32.0827 220.086 32.2853 219.851 32.552C219.616 32.8187 219.43 33.1493 219.291 33.544C219.163 33.928 219.099 34.3707 219.099 34.872ZM217.659 34.872C217.659 34.264 217.744 33.6987 217.915 33.176C218.086 32.6427 218.342 32.184 218.683 31.8C219.024 31.4053 219.446 31.096 219.947 30.872C220.448 30.648 221.024 30.536 221.675 30.536C222.336 30.536 222.912 30.648 223.403 30.872C223.904 31.096 224.326 31.4053 224.667 31.8C225.008 32.184 225.264 32.6427 225.435 33.176C225.606 33.6987 225.691 34.264 225.691 34.872C225.691 35.48 225.606 36.0453 225.435 36.568C225.264 37.0907 225.008 37.5493 224.667 37.944C224.326 38.328 223.904 38.632 223.403 38.856C222.912 39.0693 222.336 39.176 221.675 39.176C221.024 39.176 220.448 39.0693 219.947 38.856C219.446 38.632 219.024 38.328 218.683 37.944C218.342 37.5493 218.086 37.0907 217.915 36.568C217.744 36.0453 217.659 35.48 217.659 34.872ZM227.295 30.728H228.575V32.04H228.607C229.172 31.0373 230.068 30.536 231.295 30.536C231.839 30.536 232.292 30.6107 232.655 30.76C233.017 30.9093 233.311 31.1173 233.535 31.384C233.759 31.6507 233.913 31.9707 233.999 32.344C234.095 32.7067 234.143 33.112 234.143 33.56V39H232.783V33.4C232.783 32.888 232.633 32.4827 232.335 32.184C232.036 31.8853 231.625 31.736 231.103 31.736C230.687 31.736 230.324 31.8 230.015 31.928C229.716 32.056 229.465 32.2373 229.263 32.472C229.06 32.7067 228.905 32.984 228.799 33.304C228.703 33.6133 228.655 33.9547 228.655 34.328V39H227.295V30.728ZM249.406 37.576C248.958 38.1733 248.404 38.6053 247.742 38.872C247.081 39.128 246.414 39.256 245.742 39.256C244.889 39.256 244.126 39.1013 243.454 38.792C242.782 38.472 242.212 38.0453 241.742 37.512C241.273 36.9787 240.916 36.3653 240.67 35.672C240.425 34.9787 240.302 34.2587 240.302 33.512C240.302 32.68 240.414 31.8907 240.638 31.144C240.873 30.3867 241.214 29.7253 241.662 29.16C242.121 28.5947 242.686 28.1467 243.358 27.816C244.041 27.4747 244.836 27.304 245.742 27.304C246.361 27.304 246.942 27.3787 247.486 27.528C248.041 27.6667 248.532 27.8907 248.958 28.2C249.396 28.5093 249.758 28.904 250.046 29.384C250.345 29.8533 250.548 30.424 250.654 31.096H249.134C249.06 30.6587 248.921 30.2853 248.718 29.976C248.516 29.656 248.265 29.3947 247.966 29.192C247.668 28.9893 247.326 28.84 246.942 28.744C246.569 28.6373 246.169 28.584 245.742 28.584C245.049 28.584 244.452 28.7227 243.95 29C243.46 29.2773 243.054 29.6453 242.734 30.104C242.425 30.552 242.196 31.0693 242.046 31.656C241.897 32.232 241.822 32.824 241.822 33.432C241.822 34.0293 241.908 34.6053 242.078 35.16C242.249 35.704 242.5 36.1893 242.83 36.616C243.161 37.032 243.566 37.368 244.046 37.624C244.537 37.8693 245.102 37.992 245.742 37.992C246.34 37.992 246.868 37.896 247.326 37.704C247.785 37.512 248.169 37.2507 248.478 36.92C248.798 36.5787 249.038 36.184 249.198 35.736C249.358 35.2773 249.428 34.7867 249.406 34.264H245.758V32.984H250.766V39H249.806L249.406 37.576ZM252.731 30.728H254.011V32.472H254.043C254.374 31.8 254.779 31.304 255.259 30.984C255.739 30.664 256.347 30.5147 257.083 30.536V31.976C256.539 31.976 256.075 32.0507 255.691 32.2C255.307 32.3493 254.998 32.568 254.763 32.856C254.528 33.144 254.358 33.496 254.251 33.912C254.144 34.3173 254.091 34.7867 254.091 35.32V39H252.731V30.728ZM265.435 38.968C265.2 39.1067 264.875 39.176 264.459 39.176C264.107 39.176 263.824 39.08 263.611 38.888C263.408 38.6853 263.307 38.36 263.307 37.912C262.934 38.36 262.496 38.6853 261.995 38.888C261.504 39.08 260.971 39.176 260.395 39.176C260.022 39.176 259.664 39.1333 259.323 39.048C258.992 38.9627 258.704 38.8293 258.459 38.648C258.214 38.4667 258.016 38.232 257.867 37.944C257.728 37.6453 257.659 37.288 257.659 36.872C257.659 36.4027 257.739 36.0187 257.899 35.72C258.059 35.4213 258.267 35.1813 258.523 35C258.79 34.808 259.088 34.664 259.419 34.568C259.76 34.472 260.107 34.392 260.459 34.328C260.832 34.2533 261.184 34.2 261.515 34.168C261.856 34.1253 262.155 34.072 262.411 34.008C262.667 33.9333 262.87 33.832 263.019 33.704C263.168 33.5653 263.243 33.368 263.243 33.112C263.243 32.8133 263.184 32.5733 263.067 32.392C262.96 32.2107 262.816 32.072 262.635 31.976C262.464 31.88 262.267 31.816 262.043 31.784C261.83 31.752 261.616 31.736 261.403 31.736C260.827 31.736 260.347 31.848 259.963 32.072C259.579 32.2853 259.371 32.696 259.339 33.304H257.979C258 32.792 258.107 32.36 258.299 32.008C258.491 31.656 258.747 31.3733 259.067 31.16C259.387 30.936 259.75 30.776 260.155 30.68C260.571 30.584 261.014 30.536 261.483 30.536C261.856 30.536 262.224 30.5627 262.587 30.616C262.96 30.6693 263.296 30.7813 263.595 30.952C263.894 31.112 264.134 31.3413 264.315 31.64C264.496 31.9387 264.587 32.328 264.587 32.808V37.064C264.587 37.384 264.603 37.6187 264.635 37.768C264.678 37.9173 264.806 37.992 265.019 37.992C265.136 37.992 265.275 37.9653 265.435 37.912V38.968ZM263.227 34.728C263.056 34.856 262.832 34.952 262.555 35.016C262.278 35.0693 261.984 35.1173 261.675 35.16C261.376 35.192 261.072 35.2347 260.763 35.288C260.454 35.3307 260.176 35.4053 259.931 35.512C259.686 35.6187 259.483 35.7733 259.323 35.976C259.174 36.168 259.099 36.4347 259.099 36.776C259.099 37 259.142 37.192 259.227 37.352C259.323 37.5013 259.44 37.624 259.579 37.72C259.728 37.816 259.899 37.8853 260.091 37.928C260.283 37.9707 260.486 37.992 260.699 37.992C261.147 37.992 261.531 37.9333 261.851 37.816C262.171 37.688 262.432 37.5333 262.635 37.352C262.838 37.16 262.987 36.9573 263.083 36.744C263.179 36.52 263.227 36.312 263.227 36.12V34.728ZM266.749 30.728H268.109V31.848H268.141C268.365 31.3893 268.717 31.0587 269.197 30.856C269.677 30.6427 270.205 30.536 270.781 30.536C271.421 30.536 271.975 30.6533 272.445 30.888C272.925 31.1227 273.319 31.4427 273.629 31.848C273.949 32.2427 274.189 32.7013 274.349 33.224C274.509 33.7467 274.589 34.3013 274.589 34.888C274.589 35.4747 274.509 36.0293 274.349 36.552C274.199 37.0747 273.965 37.5333 273.645 37.928C273.335 38.312 272.941 38.616 272.461 38.84C271.991 39.064 271.442 39.176 270.813 39.176C270.61 39.176 270.381 39.1547 270.125 39.112C269.879 39.0693 269.634 39 269.389 38.904C269.143 38.808 268.909 38.68 268.685 38.52C268.471 38.3493 268.29 38.1413 268.141 37.896H268.109V42.152H266.749V30.728ZM273.149 34.792C273.149 34.408 273.095 34.0347 272.989 33.672C272.893 33.2987 272.738 32.968 272.525 32.68C272.322 32.392 272.055 32.1627 271.725 31.992C271.405 31.8213 271.026 31.736 270.589 31.736C270.13 31.736 269.741 31.8267 269.421 32.008C269.101 32.1893 268.839 32.4293 268.637 32.728C268.434 33.016 268.285 33.3467 268.189 33.72C268.103 34.0933 268.061 34.472 268.061 34.856C268.061 35.2613 268.109 35.656 268.205 36.04C268.301 36.4133 268.45 36.744 268.653 37.032C268.866 37.32 269.138 37.5547 269.469 37.736C269.799 37.9067 270.199 37.992 270.669 37.992C271.138 37.992 271.527 37.9013 271.837 37.72C272.157 37.5387 272.413 37.2987 272.605 37C272.797 36.7013 272.935 36.36 273.021 35.976C273.106 35.592 273.149 35.1973 273.149 34.792ZM276.185 27.576H277.545V31.944H277.577C277.684 31.688 277.833 31.4747 278.025 31.304C278.217 31.1227 278.43 30.9787 278.665 30.872C278.91 30.7547 279.161 30.6693 279.417 30.616C279.684 30.5627 279.94 30.536 280.185 30.536C280.729 30.536 281.182 30.6107 281.545 30.76C281.908 30.9093 282.201 31.1173 282.425 31.384C282.649 31.6507 282.804 31.9707 282.889 32.344C282.985 32.7067 283.033 33.112 283.033 33.56V39H281.673V33.4C281.673 32.888 281.524 32.4827 281.225 32.184C280.926 31.8853 280.516 31.736 279.993 31.736C279.577 31.736 279.214 31.8 278.905 31.928C278.606 32.056 278.356 32.2373 278.153 32.472C277.95 32.7067 277.796 32.984 277.689 33.304C277.593 33.6133 277.545 33.9547 277.545 34.328V39H276.185V27.576ZM286.516 29.24H285.156V27.576H286.516V29.24ZM285.156 30.728H286.516V39H285.156V30.728ZM294.239 33.384C294.132 32.8613 293.908 32.456 293.567 32.168C293.225 31.88 292.767 31.736 292.191 31.736C291.7 31.736 291.289 31.8267 290.959 32.008C290.628 32.1893 290.361 32.4293 290.159 32.728C289.967 33.0267 289.828 33.3733 289.743 33.768C289.657 34.152 289.615 34.552 289.615 34.968C289.615 35.352 289.657 35.7253 289.743 36.088C289.839 36.4507 289.983 36.776 290.175 37.064C290.367 37.3413 290.617 37.5653 290.927 37.736C291.236 37.9067 291.604 37.992 292.031 37.992C292.703 37.992 293.225 37.816 293.599 37.464C293.983 37.112 294.217 36.616 294.303 35.976H295.695C295.545 37 295.161 37.7893 294.543 38.344C293.935 38.8987 293.103 39.176 292.047 39.176C291.417 39.176 290.857 39.0747 290.367 38.872C289.887 38.6693 289.481 38.3813 289.151 38.008C288.831 37.6347 288.585 37.192 288.415 36.68C288.255 36.1573 288.175 35.5867 288.175 34.968C288.175 34.3493 288.255 33.7733 288.415 33.24C288.575 32.696 288.815 32.2267 289.135 31.832C289.465 31.4267 289.876 31.112 290.367 30.888C290.857 30.6533 291.428 30.536 292.079 30.536C292.548 30.536 292.985 30.5947 293.391 30.712C293.807 30.8187 294.169 30.9893 294.479 31.224C294.799 31.4587 295.06 31.7573 295.263 32.12C295.465 32.472 295.593 32.8933 295.647 33.384H294.239ZM298.048 36.392C298.059 36.6907 298.128 36.9467 298.256 37.16C298.384 37.3627 298.55 37.528 298.752 37.656C298.966 37.7733 299.2 37.8587 299.456 37.912C299.723 37.9653 299.995 37.992 300.272 37.992C300.486 37.992 300.71 37.976 300.944 37.944C301.179 37.912 301.392 37.8533 301.584 37.768C301.787 37.6827 301.952 37.56 302.08 37.4C302.208 37.2293 302.272 37.016 302.272 36.76C302.272 36.408 302.139 36.1413 301.872 35.96C301.606 35.7787 301.27 35.6347 300.864 35.528C300.47 35.4107 300.038 35.3093 299.568 35.224C299.099 35.128 298.662 35 298.256 34.84C297.862 34.6693 297.531 34.4347 297.264 34.136C296.998 33.8373 296.864 33.4213 296.864 32.888C296.864 32.472 296.955 32.1147 297.136 31.816C297.328 31.5173 297.568 31.2773 297.856 31.096C298.155 30.904 298.486 30.7653 298.848 30.68C299.222 30.584 299.59 30.536 299.952 30.536C300.422 30.536 300.854 30.5787 301.248 30.664C301.643 30.7387 301.99 30.8773 302.288 31.08C302.598 31.272 302.843 31.5387 303.024 31.88C303.206 32.2107 303.312 32.6267 303.344 33.128H301.984C301.963 32.8613 301.894 32.6427 301.776 32.472C301.659 32.2907 301.51 32.1467 301.328 32.04C301.147 31.9333 300.944 31.8587 300.72 31.816C300.507 31.7627 300.288 31.736 300.064 31.736C299.862 31.736 299.654 31.752 299.44 31.784C299.238 31.816 299.051 31.8747 298.88 31.96C298.71 32.0347 298.571 32.1413 298.464 32.28C298.358 32.408 298.304 32.5787 298.304 32.792C298.304 33.0267 298.384 33.224 298.544 33.384C298.715 33.5333 298.928 33.6613 299.184 33.768C299.44 33.864 299.728 33.9493 300.048 34.024C300.368 34.088 300.688 34.1573 301.008 34.232C301.35 34.3067 301.68 34.3973 302 34.504C302.331 34.6107 302.619 34.7547 302.864 34.936C303.12 35.1067 303.323 35.3253 303.472 35.592C303.632 35.8587 303.712 36.1893 303.712 36.584C303.712 37.0853 303.606 37.5013 303.392 37.832C303.19 38.1627 302.918 38.4293 302.576 38.632C302.246 38.8347 301.867 38.9733 301.44 39.048C301.024 39.1333 300.608 39.176 300.192 39.176C299.734 39.176 299.296 39.128 298.88 39.032C298.464 38.936 298.096 38.7813 297.776 38.568C297.456 38.344 297.2 38.056 297.008 37.704C296.816 37.3413 296.71 36.904 296.688 36.392H298.048Z" fill="#8A8A8A"/>
</svg>
