<svg width="49" height="59" viewBox="0 0 49 59" fill="none" xmlns="http://www.w3.org/2000/svg">
<path d="M19.6119 58.2257C19.3665 58.6924 19.8678 59.1907 20.3267 58.9266V58.9236L30.0793 53.3439C30.0793 53.3439 34.4246 51.1874 34.4246 46.8923V16.0497C34.4246 14.9902 34.7685 13.7657 35.3697 12.6716C35.6242 12.2094 35.1168 11.7052 34.6564 11.9693L34.4246 12.1014V12.0984L24.5192 17.7635C24.5192 17.7635 20.3267 20.0626 20.3267 24.1506V54.9947C20.3267 56.3123 20.0693 57.3523 19.6119 58.2242V58.2257Z" fill="#F1F1F1"/>
<path d="M0.315868 14.3074C-0.0567232 14.3749 -0.118822 14.8732 0.232565 15.0127H0.23408L7.67833 17.9962C7.67833 17.9962 10.8075 19.4699 13.2445 17.585L29.746 7.26907C30.3473 6.80385 31.1925 6.45869 32.077 6.31312C32.4511 6.25159 32.5147 5.74885 32.1618 5.60779L31.9846 5.53725H31.9861L24.4268 2.50582C24.4268 2.50582 21.3794 1.30975 18.9636 2.97254C14.9575 5.73084 7.0422 10.7207 2.50901 13.3635C1.69112 13.8407 1.01107 14.1798 0.315868 14.3074Z" fill="#F1F1F1"/>
<path d="M26.9486 23.3222L26.0701 22.6319L39.0139 6.44668H28.2466V5.33616H39.9014L43.1911 1.22121C43.8606 0.385312 44.9011 -0.0694034 45.9765 0.00863357C47.0518 0.0851698 48.0151 0.682453 48.5558 1.60689C49.1465 2.61687 49.1481 3.82194 48.5604 4.83342C47.9727 5.8449 46.9186 6.44818 45.7417 6.44818H40.4437L26.9486 23.3237V23.3222ZM41.3327 5.33616H45.7417C46.5127 5.33616 47.2033 4.93997 47.5895 4.27816C47.9742 3.61484 47.9742 2.82547 47.5865 2.16365C47.2275 1.54986 46.6111 1.16718 45.8962 1.11616C45.1828 1.06513 44.5164 1.35477 44.0711 1.91154L41.3327 5.33616Z" fill="#F1F1F1"/>
</svg>
