<svg width="248" height="48" viewBox="0 0 248 48" fill="none" xmlns="http://www.w3.org/2000/svg">
<path d="M15.9554 47.3701C15.7558 47.7498 16.1637 48.1551 16.537 47.9403V47.9378L24.4713 43.3984C24.4713 43.3984 28.0065 41.644 28.0065 38.1497V13.0574C28.0065 12.1954 28.2862 11.1992 28.7754 10.3091C28.9824 9.93308 28.5696 9.52286 28.195 9.73774L28.0065 9.84518V9.84274L19.9478 14.4517C19.9478 14.4517 16.537 16.3221 16.537 19.6479V44.7414C16.537 45.8134 16.3275 46.6595 15.9554 47.3689V47.3701Z" fill="#F1F1F1"/>
<path d="M0.256977 11.6399C-0.0461477 11.6949 -0.0966686 12.1002 0.189206 12.2138H0.190438L6.24678 14.6409C6.24678 14.6409 8.79254 15.8399 10.7752 14.3064L24.2002 5.91382C24.6894 5.53534 25.3769 5.25453 26.0965 5.1361C26.4009 5.08604 26.4527 4.67703 26.1656 4.56227L26.0214 4.50488H26.0226L19.8726 2.03863C19.8726 2.03863 17.3934 1.06556 15.428 2.41834C12.1688 4.66238 5.72925 8.72193 2.04123 10.872C1.37583 11.2602 0.822565 11.5361 0.256977 11.6399Z" fill="#F1F1F1"/>
<path d="M21.9243 18.974L21.2096 18.4124L31.7401 5.24476H22.9803V4.34128H32.4622L35.1386 0.993525C35.6832 0.313474 36.5297 -0.0564638 37.4046 0.00702392C38.2795 0.0692907 39.0632 0.555216 39.5031 1.3073C39.9836 2.12898 39.9849 3.10938 39.5068 3.93227C39.0287 4.75517 38.171 5.24598 37.2136 5.24598H32.9033L21.9243 18.9752V18.974ZM33.6266 4.34128H37.2136C37.8408 4.34128 38.4027 4.01896 38.7169 3.48053C39.0299 2.94089 39.0299 2.29869 38.7144 1.76026C38.4224 1.26091 37.9209 0.949572 37.3393 0.908061C36.7589 0.86655 36.2167 1.10219 35.8545 1.55515L33.6266 4.34128Z" fill="#F1F1F1"/>
<path d="M55.9923 8.576H65.2403V10.304H61.6083V20H59.6083V10.304H55.9923V8.576ZM66.3086 8.576H68.1326V12.816H68.1646C68.3886 12.4427 68.7193 12.1333 69.1566 11.888C69.6046 11.632 70.1006 11.504 70.6446 11.504C71.5513 11.504 72.266 11.7387 72.7886 12.208C73.3113 12.6773 73.5726 13.3813 73.5726 14.32V20H71.7486V14.8C71.7273 14.1493 71.5886 13.68 71.3326 13.392C71.0766 13.0933 70.6766 12.944 70.1326 12.944C69.8233 12.944 69.546 13.0027 69.3006 13.12C69.0553 13.2267 68.8473 13.3813 68.6766 13.584C68.506 13.776 68.3726 14.0053 68.2766 14.272C68.1806 14.5387 68.1326 14.8213 68.1326 15.12V20H66.3086V8.576ZM81.1761 15.136C81.1548 14.848 81.0908 14.5707 80.9841 14.304C80.8881 14.0373 80.7495 13.808 80.5681 13.616C80.3975 13.4133 80.1841 13.2533 79.9281 13.136C79.6828 13.008 79.4055 12.944 79.0961 12.944C78.7761 12.944 78.4828 13.0027 78.2161 13.12C77.9601 13.2267 77.7361 13.3813 77.5441 13.584C77.3628 13.776 77.2135 14.0053 77.0961 14.272C76.9895 14.5387 76.9308 14.8267 76.9201 15.136H81.1761ZM76.9201 16.336C76.9201 16.656 76.9628 16.9653 77.0481 17.264C77.1441 17.5627 77.2828 17.824 77.4641 18.048C77.6455 18.272 77.8748 18.4533 78.1521 18.592C78.4295 18.72 78.7601 18.784 79.1441 18.784C79.6775 18.784 80.1041 18.672 80.4241 18.448C80.7548 18.2133 81.0001 17.8667 81.1601 17.408H82.8881C82.7921 17.856 82.6268 18.256 82.3921 18.608C82.1575 18.96 81.8748 19.2587 81.5441 19.504C81.2135 19.7387 80.8401 19.9147 80.4241 20.032C80.0188 20.16 79.5921 20.224 79.1441 20.224C78.4935 20.224 77.9175 20.1173 77.4161 19.904C76.9148 19.6907 76.4881 19.392 76.1361 19.008C75.7948 18.624 75.5335 18.1653 75.3521 17.632C75.1815 17.0987 75.0961 16.512 75.0961 15.872C75.0961 15.2853 75.1868 14.7307 75.3681 14.208C75.5601 13.6747 75.8268 13.2107 76.1681 12.816C76.5201 12.4107 76.9415 12.0907 77.4321 11.856C77.9228 11.6213 78.4775 11.504 79.0961 11.504C79.7468 11.504 80.3281 11.6427 80.8401 11.92C81.3628 12.1867 81.7948 12.544 82.1361 12.992C82.4775 13.44 82.7228 13.9573 82.8721 14.544C83.0321 15.12 83.0748 15.7173 83.0001 16.336H76.9201ZM84.3868 11.728H86.0988V13.328H86.1308C86.1841 13.104 86.2854 12.8853 86.4348 12.672C86.5948 12.4587 86.7814 12.2667 86.9948 12.096C87.2188 11.9147 87.4641 11.7707 87.7308 11.664C87.9974 11.5573 88.2694 11.504 88.5468 11.504C88.7601 11.504 88.9041 11.5093 88.9788 11.52C89.0641 11.5307 89.1494 11.5413 89.2348 11.552V13.312C89.1068 13.2907 88.9734 13.2747 88.8348 13.264C88.7068 13.2427 88.5788 13.232 88.4508 13.232C88.1414 13.232 87.8481 13.296 87.5708 13.424C87.3041 13.5413 87.0694 13.7227 86.8668 13.968C86.6641 14.2027 86.5041 14.496 86.3868 14.848C86.2694 15.2 86.2108 15.6053 86.2108 16.064V20H84.3868V11.728ZM95.4105 15.136C95.3892 14.848 95.3252 14.5707 95.2185 14.304C95.1225 14.0373 94.9838 13.808 94.8025 13.616C94.6318 13.4133 94.4185 13.2533 94.1625 13.136C93.9172 13.008 93.6398 12.944 93.3305 12.944C93.0105 12.944 92.7172 13.0027 92.4505 13.12C92.1945 13.2267 91.9705 13.3813 91.7785 13.584C91.5972 13.776 91.4478 14.0053 91.3305 14.272C91.2238 14.5387 91.1652 14.8267 91.1545 15.136H95.4105ZM91.1545 16.336C91.1545 16.656 91.1972 16.9653 91.2825 17.264C91.3785 17.5627 91.5172 17.824 91.6985 18.048C91.8798 18.272 92.1092 18.4533 92.3865 18.592C92.6638 18.72 92.9945 18.784 93.3785 18.784C93.9118 18.784 94.3385 18.672 94.6585 18.448C94.9892 18.2133 95.2345 17.8667 95.3945 17.408H97.1225C97.0265 17.856 96.8612 18.256 96.6265 18.608C96.3918 18.96 96.1092 19.2587 95.7785 19.504C95.4478 19.7387 95.0745 19.9147 94.6585 20.032C94.2532 20.16 93.8265 20.224 93.3785 20.224C92.7278 20.224 92.1518 20.1173 91.6505 19.904C91.1492 19.6907 90.7225 19.392 90.3705 19.008C90.0292 18.624 89.7678 18.1653 89.5865 17.632C89.4158 17.0987 89.3305 16.512 89.3305 15.872C89.3305 15.2853 89.4212 14.7307 89.6025 14.208C89.7945 13.6747 90.0612 13.2107 90.4025 12.816C90.7545 12.4107 91.1758 12.0907 91.6665 11.856C92.1572 11.6213 92.7118 11.504 93.3305 11.504C93.9812 11.504 94.5625 11.6427 95.0745 11.92C95.5972 12.1867 96.0292 12.544 96.3705 12.992C96.7118 13.44 96.9572 13.9573 97.1065 14.544C97.2665 15.12 97.3092 15.7173 97.2345 16.336H91.1545ZM99.9971 17.344C100.05 17.8773 100.253 18.2507 100.605 18.464C100.957 18.6773 101.378 18.784 101.869 18.784C102.04 18.784 102.232 18.7733 102.445 18.752C102.669 18.72 102.877 18.6667 103.069 18.592C103.261 18.5173 103.416 18.4107 103.533 18.272C103.661 18.1227 103.72 17.9307 103.709 17.696C103.698 17.4613 103.613 17.2693 103.453 17.12C103.293 16.9707 103.085 16.8533 102.829 16.768C102.584 16.672 102.301 16.592 101.981 16.528C101.661 16.464 101.336 16.3947 101.005 16.32C100.664 16.2453 100.333 16.1547 100.013 16.048C99.7038 15.9413 99.4211 15.7973 99.1651 15.616C98.9198 15.4347 98.7225 15.2053 98.5731 14.928C98.4238 14.64 98.3491 14.288 98.3491 13.872C98.3491 13.424 98.4558 13.0507 98.6691 12.752C98.8931 12.4427 99.1705 12.1973 99.5011 12.016C99.8425 11.824 100.216 11.6907 100.621 11.616C101.037 11.5413 101.432 11.504 101.805 11.504C102.232 11.504 102.637 11.552 103.021 11.648C103.416 11.7333 103.768 11.8773 104.077 12.08C104.397 12.2827 104.658 12.5493 104.861 12.88C105.074 13.2 105.208 13.5893 105.261 14.048H103.357C103.272 13.6107 103.069 13.3173 102.749 13.168C102.44 13.0187 102.082 12.944 101.677 12.944C101.549 12.944 101.394 12.9547 101.213 12.976C101.042 12.9973 100.877 13.04 100.717 13.104C100.568 13.1573 100.44 13.2427 100.333 13.36C100.226 13.4667 100.173 13.6107 100.173 13.792C100.173 14.016 100.248 14.1973 100.397 14.336C100.557 14.4747 100.76 14.592 101.005 14.688C101.261 14.7733 101.549 14.848 101.869 14.912C102.189 14.976 102.52 15.0453 102.861 15.12C103.192 15.1947 103.517 15.2853 103.837 15.392C104.157 15.4987 104.44 15.6427 104.685 15.824C104.941 16.0053 105.144 16.2347 105.293 16.512C105.453 16.7893 105.533 17.1307 105.533 17.536C105.533 18.0267 105.421 18.4427 105.197 18.784C104.973 19.1253 104.68 19.4027 104.317 19.616C103.965 19.8293 103.57 19.984 103.133 20.08C102.696 20.176 102.264 20.224 101.837 20.224C101.314 20.224 100.829 20.1653 100.381 20.048C99.9438 19.9307 99.5598 19.7547 99.2291 19.52C98.9091 19.2747 98.6531 18.976 98.4611 18.624C98.2798 18.2613 98.1838 17.8347 98.1731 17.344H99.9971ZM113.846 18.16C113.846 18.384 113.873 18.544 113.926 18.64C113.99 18.736 114.107 18.784 114.278 18.784C114.331 18.784 114.395 18.784 114.47 18.784C114.545 18.784 114.63 18.7733 114.726 18.752V20.016C114.662 20.0373 114.577 20.0587 114.47 20.08C114.374 20.112 114.273 20.1387 114.166 20.16C114.059 20.1813 113.953 20.1973 113.846 20.208C113.739 20.2187 113.649 20.224 113.574 20.224C113.201 20.224 112.891 20.1493 112.646 20C112.401 19.8507 112.241 19.5893 112.166 19.216C111.803 19.568 111.355 19.824 110.822 19.984C110.299 20.144 109.793 20.224 109.302 20.224C108.929 20.224 108.571 20.1707 108.23 20.064C107.889 19.968 107.585 19.824 107.318 19.632C107.062 19.4293 106.854 19.1787 106.694 18.88C106.545 18.5707 106.47 18.2133 106.47 17.808C106.47 17.296 106.561 16.88 106.742 16.56C106.934 16.24 107.179 15.9893 107.478 15.808C107.787 15.6267 108.129 15.4987 108.502 15.424C108.886 15.3387 109.27 15.2747 109.654 15.232C109.985 15.168 110.299 15.1253 110.598 15.104C110.897 15.072 111.158 15.024 111.382 14.96C111.617 14.896 111.798 14.8 111.926 14.672C112.065 14.5333 112.134 14.3307 112.134 14.064C112.134 13.8293 112.075 13.6373 111.958 13.488C111.851 13.3387 111.713 13.2267 111.542 13.152C111.382 13.0667 111.201 13.0133 110.998 12.992C110.795 12.96 110.603 12.944 110.422 12.944C109.91 12.944 109.489 13.0507 109.158 13.264C108.827 13.4773 108.641 13.808 108.598 14.256H106.774C106.806 13.7227 106.934 13.28 107.158 12.928C107.382 12.576 107.665 12.2933 108.006 12.08C108.358 11.8667 108.753 11.7173 109.19 11.632C109.627 11.5467 110.075 11.504 110.534 11.504C110.939 11.504 111.339 11.5467 111.734 11.632C112.129 11.7173 112.481 11.856 112.79 12.048C113.11 12.24 113.366 12.4907 113.558 12.8C113.75 13.0987 113.846 13.4667 113.846 13.904V18.16ZM112.022 15.856C111.745 16.0373 111.403 16.1493 110.998 16.192C110.593 16.224 110.187 16.2773 109.782 16.352C109.59 16.384 109.403 16.432 109.222 16.496C109.041 16.5493 108.881 16.6293 108.742 16.736C108.603 16.832 108.491 16.9653 108.406 17.136C108.331 17.296 108.294 17.4933 108.294 17.728C108.294 17.9307 108.353 18.1013 108.47 18.24C108.587 18.3787 108.726 18.4907 108.886 18.576C109.057 18.6507 109.238 18.704 109.43 18.736C109.633 18.768 109.814 18.784 109.974 18.784C110.177 18.784 110.395 18.7573 110.63 18.704C110.865 18.6507 111.083 18.56 111.286 18.432C111.499 18.304 111.675 18.144 111.814 17.952C111.953 17.7493 112.022 17.504 112.022 17.216V15.856ZM128.23 12.208C128.144 11.8773 128.027 11.5733 127.878 11.296C127.728 11.0187 127.536 10.7787 127.302 10.576C127.067 10.3733 126.79 10.2187 126.47 10.112C126.16 9.99467 125.798 9.936 125.382 9.936C124.774 9.936 124.246 10.0587 123.798 10.304C123.36 10.5493 123.003 10.88 122.726 11.296C122.448 11.7013 122.24 12.1653 122.102 12.688C121.974 13.2107 121.91 13.744 121.91 14.288C121.91 14.832 121.974 15.3653 122.102 15.888C122.24 16.4107 122.448 16.88 122.726 17.296C123.003 17.7013 123.36 18.0267 123.798 18.272C124.246 18.5173 124.774 18.64 125.382 18.64C125.83 18.64 126.224 18.5653 126.566 18.416C126.907 18.256 127.2 18.0427 127.446 17.776C127.691 17.4987 127.883 17.1787 128.022 16.816C128.16 16.4533 128.251 16.064 128.294 15.648H130.246C130.203 16.3307 130.054 16.9547 129.798 17.52C129.552 18.0853 129.216 18.576 128.79 18.992C128.363 19.3973 127.862 19.712 127.286 19.936C126.71 20.16 126.075 20.272 125.382 20.272C124.528 20.272 123.76 20.1173 123.078 19.808C122.406 19.488 121.835 19.056 121.366 18.512C120.896 17.968 120.534 17.3333 120.278 16.608C120.032 15.8827 119.91 15.1093 119.91 14.288C119.91 13.4773 120.032 12.7093 120.278 11.984C120.534 11.2587 120.896 10.624 121.366 10.08C121.835 9.536 122.406 9.104 123.078 8.784C123.76 8.464 124.528 8.304 125.382 8.304C126.022 8.304 126.624 8.39467 127.19 8.576C127.755 8.74667 128.251 9.00267 128.678 9.344C129.115 9.67467 129.467 10.08 129.734 10.56C130 11.04 130.166 11.5893 130.23 12.208H128.23ZM138.737 18.16C138.737 18.384 138.763 18.544 138.817 18.64C138.881 18.736 138.998 18.784 139.169 18.784C139.222 18.784 139.286 18.784 139.361 18.784C139.435 18.784 139.521 18.7733 139.617 18.752V20.016C139.553 20.0373 139.467 20.0587 139.361 20.08C139.265 20.112 139.163 20.1387 139.057 20.16C138.95 20.1813 138.843 20.1973 138.737 20.208C138.63 20.2187 138.539 20.224 138.465 20.224C138.091 20.224 137.782 20.1493 137.537 20C137.291 19.8507 137.131 19.5893 137.057 19.216C136.694 19.568 136.246 19.824 135.713 19.984C135.19 20.144 134.683 20.224 134.193 20.224C133.819 20.224 133.462 20.1707 133.121 20.064C132.779 19.968 132.475 19.824 132.209 19.632C131.953 19.4293 131.745 19.1787 131.585 18.88C131.435 18.5707 131.361 18.2133 131.361 17.808C131.361 17.296 131.451 16.88 131.633 16.56C131.825 16.24 132.07 15.9893 132.369 15.808C132.678 15.6267 133.019 15.4987 133.393 15.424C133.777 15.3387 134.161 15.2747 134.545 15.232C134.875 15.168 135.19 15.1253 135.489 15.104C135.787 15.072 136.049 15.024 136.273 14.96C136.507 14.896 136.689 14.8 136.817 14.672C136.955 14.5333 137.025 14.3307 137.025 14.064C137.025 13.8293 136.966 13.6373 136.849 13.488C136.742 13.3387 136.603 13.2267 136.433 13.152C136.273 13.0667 136.091 13.0133 135.889 12.992C135.686 12.96 135.494 12.944 135.313 12.944C134.801 12.944 134.379 13.0507 134.049 13.264C133.718 13.4773 133.531 13.808 133.489 14.256H131.665C131.697 13.7227 131.825 13.28 132.049 12.928C132.273 12.576 132.555 12.2933 132.897 12.08C133.249 11.8667 133.643 11.7173 134.081 11.632C134.518 11.5467 134.966 11.504 135.425 11.504C135.83 11.504 136.23 11.5467 136.625 11.632C137.019 11.7173 137.371 11.856 137.681 12.048C138.001 12.24 138.257 12.4907 138.449 12.8C138.641 13.0987 138.737 13.4667 138.737 13.904V18.16ZM136.913 15.856C136.635 16.0373 136.294 16.1493 135.889 16.192C135.483 16.224 135.078 16.2773 134.673 16.352C134.481 16.384 134.294 16.432 134.113 16.496C133.931 16.5493 133.771 16.6293 133.633 16.736C133.494 16.832 133.382 16.9653 133.297 17.136C133.222 17.296 133.185 17.4933 133.185 17.728C133.185 17.9307 133.243 18.1013 133.361 18.24C133.478 18.3787 133.617 18.4907 133.777 18.576C133.947 18.6507 134.129 18.704 134.321 18.736C134.523 18.768 134.705 18.784 134.865 18.784C135.067 18.784 135.286 18.7573 135.521 18.704C135.755 18.6507 135.974 18.56 136.177 18.432C136.39 18.304 136.566 18.144 136.705 17.952C136.843 17.7493 136.913 17.504 136.913 17.216V15.856ZM142.075 17.344C142.129 17.8773 142.331 18.2507 142.683 18.464C143.035 18.6773 143.457 18.784 143.947 18.784C144.118 18.784 144.31 18.7733 144.523 18.752C144.747 18.72 144.955 18.6667 145.147 18.592C145.339 18.5173 145.494 18.4107 145.611 18.272C145.739 18.1227 145.798 17.9307 145.787 17.696C145.777 17.4613 145.691 17.2693 145.531 17.12C145.371 16.9707 145.163 16.8533 144.907 16.768C144.662 16.672 144.379 16.592 144.059 16.528C143.739 16.464 143.414 16.3947 143.083 16.32C142.742 16.2453 142.411 16.1547 142.091 16.048C141.782 15.9413 141.499 15.7973 141.243 15.616C140.998 15.4347 140.801 15.2053 140.651 14.928C140.502 14.64 140.427 14.288 140.427 13.872C140.427 13.424 140.534 13.0507 140.747 12.752C140.971 12.4427 141.249 12.1973 141.579 12.016C141.921 11.824 142.294 11.6907 142.699 11.616C143.115 11.5413 143.51 11.504 143.883 11.504C144.31 11.504 144.715 11.552 145.099 11.648C145.494 11.7333 145.846 11.8773 146.155 12.08C146.475 12.2827 146.737 12.5493 146.939 12.88C147.153 13.2 147.286 13.5893 147.339 14.048H145.435C145.35 13.6107 145.147 13.3173 144.827 13.168C144.518 13.0187 144.161 12.944 143.755 12.944C143.627 12.944 143.473 12.9547 143.291 12.976C143.121 12.9973 142.955 13.04 142.795 13.104C142.646 13.1573 142.518 13.2427 142.411 13.36C142.305 13.4667 142.251 13.6107 142.251 13.792C142.251 14.016 142.326 14.1973 142.475 14.336C142.635 14.4747 142.838 14.592 143.083 14.688C143.339 14.7733 143.627 14.848 143.947 14.912C144.267 14.976 144.598 15.0453 144.939 15.12C145.27 15.1947 145.595 15.2853 145.915 15.392C146.235 15.4987 146.518 15.6427 146.763 15.824C147.019 16.0053 147.222 16.2347 147.371 16.512C147.531 16.7893 147.611 17.1307 147.611 17.536C147.611 18.0267 147.499 18.4427 147.275 18.784C147.051 19.1253 146.758 19.4027 146.395 19.616C146.043 19.8293 145.649 19.984 145.211 20.08C144.774 20.176 144.342 20.224 143.915 20.224C143.393 20.224 142.907 20.1653 142.459 20.048C142.022 19.9307 141.638 19.7547 141.307 19.52C140.987 19.2747 140.731 18.976 140.539 18.624C140.358 18.2613 140.262 17.8347 140.251 17.344H142.075ZM148.164 11.728H149.54V9.248H151.364V11.728H153.012V13.088H151.364V17.504C151.364 17.696 151.369 17.8613 151.38 18C151.401 18.1387 151.439 18.256 151.492 18.352C151.556 18.448 151.647 18.5227 151.764 18.576C151.881 18.6187 152.041 18.64 152.244 18.64C152.372 18.64 152.5 18.64 152.628 18.64C152.756 18.6293 152.884 18.608 153.012 18.576V19.984C152.809 20.0053 152.612 20.0267 152.42 20.048C152.228 20.0693 152.031 20.08 151.828 20.08C151.348 20.08 150.959 20.0373 150.66 19.952C150.372 19.856 150.143 19.7227 149.972 19.552C149.812 19.3707 149.7 19.1467 149.636 18.88C149.583 18.6133 149.551 18.3093 149.54 17.968V13.088H148.164V11.728ZM160.004 15.136C159.983 14.848 159.919 14.5707 159.812 14.304C159.716 14.0373 159.578 13.808 159.396 13.616C159.226 13.4133 159.012 13.2533 158.756 13.136C158.511 13.008 158.234 12.944 157.924 12.944C157.604 12.944 157.311 13.0027 157.044 13.12C156.788 13.2267 156.564 13.3813 156.372 13.584C156.191 13.776 156.042 14.0053 155.924 14.272C155.818 14.5387 155.759 14.8267 155.748 15.136H160.004ZM155.748 16.336C155.748 16.656 155.791 16.9653 155.876 17.264C155.972 17.5627 156.111 17.824 156.292 18.048C156.474 18.272 156.703 18.4533 156.98 18.592C157.258 18.72 157.588 18.784 157.972 18.784C158.506 18.784 158.932 18.672 159.252 18.448C159.583 18.2133 159.828 17.8667 159.988 17.408H161.716C161.62 17.856 161.455 18.256 161.22 18.608C160.986 18.96 160.703 19.2587 160.372 19.504C160.042 19.7387 159.668 19.9147 159.252 20.032C158.847 20.16 158.42 20.224 157.972 20.224C157.322 20.224 156.746 20.1173 156.244 19.904C155.743 19.6907 155.316 19.392 154.964 19.008C154.623 18.624 154.362 18.1653 154.18 17.632C154.01 17.0987 153.924 16.512 153.924 15.872C153.924 15.2853 154.015 14.7307 154.196 14.208C154.388 13.6747 154.655 13.2107 154.996 12.816C155.348 12.4107 155.77 12.0907 156.26 11.856C156.751 11.6213 157.306 11.504 157.924 11.504C158.575 11.504 159.156 11.6427 159.668 11.92C160.191 12.1867 160.623 12.544 160.964 12.992C161.306 13.44 161.551 13.9573 161.7 14.544C161.86 15.12 161.903 15.7173 161.828 16.336H155.748ZM163.263 8.576H165.087V20H163.263V8.576ZM167.122 8.576H168.946V20H167.122V8.576ZM178.198 20H176.406V18.848H176.374C176.15 19.264 175.814 19.6 175.366 19.856C174.928 20.1013 174.48 20.224 174.022 20.224C172.934 20.224 172.144 19.9573 171.654 19.424C171.174 18.88 170.934 18.064 170.934 16.976V11.728H172.758V16.8C172.758 17.5253 172.896 18.0373 173.174 18.336C173.451 18.6347 173.84 18.784 174.342 18.784C174.726 18.784 175.046 18.7253 175.302 18.608C175.558 18.4907 175.766 18.336 175.926 18.144C176.086 17.9413 176.198 17.7013 176.262 17.424C176.336 17.1467 176.374 16.848 176.374 16.528V11.728H178.198V20ZM185.705 14.496C185.63 13.984 185.422 13.6 185.081 13.344C184.75 13.0773 184.329 12.944 183.817 12.944C183.582 12.944 183.332 12.9867 183.065 13.072C182.798 13.1467 182.553 13.296 182.329 13.52C182.105 13.7333 181.918 14.0373 181.769 14.432C181.62 14.816 181.545 15.3227 181.545 15.952C181.545 16.2933 181.582 16.6347 181.657 16.976C181.742 17.3173 181.87 17.6213 182.041 17.888C182.222 18.1547 182.452 18.3733 182.729 18.544C183.006 18.704 183.342 18.784 183.737 18.784C184.27 18.784 184.708 18.6187 185.049 18.288C185.401 17.9573 185.62 17.4933 185.705 16.896H187.529C187.358 17.9733 186.948 18.8 186.297 19.376C185.657 19.9413 184.804 20.224 183.737 20.224C183.086 20.224 182.51 20.1173 182.009 19.904C181.518 19.68 181.102 19.3813 180.761 19.008C180.42 18.624 180.158 18.1707 179.977 17.648C179.806 17.1253 179.721 16.56 179.721 15.952C179.721 15.3333 179.806 14.752 179.977 14.208C180.148 13.664 180.404 13.1947 180.745 12.8C181.086 12.3947 181.508 12.08 182.009 11.856C182.521 11.6213 183.118 11.504 183.801 11.504C184.281 11.504 184.734 11.568 185.161 11.696C185.598 11.8133 185.982 11.9947 186.313 12.24C186.654 12.4853 186.932 12.7947 187.145 13.168C187.358 13.5413 187.486 13.984 187.529 14.496H185.705ZM194.596 14.496C194.521 13.984 194.313 13.6 193.972 13.344C193.641 13.0773 193.22 12.944 192.708 12.944C192.473 12.944 192.222 12.9867 191.956 13.072C191.689 13.1467 191.444 13.296 191.22 13.52C190.996 13.7333 190.809 14.0373 190.66 14.432C190.51 14.816 190.436 15.3227 190.436 15.952C190.436 16.2933 190.473 16.6347 190.548 16.976C190.633 17.3173 190.761 17.6213 190.932 17.888C191.113 18.1547 191.342 18.3733 191.62 18.544C191.897 18.704 192.233 18.784 192.628 18.784C193.161 18.784 193.598 18.6187 193.94 18.288C194.292 17.9573 194.51 17.4933 194.596 16.896H196.42C196.249 17.9733 195.838 18.8 195.188 19.376C194.548 19.9413 193.694 20.224 192.628 20.224C191.977 20.224 191.401 20.1173 190.9 19.904C190.409 19.68 189.993 19.3813 189.652 19.008C189.31 18.624 189.049 18.1707 188.868 17.648C188.697 17.1253 188.612 16.56 188.612 15.952C188.612 15.3333 188.697 14.752 188.868 14.208C189.038 13.664 189.294 13.1947 189.636 12.8C189.977 12.3947 190.398 12.08 190.9 11.856C191.412 11.6213 192.009 11.504 192.692 11.504C193.172 11.504 193.625 11.568 194.052 11.696C194.489 11.8133 194.873 11.9947 195.204 12.24C195.545 12.4853 195.822 12.7947 196.036 13.168C196.249 13.5413 196.377 13.984 196.42 14.496H194.596ZM197.95 8.576H199.774V10.304H197.95V8.576ZM197.95 11.728H199.774V20H197.95V11.728Z" fill="#F1F1F1"/>
<path d="M67.4323 39H65.8483L63.2403 29.4H63.2083L60.5683 39H58.9843L56.0563 27.576H57.6083L59.8483 37.08H59.8803L62.4403 27.576H64.0883L66.6163 37.08H66.6483L68.9683 27.576H70.4883L67.4323 39ZM76.5385 34.072C76.5172 33.752 76.4425 33.448 76.3145 33.16C76.1972 32.872 76.0318 32.6267 75.8185 32.424C75.6158 32.2107 75.3705 32.0453 75.0825 31.928C74.8052 31.8 74.4958 31.736 74.1545 31.736C73.8025 31.736 73.4825 31.8 73.1945 31.928C72.9172 32.0453 72.6772 32.2107 72.4745 32.424C72.2718 32.6373 72.1118 32.888 71.9945 33.176C71.8772 33.4533 71.8078 33.752 71.7865 34.072H76.5385ZM77.8505 36.376C77.6692 37.304 77.2692 38.0027 76.6505 38.472C76.0318 38.9413 75.2532 39.176 74.3145 39.176C73.6532 39.176 73.0772 39.0693 72.5865 38.856C72.1065 38.6427 71.7012 38.344 71.3705 37.96C71.0398 37.576 70.7892 37.1173 70.6185 36.584C70.4585 36.0507 70.3678 35.4693 70.3465 34.84C70.3465 34.2107 70.4425 33.6347 70.6345 33.112C70.8265 32.5893 71.0932 32.136 71.4345 31.752C71.7865 31.368 72.1972 31.0693 72.6665 30.856C73.1465 30.6427 73.6692 30.536 74.2345 30.536C74.9705 30.536 75.5785 30.6907 76.0585 31C76.5492 31.2987 76.9385 31.6827 77.2265 32.152C77.5252 32.6213 77.7278 33.1333 77.8345 33.688C77.9518 34.2427 77.9998 34.7707 77.9785 35.272H71.7865C71.7758 35.6347 71.8185 35.9813 71.9145 36.312C72.0105 36.632 72.1652 36.92 72.3785 37.176C72.5918 37.4213 72.8638 37.6187 73.1945 37.768C73.5252 37.9173 73.9145 37.992 74.3625 37.992C74.9385 37.992 75.4078 37.8587 75.7705 37.592C76.1438 37.3253 76.3892 36.92 76.5065 36.376H77.8505ZM79.4363 27.576H80.7963V31.848H80.8283C81.0523 31.3893 81.4043 31.0587 81.8843 30.856C82.3643 30.6427 82.8923 30.536 83.4683 30.536C84.1083 30.536 84.6629 30.6533 85.1323 30.888C85.6123 31.1227 86.0069 31.4427 86.3163 31.848C86.6363 32.2427 86.8763 32.7013 87.0363 33.224C87.1963 33.7467 87.2763 34.3013 87.2763 34.888C87.2763 35.4747 87.1963 36.0293 87.0363 36.552C86.8869 37.0747 86.6523 37.5333 86.3323 37.928C86.0229 38.312 85.6283 38.616 85.1483 38.84C84.6789 39.064 84.1296 39.176 83.5003 39.176C83.2976 39.176 83.0683 39.1547 82.8123 39.112C82.5669 39.0693 82.3216 39 82.0763 38.904C81.8309 38.808 81.5963 38.68 81.3723 38.52C81.1589 38.3493 80.9776 38.1413 80.8283 37.896H80.7963V39H79.4363V27.576ZM85.8363 34.792C85.8363 34.408 85.7829 34.0347 85.6763 33.672C85.5803 33.2987 85.4256 32.968 85.2123 32.68C85.0096 32.392 84.7429 32.1627 84.4123 31.992C84.0923 31.8213 83.7136 31.736 83.2763 31.736C82.8176 31.736 82.4283 31.8267 82.1083 32.008C81.7883 32.1893 81.5269 32.4293 81.3243 32.728C81.1216 33.016 80.9723 33.3467 80.8763 33.72C80.7909 34.0933 80.7483 34.472 80.7483 34.856C80.7483 35.2613 80.7963 35.656 80.8923 36.04C80.9883 36.4133 81.1376 36.744 81.3403 37.032C81.5536 37.32 81.8256 37.5547 82.1563 37.736C82.4869 37.9067 82.8869 37.992 83.3563 37.992C83.8256 37.992 84.2149 37.9013 84.5243 37.72C84.8443 37.5387 85.1003 37.2987 85.2923 37C85.4843 36.7013 85.6229 36.36 85.7083 35.976C85.7936 35.592 85.8363 35.1973 85.8363 34.792ZM95.0698 37.72H97.5978C97.7684 37.72 97.9818 37.7093 98.2378 37.688C98.4938 37.656 98.7658 37.592 99.0538 37.496C99.3418 37.3893 99.6244 37.24 99.9018 37.048C100.19 36.856 100.446 36.5947 100.67 36.264C100.894 35.9333 101.075 35.5227 101.214 35.032C101.363 34.5307 101.438 33.928 101.438 33.224C101.438 32.5413 101.368 31.9333 101.23 31.4C101.102 30.856 100.883 30.3973 100.574 30.024C100.275 29.64 99.8858 29.352 99.4058 29.16C98.9258 28.9573 98.3338 28.856 97.6298 28.856H95.0698V37.72ZM93.5498 27.576H97.4698C99.2298 27.576 100.584 28.024 101.534 28.92C102.483 29.816 102.958 31.1813 102.958 33.016C102.958 33.976 102.851 34.8293 102.638 35.576C102.424 36.312 102.094 36.936 101.646 37.448C101.198 37.9493 100.627 38.3333 99.9338 38.6C99.2404 38.8667 98.4191 39 97.4698 39H93.5498V27.576ZM110.335 34.072C110.314 33.752 110.239 33.448 110.111 33.16C109.994 32.872 109.829 32.6267 109.615 32.424C109.413 32.2107 109.167 32.0453 108.879 31.928C108.602 31.8 108.293 31.736 107.951 31.736C107.599 31.736 107.279 31.8 106.991 31.928C106.714 32.0453 106.474 32.2107 106.271 32.424C106.069 32.6373 105.909 32.888 105.791 33.176C105.674 33.4533 105.605 33.752 105.583 34.072H110.335ZM111.647 36.376C111.466 37.304 111.066 38.0027 110.447 38.472C109.829 38.9413 109.05 39.176 108.111 39.176C107.45 39.176 106.874 39.0693 106.383 38.856C105.903 38.6427 105.498 38.344 105.167 37.96C104.837 37.576 104.586 37.1173 104.415 36.584C104.255 36.0507 104.165 35.4693 104.143 34.84C104.143 34.2107 104.239 33.6347 104.431 33.112C104.623 32.5893 104.89 32.136 105.231 31.752C105.583 31.368 105.994 31.0693 106.463 30.856C106.943 30.6427 107.466 30.536 108.031 30.536C108.767 30.536 109.375 30.6907 109.855 31C110.346 31.2987 110.735 31.6827 111.023 32.152C111.322 32.6213 111.525 33.1333 111.631 33.688C111.749 34.2427 111.797 34.7707 111.775 35.272H105.583C105.573 35.6347 105.615 35.9813 105.711 36.312C105.807 36.632 105.962 36.92 106.175 37.176C106.389 37.4213 106.661 37.6187 106.991 37.768C107.322 37.9173 107.711 37.992 108.159 37.992C108.735 37.992 109.205 37.8587 109.567 37.592C109.941 37.3253 110.186 36.92 110.303 36.376H111.647ZM114.017 36.392C114.028 36.6907 114.097 36.9467 114.225 37.16C114.353 37.3627 114.518 37.528 114.721 37.656C114.934 37.7733 115.169 37.8587 115.425 37.912C115.692 37.9653 115.964 37.992 116.241 37.992C116.454 37.992 116.678 37.976 116.913 37.944C117.148 37.912 117.361 37.8533 117.553 37.768C117.756 37.6827 117.921 37.56 118.049 37.4C118.177 37.2293 118.241 37.016 118.241 36.76C118.241 36.408 118.108 36.1413 117.841 35.96C117.574 35.7787 117.238 35.6347 116.833 35.528C116.438 35.4107 116.006 35.3093 115.537 35.224C115.068 35.128 114.63 35 114.225 34.84C113.83 34.6693 113.5 34.4347 113.233 34.136C112.966 33.8373 112.833 33.4213 112.833 32.888C112.833 32.472 112.924 32.1147 113.105 31.816C113.297 31.5173 113.537 31.2773 113.825 31.096C114.124 30.904 114.454 30.7653 114.817 30.68C115.19 30.584 115.558 30.536 115.921 30.536C116.39 30.536 116.822 30.5787 117.217 30.664C117.612 30.7387 117.958 30.8773 118.257 31.08C118.566 31.272 118.812 31.5387 118.993 31.88C119.174 32.2107 119.281 32.6267 119.313 33.128H117.953C117.932 32.8613 117.862 32.6427 117.745 32.472C117.628 32.2907 117.478 32.1467 117.297 32.04C117.116 31.9333 116.913 31.8587 116.689 31.816C116.476 31.7627 116.257 31.736 116.033 31.736C115.83 31.736 115.622 31.752 115.409 31.784C115.206 31.816 115.02 31.8747 114.849 31.96C114.678 32.0347 114.54 32.1413 114.433 32.28C114.326 32.408 114.273 32.5787 114.273 32.792C114.273 33.0267 114.353 33.224 114.513 33.384C114.684 33.5333 114.897 33.6613 115.153 33.768C115.409 33.864 115.697 33.9493 116.017 34.024C116.337 34.088 116.657 34.1573 116.977 34.232C117.318 34.3067 117.649 34.3973 117.969 34.504C118.3 34.6107 118.588 34.7547 118.833 34.936C119.089 35.1067 119.292 35.3253 119.441 35.592C119.601 35.8587 119.681 36.1893 119.681 36.584C119.681 37.0853 119.574 37.5013 119.361 37.832C119.158 38.1627 118.886 38.4293 118.545 38.632C118.214 38.8347 117.836 38.9733 117.409 39.048C116.993 39.1333 116.577 39.176 116.161 39.176C115.702 39.176 115.265 39.128 114.849 39.032C114.433 38.936 114.065 38.7813 113.745 38.568C113.425 38.344 113.169 38.056 112.977 37.704C112.785 37.3413 112.678 36.904 112.657 36.392H114.017ZM122.625 29.24H121.265V27.576H122.625V29.24ZM121.265 30.728H122.625V39H121.265V30.728ZM131.868 38.296C131.868 39.6507 131.559 40.664 130.94 41.336C130.321 42.008 129.351 42.344 128.028 42.344C127.644 42.344 127.249 42.3013 126.844 42.216C126.449 42.1307 126.087 41.992 125.756 41.8C125.436 41.608 125.169 41.3573 124.956 41.048C124.743 40.7387 124.625 40.36 124.604 39.912H125.964C125.975 40.1573 126.049 40.3653 126.188 40.536C126.337 40.7067 126.513 40.8453 126.716 40.952C126.929 41.0587 127.159 41.1333 127.404 41.176C127.649 41.2293 127.884 41.256 128.108 41.256C128.556 41.256 128.935 41.176 129.244 41.016C129.553 40.8667 129.809 40.6533 130.012 40.376C130.215 40.1093 130.359 39.784 130.444 39.4C130.54 39.016 130.588 38.5947 130.588 38.136V37.592H130.556C130.321 38.104 129.964 38.4827 129.484 38.728C129.015 38.9627 128.513 39.08 127.98 39.08C127.361 39.08 126.823 38.968 126.364 38.744C125.905 38.52 125.521 38.2213 125.212 37.848C124.903 37.464 124.668 37.0213 124.508 36.52C124.359 36.008 124.284 35.4693 124.284 34.904C124.284 34.4133 124.348 33.912 124.476 33.4C124.604 32.8773 124.817 32.408 125.116 31.992C125.415 31.5653 125.809 31.2187 126.3 30.952C126.791 30.6747 127.393 30.536 128.108 30.536C128.631 30.536 129.111 30.6533 129.548 30.888C129.985 31.112 130.327 31.4533 130.572 31.912H130.588V30.728H131.868V38.296ZM128.06 37.896C128.508 37.896 128.887 37.8053 129.196 37.624C129.516 37.432 129.772 37.1867 129.964 36.888C130.156 36.5787 130.295 36.232 130.38 35.848C130.476 35.464 130.524 35.08 130.524 34.696C130.524 34.3333 130.481 33.976 130.396 33.624C130.311 33.272 130.172 32.9573 129.98 32.68C129.799 32.392 129.559 32.1627 129.26 31.992C128.961 31.8213 128.599 31.736 128.172 31.736C127.735 31.736 127.361 31.8213 127.052 31.992C126.743 32.152 126.487 32.3707 126.284 32.648C126.092 32.9253 125.948 33.2453 125.852 33.608C125.767 33.9707 125.724 34.3493 125.724 34.744C125.724 35.1173 125.761 35.4907 125.836 35.864C125.911 36.2373 126.039 36.5787 126.22 36.888C126.401 37.1867 126.641 37.432 126.94 37.624C127.239 37.8053 127.612 37.896 128.06 37.896ZM133.92 30.728H135.2V32.04H135.232C135.797 31.0373 136.693 30.536 137.92 30.536C138.464 30.536 138.917 30.6107 139.28 30.76C139.642 30.9093 139.936 31.1173 140.16 31.384C140.384 31.6507 140.538 31.9707 140.624 32.344C140.72 32.7067 140.768 33.112 140.768 33.56V39H139.408V33.4C139.408 32.888 139.258 32.4827 138.96 32.184C138.661 31.8853 138.25 31.736 137.728 31.736C137.312 31.736 136.949 31.8 136.64 31.928C136.341 32.056 136.09 32.2373 135.888 32.472C135.685 32.7067 135.53 32.984 135.424 33.304C135.328 33.6133 135.28 33.9547 135.28 34.328V39H133.92V30.728ZM148.554 34.072C148.533 33.752 148.458 33.448 148.33 33.16C148.213 32.872 148.047 32.6267 147.834 32.424C147.631 32.2107 147.386 32.0453 147.098 31.928C146.821 31.8 146.511 31.736 146.17 31.736C145.818 31.736 145.498 31.8 145.21 31.928C144.933 32.0453 144.693 32.2107 144.49 32.424C144.287 32.6373 144.127 32.888 144.01 33.176C143.893 33.4533 143.823 33.752 143.802 34.072H148.554ZM149.866 36.376C149.685 37.304 149.285 38.0027 148.666 38.472C148.047 38.9413 147.269 39.176 146.33 39.176C145.669 39.176 145.093 39.0693 144.602 38.856C144.122 38.6427 143.717 38.344 143.386 37.96C143.055 37.576 142.805 37.1173 142.634 36.584C142.474 36.0507 142.383 35.4693 142.362 34.84C142.362 34.2107 142.458 33.6347 142.65 33.112C142.842 32.5893 143.109 32.136 143.45 31.752C143.802 31.368 144.213 31.0693 144.682 30.856C145.162 30.6427 145.685 30.536 146.25 30.536C146.986 30.536 147.594 30.6907 148.074 31C148.565 31.2987 148.954 31.6827 149.242 32.152C149.541 32.6213 149.743 33.1333 149.85 33.688C149.967 34.2427 150.015 34.7707 149.994 35.272H143.802C143.791 35.6347 143.834 35.9813 143.93 36.312C144.026 36.632 144.181 36.92 144.394 37.176C144.607 37.4213 144.879 37.6187 145.21 37.768C145.541 37.9173 145.93 37.992 146.378 37.992C146.954 37.992 147.423 37.8587 147.786 37.592C148.159 37.3253 148.405 36.92 148.522 36.376H149.866ZM151.356 30.728H152.636V32.472H152.668C152.999 31.8 153.404 31.304 153.884 30.984C154.364 30.664 154.972 30.5147 155.708 30.536V31.976C155.164 31.976 154.7 32.0507 154.316 32.2C153.932 32.3493 153.623 32.568 153.388 32.856C153.153 33.144 152.983 33.496 152.876 33.912C152.769 34.3173 152.716 34.7867 152.716 35.32V39H151.356V30.728ZM164.561 31.976C164.721 31.8693 164.892 31.752 165.073 31.624C165.254 31.496 165.42 31.352 165.569 31.192C165.718 31.032 165.841 30.856 165.937 30.664C166.033 30.4613 166.081 30.2373 166.081 29.992C166.081 29.6613 165.964 29.3787 165.729 29.144C165.494 28.8987 165.174 28.776 164.769 28.776C164.449 28.776 164.15 28.8773 163.873 29.08C163.596 29.272 163.457 29.576 163.457 29.992C163.457 30.1627 163.489 30.3333 163.553 30.504C163.628 30.6747 163.718 30.8453 163.825 31.016C163.932 31.176 164.049 31.336 164.177 31.496C164.305 31.656 164.433 31.816 164.561 31.976ZM167.489 37.576C167.148 38.1093 166.678 38.5093 166.081 38.776C165.494 39.0427 164.886 39.176 164.257 39.176C163.489 39.176 162.87 39.0587 162.401 38.824C161.932 38.5893 161.569 38.3067 161.313 37.976C161.057 37.6453 160.886 37.304 160.801 36.952C160.726 36.6 160.689 36.3067 160.689 36.072C160.689 35.624 160.758 35.2293 160.897 34.888C161.046 34.5467 161.238 34.2427 161.473 33.976C161.718 33.6987 162.001 33.4533 162.321 33.24C162.652 33.016 162.998 32.808 163.361 32.616C163.201 32.392 163.046 32.1787 162.897 31.976C162.748 31.7733 162.609 31.5707 162.481 31.368C162.364 31.1547 162.268 30.936 162.193 30.712C162.129 30.4773 162.097 30.216 162.097 29.928C162.097 29.6187 162.15 29.3253 162.257 29.048C162.374 28.76 162.54 28.5093 162.753 28.296C162.977 28.072 163.249 27.896 163.569 27.768C163.889 27.64 164.257 27.576 164.673 27.576C165.025 27.576 165.366 27.624 165.697 27.72C166.038 27.816 166.337 27.9653 166.593 28.168C166.849 28.36 167.052 28.6053 167.201 28.904C167.361 29.192 167.441 29.528 167.441 29.912C167.441 30.2533 167.382 30.5733 167.265 30.872C167.148 31.16 166.988 31.4267 166.785 31.672C166.582 31.9173 166.353 32.1413 166.097 32.344C165.841 32.536 165.574 32.712 165.297 32.872L167.361 35.384C167.574 34.7867 167.697 34.1947 167.729 33.608H169.025C168.993 33.9493 168.956 34.2427 168.913 34.488C168.881 34.7227 168.833 34.9413 168.769 35.144C168.716 35.3467 168.646 35.5493 168.561 35.752C168.476 35.944 168.374 36.168 168.257 36.424L170.481 39H168.705L167.489 37.576ZM164.113 33.48C163.846 33.6293 163.59 33.784 163.345 33.944C163.11 34.104 162.902 34.2853 162.721 34.488C162.54 34.6907 162.396 34.92 162.289 35.176C162.182 35.4213 162.129 35.7147 162.129 36.056C162.129 36.344 162.188 36.6107 162.305 36.856C162.433 37.0907 162.598 37.2933 162.801 37.464C163.004 37.624 163.233 37.752 163.489 37.848C163.756 37.944 164.028 37.992 164.305 37.992C164.828 37.992 165.292 37.8693 165.697 37.624C166.113 37.3787 166.46 37.048 166.737 36.632L164.113 33.48ZM177.46 37.72H179.988C180.159 37.72 180.372 37.7093 180.628 37.688C180.884 37.656 181.156 37.592 181.444 37.496C181.732 37.3893 182.015 37.24 182.292 37.048C182.58 36.856 182.836 36.5947 183.06 36.264C183.284 35.9333 183.466 35.5227 183.604 35.032C183.754 34.5307 183.828 33.928 183.828 33.224C183.828 32.5413 183.759 31.9333 183.62 31.4C183.492 30.856 183.274 30.3973 182.964 30.024C182.666 29.64 182.276 29.352 181.796 29.16C181.316 28.9573 180.724 28.856 180.02 28.856H177.46V37.72ZM175.94 27.576H179.86C181.62 27.576 182.975 28.024 183.924 28.92C184.874 29.816 185.348 31.1813 185.348 33.016C185.348 33.976 185.242 34.8293 185.028 35.576C184.815 36.312 184.484 36.936 184.036 37.448C183.588 37.9493 183.018 38.3333 182.324 38.6C181.631 38.8667 180.81 39 179.86 39H175.94V27.576ZM192.726 34.072C192.705 33.752 192.63 33.448 192.502 33.16C192.385 32.872 192.219 32.6267 192.006 32.424C191.803 32.2107 191.558 32.0453 191.27 31.928C190.993 31.8 190.683 31.736 190.342 31.736C189.99 31.736 189.67 31.8 189.382 31.928C189.105 32.0453 188.865 32.2107 188.662 32.424C188.459 32.6373 188.299 32.888 188.182 33.176C188.065 33.4533 187.995 33.752 187.974 34.072H192.726ZM194.038 36.376C193.857 37.304 193.457 38.0027 192.838 38.472C192.219 38.9413 191.441 39.176 190.502 39.176C189.841 39.176 189.265 39.0693 188.774 38.856C188.294 38.6427 187.889 38.344 187.558 37.96C187.227 37.576 186.977 37.1173 186.806 36.584C186.646 36.0507 186.555 35.4693 186.534 34.84C186.534 34.2107 186.63 33.6347 186.822 33.112C187.014 32.5893 187.281 32.136 187.622 31.752C187.974 31.368 188.385 31.0693 188.854 30.856C189.334 30.6427 189.857 30.536 190.422 30.536C191.158 30.536 191.766 30.6907 192.246 31C192.737 31.2987 193.126 31.6827 193.414 32.152C193.713 32.6213 193.915 33.1333 194.022 33.688C194.139 34.2427 194.187 34.7707 194.166 35.272H187.974C187.963 35.6347 188.006 35.9813 188.102 36.312C188.198 36.632 188.353 36.92 188.566 37.176C188.779 37.4213 189.051 37.6187 189.382 37.768C189.713 37.9173 190.102 37.992 190.55 37.992C191.126 37.992 191.595 37.8587 191.958 37.592C192.331 37.3253 192.577 36.92 192.694 36.376H194.038ZM199.304 39H197.848L194.776 30.728H196.296L198.616 37.624H198.648L200.904 30.728H202.328L199.304 39ZM209.32 34.072C209.298 33.752 209.224 33.448 209.096 33.16C208.978 32.872 208.813 32.6267 208.6 32.424C208.397 32.2107 208.152 32.0453 207.864 31.928C207.586 31.8 207.277 31.736 206.936 31.736C206.584 31.736 206.264 31.8 205.976 31.928C205.698 32.0453 205.458 32.2107 205.256 32.424C205.053 32.6373 204.893 32.888 204.776 33.176C204.658 33.4533 204.589 33.752 204.568 34.072H209.32ZM210.632 36.376C210.45 37.304 210.05 38.0027 209.432 38.472C208.813 38.9413 208.034 39.176 207.096 39.176C206.434 39.176 205.858 39.0693 205.368 38.856C204.888 38.6427 204.482 38.344 204.152 37.96C203.821 37.576 203.57 37.1173 203.4 36.584C203.24 36.0507 203.149 35.4693 203.128 34.84C203.128 34.2107 203.224 33.6347 203.416 33.112C203.608 32.5893 203.874 32.136 204.216 31.752C204.568 31.368 204.978 31.0693 205.448 30.856C205.928 30.6427 206.45 30.536 207.016 30.536C207.752 30.536 208.36 30.6907 208.84 31C209.33 31.2987 209.72 31.6827 210.008 32.152C210.306 32.6213 210.509 33.1333 210.616 33.688C210.733 34.2427 210.781 34.7707 210.76 35.272H204.568C204.557 35.6347 204.6 35.9813 204.696 36.312C204.792 36.632 204.946 36.92 205.16 37.176C205.373 37.4213 205.645 37.6187 205.976 37.768C206.306 37.9173 206.696 37.992 207.144 37.992C207.72 37.992 208.189 37.8587 208.552 37.592C208.925 37.3253 209.17 36.92 209.288 36.376H210.632ZM212.25 27.576H213.61V39H212.25V27.576ZM216.708 34.872C216.708 35.3733 216.772 35.8213 216.9 36.216C217.039 36.6 217.226 36.9253 217.46 37.192C217.695 37.448 217.967 37.6453 218.276 37.784C218.596 37.9227 218.932 37.992 219.284 37.992C219.636 37.992 219.967 37.9227 220.276 37.784C220.596 37.6453 220.874 37.448 221.108 37.192C221.343 36.9253 221.524 36.6 221.652 36.216C221.791 35.8213 221.86 35.3733 221.86 34.872C221.86 34.3707 221.791 33.928 221.652 33.544C221.524 33.1493 221.343 32.8187 221.108 32.552C220.874 32.2853 220.596 32.0827 220.276 31.944C219.967 31.8053 219.636 31.736 219.284 31.736C218.932 31.736 218.596 31.8053 218.276 31.944C217.967 32.0827 217.695 32.2853 217.46 32.552C217.226 32.8187 217.039 33.1493 216.9 33.544C216.772 33.928 216.708 34.3707 216.708 34.872ZM215.268 34.872C215.268 34.264 215.354 33.6987 215.524 33.176C215.695 32.6427 215.951 32.184 216.292 31.8C216.634 31.4053 217.055 31.096 217.556 30.872C218.058 30.648 218.634 30.536 219.284 30.536C219.946 30.536 220.522 30.648 221.012 30.872C221.514 31.096 221.935 31.4053 222.276 31.8C222.618 32.184 222.874 32.6427 223.044 33.176C223.215 33.6987 223.3 34.264 223.3 34.872C223.3 35.48 223.215 36.0453 223.044 36.568C222.874 37.0907 222.618 37.5493 222.276 37.944C221.935 38.328 221.514 38.632 221.012 38.856C220.522 39.0693 219.946 39.176 219.284 39.176C218.634 39.176 218.058 39.0693 217.556 38.856C217.055 38.632 216.634 38.328 216.292 37.944C215.951 37.5493 215.695 37.0907 215.524 36.568C215.354 36.0453 215.268 35.48 215.268 34.872ZM224.952 30.728H226.312V31.848H226.344C226.568 31.3893 226.92 31.0587 227.4 30.856C227.88 30.6427 228.408 30.536 228.984 30.536C229.624 30.536 230.179 30.6533 230.648 30.888C231.128 31.1227 231.523 31.4427 231.832 31.848C232.152 32.2427 232.392 32.7013 232.552 33.224C232.712 33.7467 232.792 34.3013 232.792 34.888C232.792 35.4747 232.712 36.0293 232.552 36.552C232.403 37.0747 232.168 37.5333 231.848 37.928C231.539 38.312 231.144 38.616 230.664 38.84C230.195 39.064 229.645 39.176 229.016 39.176C228.813 39.176 228.584 39.1547 228.328 39.112C228.083 39.0693 227.837 39 227.592 38.904C227.347 38.808 227.112 38.68 226.888 38.52C226.675 38.3493 226.493 38.1413 226.344 37.896H226.312V42.152H224.952V30.728ZM231.352 34.792C231.352 34.408 231.299 34.0347 231.192 33.672C231.096 33.2987 230.941 32.968 230.728 32.68C230.525 32.392 230.259 32.1627 229.928 31.992C229.608 31.8213 229.229 31.736 228.792 31.736C228.333 31.736 227.944 31.8267 227.624 32.008C227.304 32.1893 227.043 32.4293 226.84 32.728C226.637 33.016 226.488 33.3467 226.392 33.72C226.307 34.0933 226.264 34.472 226.264 34.856C226.264 35.2613 226.312 35.656 226.408 36.04C226.504 36.4133 226.653 36.744 226.856 37.032C227.069 37.32 227.341 37.5547 227.672 37.736C228.003 37.9067 228.403 37.992 228.872 37.992C229.341 37.992 229.731 37.9013 230.04 37.72C230.36 37.5387 230.616 37.2987 230.808 37C231 36.7013 231.139 36.36 231.224 35.976C231.309 35.592 231.352 35.1973 231.352 34.792ZM240.132 34.072C240.111 33.752 240.036 33.448 239.908 33.16C239.791 32.872 239.626 32.6267 239.412 32.424C239.21 32.2107 238.964 32.0453 238.676 31.928C238.399 31.8 238.09 31.736 237.748 31.736C237.396 31.736 237.076 31.8 236.788 31.928C236.511 32.0453 236.271 32.2107 236.068 32.424C235.866 32.6373 235.706 32.888 235.588 33.176C235.471 33.4533 235.402 33.752 235.38 34.072H240.132ZM241.444 36.376C241.263 37.304 240.863 38.0027 240.244 38.472C239.626 38.9413 238.847 39.176 237.908 39.176C237.247 39.176 236.671 39.0693 236.18 38.856C235.7 38.6427 235.295 38.344 234.964 37.96C234.634 37.576 234.383 37.1173 234.212 36.584C234.052 36.0507 233.962 35.4693 233.94 34.84C233.94 34.2107 234.036 33.6347 234.228 33.112C234.42 32.5893 234.687 32.136 235.028 31.752C235.38 31.368 235.791 31.0693 236.26 30.856C236.74 30.6427 237.263 30.536 237.828 30.536C238.564 30.536 239.172 30.6907 239.652 31C240.143 31.2987 240.532 31.6827 240.82 32.152C241.119 32.6213 241.322 33.1333 241.428 33.688C241.546 34.2427 241.594 34.7707 241.572 35.272H235.38C235.37 35.6347 235.412 35.9813 235.508 36.312C235.604 36.632 235.759 36.92 235.972 37.176C236.186 37.4213 236.458 37.6187 236.788 37.768C237.119 37.9173 237.508 37.992 237.956 37.992C238.532 37.992 239.002 37.8587 239.364 37.592C239.738 37.3253 239.983 36.92 240.1 36.376H241.444ZM242.934 30.728H244.214V32.472H244.246C244.577 31.8 244.982 31.304 245.462 30.984C245.942 30.664 246.55 30.5147 247.286 30.536V31.976C246.742 31.976 246.278 32.0507 245.894 32.2C245.51 32.3493 245.201 32.568 244.966 32.856C244.731 33.144 244.561 33.496 244.454 33.912C244.347 34.3173 244.294 34.7867 244.294 35.32V39H242.934V30.728Z" fill="#8A8A8A"/>
</svg>
