<svg width="20" height="20" viewBox="0 0 20 20" fill="none" xmlns="http://www.w3.org/2000/svg">
<path d="M7.3 10L9.1 11.8L13.15 7.75M15.3111 3.69866C15.4964 4.14688 15.8521 4.50316 16.3 4.68917L17.8707 5.33978C18.319 5.52545 18.6751 5.88159 18.8608 6.32985C19.0464 6.77811 19.0464 7.28177 18.8608 7.73003L18.2106 9.29962C18.0249 9.74808 18.0246 10.2522 18.2112 10.7005L18.8602 12.2696C18.9523 12.4916 18.9996 12.7296 18.9997 12.97C18.9997 13.2103 18.9524 13.4483 18.8604 13.6703C18.7685 13.8924 18.6336 14.0941 18.4637 14.264C18.2937 14.434 18.0919 14.5687 17.8699 14.6606L16.3003 15.3108C15.8521 15.4961 15.4958 15.8519 15.3098 16.2998L14.6593 17.8705C14.4736 18.3188 14.1175 18.6749 13.6692 18.8606C13.221 19.0463 12.7173 19.0463 12.2691 18.8606L10.6996 18.2104C10.2513 18.0252 9.74784 18.0256 9.29987 18.2115L7.7292 18.8612C7.28121 19.0464 6.77801 19.0463 6.33013 18.8607C5.88225 18.6752 5.52633 18.3195 5.34053 17.8717L4.68975 16.3005C4.50442 15.8523 4.14869 15.496 3.70076 15.31L2.1301 14.6594C1.68205 14.4738 1.32603 14.1179 1.14029 13.6699C0.954558 13.2219 0.954305 12.7185 1.13959 12.2703L1.78972 10.7007C1.97493 10.2524 1.97455 9.74895 1.78867 9.30095L1.13948 7.72911C1.04743 7.50709 1.00004 7.26911 1 7.02877C0.999962 6.78843 1.04728 6.55044 1.13925 6.32839C1.23122 6.10634 1.36604 5.9046 1.53601 5.73468C1.70598 5.56476 1.90776 5.43 2.12983 5.33809L3.69937 4.68795C4.14718 4.50277 4.50324 4.14748 4.68937 3.70005L5.33996 2.12933C5.52563 1.68107 5.88176 1.32493 6.33 1.13926C6.77824 0.953581 7.28188 0.953581 7.73012 1.13926L9.29966 1.7894C9.74792 1.97462 10.2514 1.97424 10.6993 1.78835L12.2707 1.14026C12.7189 0.954694 13.2224 0.954732 13.6705 1.14037C14.1187 1.32601 14.4748 1.68205 14.6605 2.13019L15.3113 3.70138L15.3111 3.69866Z" stroke="#F1F1F1" stroke-linecap="round" stroke-linejoin="round"/>
</svg>
