<svg width="20" height="19" viewBox="0 0 20 19" fill="none" xmlns="http://www.w3.org/2000/svg">
<path d="M10 18.6371V0.637086M5.5 18.6371V14.1371M5.5 5.13709V0.637086M14.5 18.6371V14.1371M14.5 5.13709V0.637086M1 5.13709H19M1 14.1371H19M19 14.3171V4.95709C19 3.44494 19 2.68887 18.7057 2.11131C18.4469 1.60327 18.0338 1.19023 17.5258 0.931367C16.9482 0.637085 16.1921 0.637085 14.68 0.637085L5.32 0.637085C3.80786 0.637085 3.05179 0.637085 2.47423 0.931368C1.96619 1.19023 1.55314 1.60327 1.29428 2.11131C1 2.68887 1 3.44494 1 4.95709L1 14.3171C1 15.8292 1 16.5853 1.29428 17.1629C1.55314 17.6709 1.96619 18.0839 2.47423 18.3428C3.05179 18.6371 3.80786 18.6371 5.32 18.6371H14.68C16.1921 18.6371 16.9482 18.6371 17.5258 18.3428C18.0338 18.0839 18.4469 17.6709 18.7057 17.1629C19 16.5853 19 15.8292 19 14.3171Z" stroke="#F1F1F1" stroke-width="0.5" stroke-linecap="round" stroke-linejoin="round"/>
</svg>
