<svg width="20" height="19" viewBox="0 0 20 19" fill="none" xmlns="http://www.w3.org/2000/svg">
<path d="M18.28 18.6371C18.532 18.6371 18.658 18.6371 18.7543 18.588C18.839 18.5449 18.9078 18.4761 18.951 18.3914C19 18.2951 19 18.1691 19 17.9171V8.55709C19 8.30506 19 8.17905 18.951 8.08279C18.9078 7.99812 18.839 7.92928 18.7543 7.88613C18.658 7.83709 18.532 7.83709 18.28 7.83709L16.12 7.83709C15.868 7.83709 15.742 7.83709 15.6457 7.88613C15.561 7.92928 15.4922 7.99812 15.449 8.08279C15.4 8.17905 15.4 8.30506 15.4 8.55709V10.7171C15.4 10.9691 15.4 11.0951 15.351 11.1914C15.3078 11.2761 15.239 11.3449 15.1543 11.388C15.058 11.4371 14.932 11.4371 14.68 11.4371H12.52C12.268 11.4371 12.142 11.4371 12.0457 11.4861C11.961 11.5293 11.8922 11.5981 11.849 11.6828C11.8 11.779 11.8 11.9051 11.8 12.1571V14.3171C11.8 14.5691 11.8 14.6951 11.751 14.7914C11.7078 14.8761 11.639 14.9449 11.5543 14.988C11.458 15.0371 11.332 15.0371 11.08 15.0371H8.92C8.66798 15.0371 8.54196 15.0371 8.4457 15.0861C8.36103 15.1293 8.29219 15.1981 8.24905 15.2828C8.2 15.379 8.2 15.5051 8.2 15.7571V17.9171C8.2 18.1691 8.2 18.2951 8.24905 18.3914C8.29219 18.4761 8.36103 18.5449 8.4457 18.588C8.54196 18.6371 8.66798 18.6371 8.92 18.6371L18.28 18.6371Z" stroke="#F1F1F1" stroke-width="0.5" stroke-linecap="round" stroke-linejoin="round"/>
<path d="M8.2 4.95709C8.2 4.70506 8.2 4.57905 8.24905 4.48279C8.29219 4.39812 8.36103 4.32927 8.4457 4.28613C8.54196 4.23708 8.66798 4.23708 8.92 4.23708H11.08C11.332 4.23708 11.458 4.23708 11.5543 4.28613C11.639 4.32927 11.7078 4.39812 11.751 4.48279C11.8 4.57905 11.8 4.70506 11.8 4.95709V7.11708C11.8 7.36911 11.8 7.49512 11.751 7.59138C11.7078 7.67605 11.639 7.74489 11.5543 7.78804C11.458 7.83708 11.332 7.83708 11.08 7.83708H8.92C8.66798 7.83708 8.54196 7.83708 8.4457 7.78804C8.36103 7.74489 8.29219 7.67605 8.24905 7.59138C8.2 7.49512 8.2 7.36911 8.2 7.11708V4.95709Z" stroke="#F1F1F1" stroke-width="0.5" stroke-linecap="round" stroke-linejoin="round"/>
<path d="M1.9 10.3571C1.9 10.1051 1.9 9.97905 1.94905 9.88279C1.99219 9.79812 2.06103 9.72927 2.1457 9.68613C2.24196 9.63708 2.36798 9.63708 2.62 9.63708H4.78C5.03202 9.63708 5.15804 9.63708 5.2543 9.68613C5.33897 9.72927 5.40781 9.79812 5.45095 9.88279C5.5 9.97905 5.5 10.1051 5.5 10.3571V12.5171C5.5 12.7691 5.5 12.8951 5.45095 12.9914C5.40781 13.0761 5.33897 13.1449 5.2543 13.188C5.15804 13.2371 5.03202 13.2371 4.78 13.2371H2.62C2.36798 13.2371 2.24196 13.2371 2.1457 13.188C2.06103 13.1449 1.99219 13.0761 1.94905 12.9914C1.9 12.8951 1.9 12.7691 1.9 12.5171V10.3571Z" stroke="#F1F1F1" stroke-width="0.5" stroke-linecap="round" stroke-linejoin="round"/>
<path d="M1 1.35708C1 1.10506 1 0.97905 1.04905 0.882789C1.09219 0.798116 1.16103 0.729275 1.2457 0.686132C1.34196 0.637085 1.46798 0.637085 1.72 0.637085H3.88C4.13202 0.637085 4.25804 0.637085 4.3543 0.686132C4.43897 0.729275 4.50781 0.798116 4.55095 0.882789C4.6 0.97905 4.6 1.10506 4.6 1.35708V3.51708C4.6 3.76911 4.6 3.89512 4.55095 3.99138C4.50781 4.07605 4.43897 4.14489 4.3543 4.18804C4.25804 4.23708 4.13202 4.23708 3.88 4.23708H1.72C1.46798 4.23708 1.34196 4.23708 1.2457 4.18804C1.16103 4.14489 1.09219 4.07605 1.04905 3.99138C1 3.89512 1 3.76911 1 3.51708V1.35708Z" stroke="#F1F1F1" stroke-width="0.5" stroke-linecap="round" stroke-linejoin="round"/>
</svg>
