<svg width="14" height="19" viewBox="0 0 14 19" fill="none" xmlns="http://www.w3.org/2000/svg">
<path d="M7 0.637085H4C2.34315 0.637085 1 1.98023 1 3.63708C1 5.29394 2.34315 6.63709 4 6.63709M7 0.637085V6.63709M7 0.637085H10C11.6569 0.637085 13 1.98023 13 3.63708C13 5.29394 11.6569 6.63709 10 6.63709M7 6.63709H4M7 6.63709V12.6371M7 6.63709H10M4 6.63709C2.34315 6.63709 1 7.98023 1 9.63709C1 11.2939 2.34315 12.6371 4 12.6371M7 12.6371H4M7 12.6371V15.6371C7 17.2939 5.65685 18.6371 4 18.6371C2.34315 18.6371 1 17.2939 1 15.6371C1 13.9802 2.34315 12.6371 4 12.6371M10 6.63709C11.6569 6.63709 13 7.98023 13 9.63709C13 11.2939 11.6569 12.6371 10 12.6371C8.34315 12.6371 7 11.2939 7 9.63709C7 7.98023 8.34315 6.63709 10 6.63709Z" stroke="#F1F1F1" stroke-width="0.5" stroke-linecap="round" stroke-linejoin="round"/>
</svg>
