<svg width="20" height="14" viewBox="0 0 20 14" fill="none" xmlns="http://www.w3.org/2000/svg">
<path d="M8.2 2.13716L2.8 2.13716M2.8 2.13716C2.8 2.63421 2.39706 3.03716 1.9 3.03716C1.40294 3.03716 1 2.63421 1 2.13716C1 1.6401 1.40294 1.23716 1.9 1.23716C2.39706 1.23716 2.8 1.6401 2.8 2.13716ZM17.2 2.13716H11.8M17.2 2.13716C17.2 2.63421 17.6029 3.03716 18.1 3.03716C18.5971 3.03716 19 2.63421 19 2.13716C19 1.6401 18.5971 1.23716 18.1 1.23716C17.6029 1.23716 17.2 1.6401 17.2 2.13716ZM11.8 2.36392C14.9054 3.16319 17.2 5.98217 17.2 9.33709M2.8 9.33709C2.8 5.98217 5.09459 3.16319 8.2 2.36392M2.44 12.9372H3.16C3.66405 12.9372 3.91607 12.9372 4.10859 12.8391C4.27794 12.7528 4.41562 12.6151 4.50191 12.4458C4.6 12.2532 4.6 12.0012 4.6 11.4972V10.7772C4.6 10.2731 4.6 10.0211 4.50191 9.82857C4.41562 9.65922 4.27794 9.52154 4.10859 9.43525C3.91607 9.33716 3.66405 9.33716 3.16 9.33716H2.44C1.93595 9.33716 1.68393 9.33716 1.49141 9.43525C1.32206 9.52154 1.18438 9.65922 1.09809 9.82857C1 10.0211 1 10.2731 1 10.7772V11.4972C1 12.0012 1 12.2532 1.09809 12.4458C1.18438 12.6151 1.32206 12.7528 1.49141 12.8391C1.68393 12.9372 1.93595 12.9372 2.44 12.9372ZM9.64 3.93716H10.36C10.864 3.93716 11.1161 3.93716 11.3086 3.83906C11.4779 3.75278 11.6156 3.6151 11.7019 3.44575C11.8 3.25323 11.8 3.00121 11.8 2.49716V1.77716C11.8 1.27311 11.8 1.02109 11.7019 0.828567C11.6156 0.659221 11.4779 0.521538 11.3086 0.435252C11.1161 0.337158 10.864 0.337158 10.36 0.337158H9.64C9.13595 0.337158 8.88393 0.337158 8.69141 0.435252C8.52206 0.521538 8.38438 0.659221 8.29809 0.828567C8.2 1.02109 8.2 1.27311 8.2 1.77716V2.49716C8.2 3.00121 8.2 3.25323 8.29809 3.44575C8.38438 3.6151 8.52206 3.75278 8.69141 3.83906C8.88393 3.93716 9.13595 3.93716 9.64 3.93716ZM16.84 12.9372H17.56C18.064 12.9372 18.3161 12.9372 18.5086 12.8391C18.6779 12.7528 18.8156 12.6151 18.9019 12.4458C19 12.2532 19 12.0012 19 11.4972V10.7772C19 10.2731 19 10.0211 18.9019 9.82857C18.8156 9.65922 18.6779 9.52154 18.5086 9.43525C18.3161 9.33716 18.064 9.33716 17.56 9.33716H16.84C16.336 9.33716 16.0839 9.33716 15.8914 9.43525C15.7221 9.52154 15.5844 9.65922 15.4981 9.82857C15.4 10.0211 15.4 10.2731 15.4 10.7772V11.4972C15.4 12.0012 15.4 12.2532 15.4981 12.4458C15.5844 12.6151 15.7221 12.7528 15.8914 12.8391C16.0839 12.9372 16.336 12.9372 16.84 12.9372Z" stroke="#F1F1F1" stroke-width="0.5" stroke-linecap="round" stroke-linejoin="round"/>
</svg>
