<svg width="20" height="17" viewBox="0 0 20 17" fill="none" xmlns="http://www.w3.org/2000/svg">
<path d="M16.2132 16.6482H17.1126C17.9771 16.6482 18.4093 16.6482 18.6475 16.468C18.8551 16.311 18.9836 16.071 18.9991 15.8112C19.0169 15.5129 18.7771 15.1533 18.2976 14.434L15.618 10.4146C15.2218 9.82024 15.0236 9.52308 14.7739 9.41953C14.5556 9.32899 14.3103 9.32899 14.092 9.41953C13.8423 9.52308 13.6442 9.82024 13.2479 10.4146L12.5855 11.4082M16.2132 16.6482L9.373 6.76793C8.97962 6.1997 8.78292 5.91559 8.53723 5.81572C8.3223 5.72835 8.08175 5.72835 7.86682 5.81572C7.62113 5.91559 7.42444 6.1997 7.03105 6.76793L1.73806 14.4134C1.23689 15.1373 0.98631 15.4992 1.00058 15.8003C1.013 16.0624 1.14049 16.3057 1.34896 16.4652C1.58834 16.6482 2.02858 16.6482 2.90904 16.6482H16.2132ZM17.9935 3.29625C17.9935 4.77107 16.7979 5.96665 15.3231 5.96665C13.8483 5.96665 12.6527 4.77107 12.6527 3.29625C12.6527 1.82143 13.8483 0.625854 15.3231 0.625854C16.7979 0.625854 17.9935 1.82143 17.9935 3.29625Z" stroke="#F1F1F1" stroke-width="0.5" stroke-linecap="round" stroke-linejoin="round"/>
</svg>
