<svg width="20" height="14" viewBox="0 0 20 14" fill="none" xmlns="http://www.w3.org/2000/svg">
<path d="M19 3.87539C19 3.33016 19 3.05754 18.8922 2.9313C18.7986 2.82177 18.6583 2.76364 18.5147 2.77494C18.3492 2.78797 18.1564 2.98074 17.7709 3.36628L14.5 6.63716L17.7709 9.90804C18.1564 10.2936 18.3492 10.4864 18.5147 10.4994C18.6583 10.5107 18.7986 10.4525 18.8922 10.343C19 10.2168 19 9.94416 19 9.39892V3.87539Z" stroke="#F1F1F1" stroke-width="0.5" stroke-linecap="round" stroke-linejoin="round"/>
<path d="M1 4.65716C1 3.14502 1 2.38895 1.29428 1.81138C1.55314 1.30335 1.96619 0.890299 2.47423 0.631441C3.05179 0.337158 3.80786 0.337158 5.32 0.337158H10.18C11.6921 0.337158 12.4482 0.337158 13.0258 0.631441C13.5338 0.890299 13.9469 1.30335 14.2057 1.81138C14.5 2.38895 14.5 3.14502 14.5 4.65716V8.61716C14.5 10.1293 14.5 10.8854 14.2057 11.4629C13.9469 11.971 13.5338 12.384 13.0258 12.6429C12.4482 12.9372 11.6921 12.9372 10.18 12.9372H5.32C3.80786 12.9372 3.05179 12.9372 2.47423 12.6429C1.96619 12.384 1.55314 11.971 1.29428 11.4629C1 10.8854 1 10.1293 1 8.61716V4.65716Z" stroke="#F1F1F1" stroke-width="0.5" stroke-linecap="round" stroke-linejoin="round"/>
</svg>
