<svg width="20" height="20" viewBox="0 0 20 20" fill="none" xmlns="http://www.w3.org/2000/svg">
<path d="M9.9997 11.1988C10.8674 11.1988 11.5708 10.4993 11.5708 9.63642C11.5708 8.77354 10.8674 8.07404 9.9997 8.07404C9.132 8.07404 8.42859 8.77354 8.42859 9.63642C8.42859 10.4993 9.132 11.1988 9.9997 11.1988Z" fill="#F1F1F1"/>
<path fill-rule="evenodd" clip-rule="evenodd" d="M3.83662 6.84098C5.44187 6.23147 7.6211 5.86633 10 5.86633C12.3789 5.86633 14.5581 6.23147 16.1634 6.84098C16.964 7.14497 17.6512 7.5208 18.1484 7.96709C18.6453 8.41318 19 8.9764 19 9.63695C19 10.2975 18.6453 10.8607 18.1484 11.3068C17.6512 11.7531 16.964 12.1289 16.1634 12.4329C14.5581 13.0424 12.3789 13.4076 10 13.4076C7.6211 13.4076 5.44187 13.0424 3.83662 12.4329C3.036 12.1289 2.34876 11.7531 1.8516 11.3068C1.35469 10.8607 1 10.2975 1 9.63695C1 8.9764 1.35469 8.41318 1.8516 7.96709C2.34876 7.5208 3.036 7.14497 3.83662 6.84098Z" stroke="#F1F1F1" stroke-width="0.5"/>
<path fill-rule="evenodd" clip-rule="evenodd" d="M9.34917 2.93051C10.6833 4.00876 12.0914 5.70365 13.2812 7.75298C14.4709 9.80231 15.2429 11.8624 15.5149 13.5505C15.6505 14.3925 15.6669 15.1727 15.5267 15.8242C15.3866 16.4758 15.0736 17.0612 14.5007 17.3901C13.9279 17.719 13.2616 17.6958 12.6241 17.4908C11.9866 17.2857 11.3153 16.8815 10.6499 16.3437C9.31582 15.2654 7.90771 13.5705 6.71792 11.5212C5.52813 9.47189 4.75617 7.41176 4.4842 5.72369C4.34855 4.8817 4.33223 4.10149 4.47237 3.44994C4.61251 2.79836 4.92552 2.213 5.49835 1.88412C6.07118 1.55523 6.73745 1.57835 7.37496 1.78344C8.01244 1.98852 8.68374 2.39269 9.34917 2.93051Z" stroke="#F1F1F1" stroke-width="0.5"/>
<path fill-rule="evenodd" clip-rule="evenodd" d="M15.5159 5.72389C15.244 7.41196 14.472 9.47208 13.2822 11.5214C12.0924 13.5707 10.6843 15.2656 9.35021 16.3439C8.68478 16.8817 8.01348 17.2859 7.376 17.4909C6.73849 17.696 6.07221 17.7192 5.49939 17.3903C4.92656 17.0614 4.61355 16.476 4.4734 15.8244C4.33326 15.1729 4.34959 14.3927 4.48524 13.5507C4.7572 11.8626 5.52917 9.8025 6.71896 7.75318C7.90875 5.70385 9.31686 4.00896 10.6509 2.93071C11.3164 2.39289 11.9877 1.98872 12.6252 1.78364C13.2627 1.57854 13.9289 1.55543 14.5018 1.88432C15.0746 2.2132 15.3876 2.79856 15.5278 3.45014C15.6679 4.10169 15.6516 4.8819 15.5159 5.72389Z" stroke="#F1F1F1" stroke-width="0.5"/>
</svg>
