<svg width="20" height="19" viewBox="0 0 20 19" fill="none" xmlns="http://www.w3.org/2000/svg">
<path d="M12.5 12.6371L15.5 9.63708L12.5 6.63708M7.5 6.63708L4.5 9.63708L7.5 12.6371M5.8 18.6371H14.2C15.8802 18.6371 16.7202 18.6371 17.362 18.3101C17.9265 18.0225 18.3854 17.5635 18.673 16.9991C19 16.3573 19 15.5172 19 13.8371V5.43709C19 3.75693 19 2.91685 18.673 2.27511C18.3854 1.71063 17.9265 1.25169 17.362 0.964065C16.7202 0.637085 15.8802 0.637085 14.2 0.637085H5.8C4.11984 0.637085 3.27976 0.637085 2.63803 0.964065C2.07354 1.25169 1.6146 1.71063 1.32698 2.27511C1 2.91685 1 3.75693 1 5.43708V13.8371C1 15.5172 1 16.3573 1.32698 16.9991C1.6146 17.5635 2.07354 18.0225 2.63803 18.3101C3.27976 18.6371 4.11984 18.6371 5.8 18.6371Z" stroke="#F1F1F1" stroke-width="0.5" stroke-linecap="round" stroke-linejoin="round"/>
</svg>
