<svg width="197" height="13" viewBox="0 0 197 13" fill="none" xmlns="http://www.w3.org/2000/svg">
<path d="M9.584 7.44C9.41333 8.21867 9.056 8.832 8.512 9.28C7.97867 9.728 7.344 9.952 6.608 9.952C6.064 9.952 5.57333 9.86133 5.136 9.68C4.69867 9.488 4.32533 9.232 4.016 8.912C3.70667 8.58133 3.46667 8.192 3.296 7.744C3.136 7.296 3.056 6.81067 3.056 6.288C3.056 5.75467 3.136 5.264 3.296 4.816C3.456 4.368 3.68533 3.984 3.984 3.664C4.28267 3.344 4.65067 3.09333 5.088 2.912C5.52533 2.73067 6.016 2.64 6.56 2.64C7.328 2.64 7.98933 2.848 8.544 3.264C9.09867 3.66933 9.44 4.272 9.568 5.072H8.56C8.47467 4.624 8.256 4.256 7.904 3.968C7.56267 3.66933 7.12 3.52 6.576 3.52C6.18133 3.52 5.82933 3.58933 5.52 3.728C5.22133 3.86667 4.97067 4.064 4.768 4.32C4.56533 4.56533 4.41067 4.85333 4.304 5.184C4.19733 5.51467 4.144 5.872 4.144 6.256C4.144 6.62933 4.19733 6.98667 4.304 7.328C4.42133 7.66933 4.58667 7.968 4.8 8.224C5.01333 8.48 5.26933 8.688 5.568 8.848C5.87733 8.99733 6.224 9.072 6.608 9.072C7.152 9.072 7.59467 8.92267 7.936 8.624C8.27733 8.31467 8.48533 7.92 8.56 7.44H9.584ZM1.472 6.256C1.472 6.992 1.59467 7.67467 1.84 8.304C2.096 8.92267 2.44267 9.46133 2.88 9.92C3.328 10.3787 3.85067 10.7413 4.448 11.008C5.056 11.264 5.712 11.392 6.416 11.392C7.10933 11.392 7.75467 11.264 8.352 11.008C8.94933 10.7413 9.46667 10.3787 9.904 9.92C10.352 9.46133 10.6987 8.92267 10.944 8.304C11.2 7.67467 11.328 6.992 11.328 6.256C11.328 5.54133 11.2 4.87467 10.944 4.256C10.6987 3.63733 10.352 3.104 9.904 2.656C9.46667 2.19733 8.94933 1.84 8.352 1.584C7.75467 1.31733 7.10933 1.184 6.416 1.184C5.712 1.184 5.056 1.31733 4.448 1.584C3.85067 1.84 3.328 2.19733 2.88 2.656C2.44267 3.104 2.096 3.63733 1.84 4.256C1.59467 4.87467 1.472 5.54133 1.472 6.256ZM0.384 6.256C0.384 5.41333 0.544 4.62933 0.864 3.904C1.184 3.17867 1.616 2.54933 2.16 2.016C2.71467 1.48267 3.35467 1.06667 4.08 0.768C4.816 0.458666 5.59467 0.304 6.416 0.304C7.23733 0.304 8.01067 0.458666 8.736 0.768C9.46133 1.06667 10.096 1.48267 10.64 2.016C11.184 2.54933 11.616 3.17867 11.936 3.904C12.256 4.62933 12.416 5.41333 12.416 6.256C12.416 7.12 12.256 7.92 11.936 8.656C11.616 9.38133 11.184 10.016 10.64 10.56C10.096 11.0933 9.46133 11.5093 8.736 11.808C8.01067 12.1067 7.23733 12.256 6.416 12.256C5.59467 12.256 4.816 12.1067 4.08 11.808C3.35467 11.5093 2.71467 11.0933 2.16 10.56C1.616 10.016 1.184 9.38133 0.864 8.656C0.544 7.92 0.384 7.12 0.384 6.256ZM21.09 1.856H17.282V0.575999H26.418V1.856H22.61V12H21.09V1.856ZM27.4615 0.575999H28.8215V4.944H28.8535C28.9602 4.688 29.1095 4.47467 29.3015 4.304C29.4935 4.12267 29.7068 3.97867 29.9415 3.872C30.1868 3.75467 30.4375 3.66933 30.6935 3.616C30.9602 3.56267 31.2162 3.536 31.4615 3.536C32.0055 3.536 32.4588 3.61067 32.8215 3.76C33.1842 3.90933 33.4775 4.11733 33.7015 4.384C33.9255 4.65067 34.0802 4.97067 34.1655 5.344C34.2615 5.70667 34.3095 6.112 34.3095 6.56V12H32.9495V6.4C32.9495 5.888 32.8002 5.48267 32.5015 5.184C32.2028 4.88533 31.7922 4.736 31.2695 4.736C30.8535 4.736 30.4908 4.8 30.1815 4.928C29.8828 5.056 29.6322 5.23733 29.4295 5.472C29.2268 5.70667 29.0722 5.984 28.9655 6.304C28.8695 6.61333 28.8215 6.95467 28.8215 7.328V12H27.4615V0.575999ZM42.0961 7.072C42.0748 6.752 42.0001 6.448 41.8721 6.16C41.7548 5.872 41.5895 5.62667 41.3761 5.424C41.1735 5.21067 40.9281 5.04533 40.6401 4.928C40.3628 4.8 40.0535 4.736 39.7121 4.736C39.3601 4.736 39.0401 4.8 38.7521 4.928C38.4748 5.04533 38.2348 5.21067 38.0321 5.424C37.8295 5.63733 37.6695 5.888 37.5521 6.176C37.4348 6.45333 37.3655 6.752 37.3441 7.072H42.0961ZM43.4081 9.376C43.2268 10.304 42.8268 11.0027 42.2081 11.472C41.5895 11.9413 40.8108 12.176 39.8721 12.176C39.2108 12.176 38.6348 12.0693 38.1441 11.856C37.6641 11.6427 37.2588 11.344 36.9281 10.96C36.5975 10.576 36.3468 10.1173 36.1761 9.584C36.0161 9.05067 35.9255 8.46933 35.9041 7.84C35.9041 7.21067 36.0001 6.63467 36.1921 6.112C36.3841 5.58933 36.6508 5.136 36.9921 4.752C37.3441 4.368 37.7548 4.06933 38.2241 3.856C38.7041 3.64267 39.2268 3.536 39.7921 3.536C40.5281 3.536 41.1361 3.69067 41.6161 4C42.1068 4.29867 42.4961 4.68267 42.7841 5.152C43.0828 5.62133 43.2855 6.13333 43.3921 6.688C43.5095 7.24267 43.5575 7.77067 43.5361 8.272H37.3441C37.3335 8.63467 37.3761 8.98133 37.4721 9.312C37.5681 9.632 37.7228 9.92 37.9361 10.176C38.1495 10.4213 38.4215 10.6187 38.7521 10.768C39.0828 10.9173 39.4721 10.992 39.9201 10.992C40.4961 10.992 40.9655 10.8587 41.3281 10.592C41.7015 10.3253 41.9468 9.92 42.0641 9.376H43.4081ZM44.8979 3.728H46.1779V5.472H46.2099C46.5405 4.8 46.9459 4.304 47.4259 3.984C47.9059 3.664 48.5139 3.51467 49.2499 3.536V4.976C48.7059 4.976 48.2419 5.05067 47.8579 5.2C47.4739 5.34933 47.1645 5.568 46.9299 5.856C46.6952 6.144 46.5245 6.496 46.4179 6.912C46.3112 7.31733 46.2579 7.78667 46.2579 8.32V12H44.8979V3.728ZM55.7368 7.072C55.7154 6.752 55.6408 6.448 55.5128 6.16C55.3954 5.872 55.2301 5.62667 55.0168 5.424C54.8141 5.21067 54.5688 5.04533 54.2808 4.928C54.0034 4.8 53.6941 4.736 53.3528 4.736C53.0008 4.736 52.6808 4.8 52.3928 4.928C52.1154 5.04533 51.8754 5.21067 51.6728 5.424C51.4701 5.63733 51.3101 5.888 51.1928 6.176C51.0754 6.45333 51.0061 6.752 50.9848 7.072H55.7368ZM57.0487 9.376C56.8674 10.304 56.4674 11.0027 55.8488 11.472C55.2301 11.9413 54.4514 12.176 53.5128 12.176C52.8514 12.176 52.2754 12.0693 51.7848 11.856C51.3048 11.6427 50.8994 11.344 50.5688 10.96C50.2381 10.576 49.9874 10.1173 49.8168 9.584C49.6568 9.05067 49.5661 8.46933 49.5448 7.84C49.5448 7.21067 49.6408 6.63467 49.8328 6.112C50.0248 5.58933 50.2914 5.136 50.6328 4.752C50.9848 4.368 51.3954 4.06933 51.8648 3.856C52.3448 3.64267 52.8674 3.536 53.4328 3.536C54.1688 3.536 54.7768 3.69067 55.2568 4C55.7474 4.29867 56.1368 4.68267 56.4248 5.152C56.7234 5.62133 56.9261 6.13333 57.0328 6.688C57.1501 7.24267 57.1981 7.77067 57.1768 8.272H50.9848C50.9741 8.63467 51.0168 8.98133 51.1128 9.312C51.2088 9.632 51.3634 9.92 51.5768 10.176C51.7901 10.4213 52.0621 10.6187 52.3928 10.768C52.7234 10.9173 53.1128 10.992 53.5608 10.992C54.1368 10.992 54.6061 10.8587 54.9688 10.592C55.3421 10.3253 55.5874 9.92 55.7048 9.376H57.0487ZM59.4185 9.392C59.4292 9.69067 59.4985 9.94667 59.6265 10.16C59.7545 10.3627 59.9198 10.528 60.1225 10.656C60.3358 10.7733 60.5705 10.8587 60.8265 10.912C61.0932 10.9653 61.3652 10.992 61.6425 10.992C61.8558 10.992 62.0798 10.976 62.3145 10.944C62.5492 10.912 62.7625 10.8533 62.9545 10.768C63.1572 10.6827 63.3225 10.56 63.4505 10.4C63.5785 10.2293 63.6425 10.016 63.6425 9.76C63.6425 9.408 63.5092 9.14133 63.2425 8.96C62.9758 8.77867 62.6398 8.63467 62.2345 8.528C61.8398 8.41067 61.4078 8.30933 60.9385 8.224C60.4692 8.128 60.0318 8 59.6265 7.84C59.2318 7.66933 58.9012 7.43467 58.6345 7.136C58.3678 6.83733 58.2345 6.42133 58.2345 5.888C58.2345 5.472 58.3252 5.11467 58.5065 4.816C58.6985 4.51733 58.9385 4.27733 59.2265 4.096C59.5252 3.904 59.8558 3.76533 60.2185 3.68C60.5918 3.584 60.9598 3.536 61.3225 3.536C61.7918 3.536 62.2238 3.57867 62.6185 3.664C63.0132 3.73867 63.3598 3.87733 63.6585 4.08C63.9678 4.272 64.2132 4.53867 64.3945 4.88C64.5758 5.21067 64.6825 5.62667 64.7145 6.128H63.3545C63.3332 5.86133 63.2638 5.64267 63.1465 5.472C63.0292 5.29067 62.8798 5.14667 62.6985 5.04C62.5172 4.93333 62.3145 4.85867 62.0905 4.816C61.8772 4.76267 61.6585 4.736 61.4345 4.736C61.2318 4.736 61.0238 4.752 60.8105 4.784C60.6078 4.816 60.4212 4.87467 60.2505 4.96C60.0798 5.03467 59.9412 5.14133 59.8345 5.28C59.7278 5.408 59.6745 5.57867 59.6745 5.792C59.6745 6.02667 59.7545 6.224 59.9145 6.384C60.0852 6.53333 60.2985 6.66133 60.5545 6.768C60.8105 6.864 61.0985 6.94933 61.4185 7.024C61.7385 7.088 62.0585 7.15733 62.3785 7.232C62.7198 7.30667 63.0505 7.39733 63.3705 7.504C63.7012 7.61067 63.9892 7.75467 64.2345 7.936C64.4905 8.10667 64.6932 8.32533 64.8425 8.592C65.0025 8.85867 65.0825 9.18933 65.0825 9.584C65.0825 10.0853 64.9758 10.5013 64.7625 10.832C64.5598 11.1627 64.2878 11.4293 63.9465 11.632C63.6158 11.8347 63.2372 11.9733 62.8105 12.048C62.3945 12.1333 61.9785 12.176 61.5625 12.176C61.1038 12.176 60.6665 12.128 60.2505 12.032C59.8345 11.936 59.4665 11.7813 59.1465 11.568C58.8265 11.344 58.5705 11.056 58.3785 10.704C58.1865 10.3413 58.0798 9.904 58.0585 9.392H59.4185ZM73.9145 11.968C73.6798 12.1067 73.3545 12.176 72.9385 12.176C72.5865 12.176 72.3038 12.08 72.0905 11.888C71.8878 11.6853 71.7865 11.36 71.7865 10.912C71.4132 11.36 70.9758 11.6853 70.4745 11.888C69.9838 12.08 69.4505 12.176 68.8745 12.176C68.5012 12.176 68.1438 12.1333 67.8025 12.048C67.4718 11.9627 67.1838 11.8293 66.9385 11.648C66.6932 11.4667 66.4958 11.232 66.3465 10.944C66.2078 10.6453 66.1385 10.288 66.1385 9.872C66.1385 9.40267 66.2185 9.01867 66.3785 8.72C66.5385 8.42133 66.7465 8.18133 67.0025 8C67.2692 7.808 67.5678 7.664 67.8985 7.568C68.2398 7.472 68.5865 7.392 68.9385 7.328C69.3118 7.25333 69.6638 7.2 69.9945 7.168C70.3358 7.12533 70.6345 7.072 70.8905 7.008C71.1465 6.93333 71.3492 6.832 71.4985 6.704C71.6478 6.56533 71.7225 6.368 71.7225 6.112C71.7225 5.81333 71.6638 5.57333 71.5465 5.392C71.4398 5.21067 71.2958 5.072 71.1145 4.976C70.9438 4.88 70.7465 4.816 70.5225 4.784C70.3092 4.752 70.0958 4.736 69.8825 4.736C69.3065 4.736 68.8265 4.848 68.4425 5.072C68.0585 5.28533 67.8505 5.696 67.8185 6.304H66.4585C66.4798 5.792 66.5865 5.36 66.7785 5.008C66.9705 4.656 67.2265 4.37333 67.5465 4.16C67.8665 3.936 68.2292 3.776 68.6345 3.68C69.0505 3.584 69.4932 3.536 69.9625 3.536C70.3358 3.536 70.7038 3.56267 71.0665 3.616C71.4398 3.66933 71.7758 3.78133 72.0745 3.952C72.3732 4.112 72.6132 4.34133 72.7945 4.64C72.9758 4.93867 73.0665 5.328 73.0665 5.808V10.064C73.0665 10.384 73.0825 10.6187 73.1145 10.768C73.1572 10.9173 73.2852 10.992 73.4985 10.992C73.6158 10.992 73.7545 10.9653 73.9145 10.912V11.968ZM71.7065 7.728C71.5358 7.856 71.3118 7.952 71.0345 8.016C70.7572 8.06933 70.4638 8.11733 70.1545 8.16C69.8558 8.192 69.5518 8.23467 69.2425 8.288C68.9332 8.33067 68.6558 8.40533 68.4105 8.512C68.1652 8.61867 67.9625 8.77333 67.8025 8.976C67.6532 9.168 67.5785 9.43467 67.5785 9.776C67.5785 10 67.6212 10.192 67.7065 10.352C67.8025 10.5013 67.9198 10.624 68.0585 10.72C68.2078 10.816 68.3785 10.8853 68.5705 10.928C68.7625 10.9707 68.9652 10.992 69.1785 10.992C69.6265 10.992 70.0105 10.9333 70.3305 10.816C70.6505 10.688 70.9118 10.5333 71.1145 10.352C71.3172 10.16 71.4665 9.95733 71.5625 9.744C71.6585 9.52 71.7065 9.312 71.7065 9.12V7.728ZM87.8894 4.016C87.7187 3.20533 87.34 2.59733 86.7534 2.192C86.1774 1.78667 85.4894 1.584 84.6894 1.584C84.0067 1.584 83.42 1.712 82.9294 1.968C82.4494 2.224 82.0494 2.57067 81.7294 3.008C81.42 3.43467 81.1907 3.92533 81.0414 4.48C80.892 5.03467 80.8174 5.61067 80.8174 6.208C80.8174 6.85867 80.892 7.47733 81.0414 8.064C81.1907 8.64 81.42 9.14667 81.7294 9.584C82.0494 10.0107 82.4547 10.352 82.9454 10.608C83.436 10.864 84.0227 10.992 84.7054 10.992C85.2067 10.992 85.6494 10.912 86.0334 10.752C86.428 10.5813 86.764 10.352 87.0414 10.064C87.3294 9.76533 87.5534 9.41333 87.7134 9.008C87.8734 8.60267 87.9694 8.16533 88.0014 7.696H89.5214C89.372 9.136 88.876 10.256 88.0334 11.056C87.1907 11.856 86.0387 12.256 84.5774 12.256C83.692 12.256 82.9187 12.1067 82.2574 11.808C81.596 11.4987 81.0467 11.0773 80.6094 10.544C80.172 10.0107 79.8414 9.38133 79.6174 8.656C79.404 7.93067 79.2974 7.152 79.2974 6.32C79.2974 5.488 79.4147 4.70933 79.6494 3.984C79.884 3.248 80.2254 2.608 80.6734 2.064C81.132 1.52 81.6974 1.09333 82.3694 0.783999C83.052 0.464 83.8307 0.304 84.7054 0.304C85.3027 0.304 85.868 0.384 86.4014 0.544C86.9347 0.704 87.4094 0.938666 87.8254 1.248C88.2414 1.55733 88.588 1.94667 88.8654 2.416C89.1427 2.87467 89.324 3.408 89.4094 4.016H87.8894ZM98.5083 11.968C98.2736 12.1067 97.9483 12.176 97.5323 12.176C97.1803 12.176 96.8976 12.08 96.6843 11.888C96.4816 11.6853 96.3803 11.36 96.3803 10.912C96.0069 11.36 95.5696 11.6853 95.0683 11.888C94.5776 12.08 94.0443 12.176 93.4683 12.176C93.0949 12.176 92.7376 12.1333 92.3963 12.048C92.0656 11.9627 91.7776 11.8293 91.5323 11.648C91.2869 11.4667 91.0896 11.232 90.9403 10.944C90.8016 10.6453 90.7323 10.288 90.7323 9.872C90.7323 9.40267 90.8123 9.01867 90.9723 8.72C91.1323 8.42133 91.3403 8.18133 91.5963 8C91.8629 7.808 92.1616 7.664 92.4923 7.568C92.8336 7.472 93.1803 7.392 93.5323 7.328C93.9056 7.25333 94.2576 7.2 94.5883 7.168C94.9296 7.12533 95.2283 7.072 95.4843 7.008C95.7403 6.93333 95.9429 6.832 96.0923 6.704C96.2416 6.56533 96.3163 6.368 96.3163 6.112C96.3163 5.81333 96.2576 5.57333 96.1403 5.392C96.0336 5.21067 95.8896 5.072 95.7083 4.976C95.5376 4.88 95.3403 4.816 95.1163 4.784C94.9029 4.752 94.6896 4.736 94.4763 4.736C93.9003 4.736 93.4203 4.848 93.0363 5.072C92.6523 5.28533 92.4443 5.696 92.4123 6.304H91.0523C91.0736 5.792 91.1803 5.36 91.3723 5.008C91.5643 4.656 91.8203 4.37333 92.1403 4.16C92.4603 3.936 92.8229 3.776 93.2283 3.68C93.6443 3.584 94.0869 3.536 94.5563 3.536C94.9296 3.536 95.2976 3.56267 95.6603 3.616C96.0336 3.66933 96.3696 3.78133 96.6683 3.952C96.9669 4.112 97.2069 4.34133 97.3883 4.64C97.5696 4.93867 97.6603 5.328 97.6603 5.808V10.064C97.6603 10.384 97.6763 10.6187 97.7083 10.768C97.7509 10.9173 97.8789 10.992 98.0923 10.992C98.2096 10.992 98.3483 10.9653 98.5083 10.912V11.968ZM96.3003 7.728C96.1296 7.856 95.9056 7.952 95.6283 8.016C95.3509 8.06933 95.0576 8.11733 94.7483 8.16C94.4496 8.192 94.1456 8.23467 93.8363 8.288C93.5269 8.33067 93.2496 8.40533 93.0043 8.512C92.7589 8.61867 92.5563 8.77333 92.3963 8.976C92.2469 9.168 92.1723 9.43467 92.1723 9.776C92.1723 10 92.2149 10.192 92.3003 10.352C92.3963 10.5013 92.5136 10.624 92.6523 10.72C92.8016 10.816 92.9723 10.8853 93.1643 10.928C93.3563 10.9707 93.5589 10.992 93.7723 10.992C94.2203 10.992 94.6043 10.9333 94.9243 10.816C95.2443 10.688 95.5056 10.5333 95.7083 10.352C95.9109 10.16 96.0603 9.95733 96.1563 9.744C96.2523 9.52 96.3003 9.312 96.3003 9.12V7.728ZM100.606 9.392C100.617 9.69067 100.686 9.94667 100.814 10.16C100.942 10.3627 101.107 10.528 101.31 10.656C101.523 10.7733 101.758 10.8587 102.014 10.912C102.281 10.9653 102.553 10.992 102.83 10.992C103.043 10.992 103.267 10.976 103.502 10.944C103.737 10.912 103.95 10.8533 104.142 10.768C104.345 10.6827 104.51 10.56 104.638 10.4C104.766 10.2293 104.83 10.016 104.83 9.76C104.83 9.408 104.697 9.14133 104.43 8.96C104.163 8.77867 103.827 8.63467 103.422 8.528C103.027 8.41067 102.595 8.30933 102.126 8.224C101.657 8.128 101.219 8 100.814 7.84C100.419 7.66933 100.089 7.43467 99.822 7.136C99.5553 6.83733 99.422 6.42133 99.422 5.888C99.422 5.472 99.5127 5.11467 99.694 4.816C99.886 4.51733 100.126 4.27733 100.414 4.096C100.713 3.904 101.043 3.76533 101.406 3.68C101.779 3.584 102.147 3.536 102.51 3.536C102.979 3.536 103.411 3.57867 103.806 3.664C104.201 3.73867 104.547 3.87733 104.846 4.08C105.155 4.272 105.401 4.53867 105.582 4.88C105.763 5.21067 105.87 5.62667 105.902 6.128H104.542C104.521 5.86133 104.451 5.64267 104.334 5.472C104.217 5.29067 104.067 5.14667 103.886 5.04C103.705 4.93333 103.502 4.85867 103.278 4.816C103.065 4.76267 102.846 4.736 102.622 4.736C102.419 4.736 102.211 4.752 101.998 4.784C101.795 4.816 101.609 4.87467 101.438 4.96C101.267 5.03467 101.129 5.14133 101.022 5.28C100.915 5.408 100.862 5.57867 100.862 5.792C100.862 6.02667 100.942 6.224 101.102 6.384C101.273 6.53333 101.486 6.66133 101.742 6.768C101.998 6.864 102.286 6.94933 102.606 7.024C102.926 7.088 103.246 7.15733 103.566 7.232C103.907 7.30667 104.238 7.39733 104.558 7.504C104.889 7.61067 105.177 7.75467 105.422 7.936C105.678 8.10667 105.881 8.32533 106.03 8.592C106.19 8.85867 106.27 9.18933 106.27 9.584C106.27 10.0853 106.163 10.5013 105.95 10.832C105.747 11.1627 105.475 11.4293 105.134 11.632C104.803 11.8347 104.425 11.9733 103.998 12.048C103.582 12.1333 103.166 12.176 102.75 12.176C102.291 12.176 101.854 12.128 101.438 12.032C101.022 11.936 100.654 11.7813 100.334 11.568C100.014 11.344 99.758 11.056 99.566 10.704C99.374 10.3413 99.2673 9.904 99.246 9.392H100.606ZM109.662 3.728H111.31V4.928H109.662V10.064C109.662 10.224 109.673 10.352 109.694 10.448C109.726 10.544 109.779 10.6187 109.854 10.672C109.929 10.7253 110.03 10.7627 110.158 10.784C110.297 10.7947 110.473 10.8 110.686 10.8H111.31V12H110.27C109.918 12 109.614 11.9787 109.358 11.936C109.113 11.8827 108.91 11.792 108.75 11.664C108.601 11.536 108.489 11.3547 108.414 11.12C108.339 10.8853 108.302 10.576 108.302 10.192V4.928H106.894V3.728H108.302V1.248H109.662V3.728ZM118.565 7.072C118.544 6.752 118.469 6.448 118.341 6.16C118.224 5.872 118.058 5.62667 117.845 5.424C117.642 5.21067 117.397 5.04533 117.109 4.928C116.832 4.8 116.522 4.736 116.181 4.736C115.829 4.736 115.509 4.8 115.221 4.928C114.944 5.04533 114.704 5.21067 114.501 5.424C114.298 5.63733 114.138 5.888 114.021 6.176C113.904 6.45333 113.834 6.752 113.813 7.072H118.565ZM119.877 9.376C119.696 10.304 119.296 11.0027 118.677 11.472C118.058 11.9413 117.28 12.176 116.341 12.176C115.68 12.176 115.104 12.0693 114.613 11.856C114.133 11.6427 113.728 11.344 113.397 10.96C113.066 10.576 112.816 10.1173 112.645 9.584C112.485 9.05067 112.394 8.46933 112.373 7.84C112.373 7.21067 112.469 6.63467 112.661 6.112C112.853 5.58933 113.12 5.136 113.461 4.752C113.813 4.368 114.224 4.06933 114.693 3.856C115.173 3.64267 115.696 3.536 116.261 3.536C116.997 3.536 117.605 3.69067 118.085 4C118.576 4.29867 118.965 4.68267 119.253 5.152C119.552 5.62133 119.754 6.13333 119.861 6.688C119.978 7.24267 120.026 7.77067 120.005 8.272H113.813C113.802 8.63467 113.845 8.98133 113.941 9.312C114.037 9.632 114.192 9.92 114.405 10.176C114.618 10.4213 114.89 10.6187 115.221 10.768C115.552 10.9173 115.941 10.992 116.389 10.992C116.965 10.992 117.434 10.8587 117.797 10.592C118.17 10.3253 118.416 9.92 118.533 9.376H119.877ZM121.495 0.575999H122.855V12H121.495V0.575999ZM125.042 0.575999H126.402V12H125.042V0.575999ZM135.356 12H134.076V10.688H134.044C133.756 11.2 133.388 11.5787 132.94 11.824C132.492 12.0587 131.964 12.176 131.356 12.176C130.812 12.176 130.359 12.1067 129.996 11.968C129.634 11.8187 129.34 11.6107 129.116 11.344C128.892 11.0773 128.732 10.7627 128.636 10.4C128.551 10.0267 128.508 9.616 128.508 9.168V3.728H129.868V9.328C129.868 9.84 130.018 10.2453 130.316 10.544C130.615 10.8427 131.026 10.992 131.548 10.992C131.964 10.992 132.322 10.928 132.62 10.8C132.93 10.672 133.186 10.4907 133.388 10.256C133.591 10.0213 133.74 9.74933 133.836 9.44C133.943 9.12 133.996 8.77333 133.996 8.4V3.728H135.356V12ZM143.015 6.384C142.908 5.86133 142.684 5.456 142.343 5.168C142.002 4.88 141.543 4.736 140.967 4.736C140.476 4.736 140.066 4.82667 139.735 5.008C139.404 5.18933 139.138 5.42933 138.935 5.728C138.743 6.02667 138.604 6.37333 138.519 6.768C138.434 7.152 138.391 7.552 138.391 7.968C138.391 8.352 138.434 8.72533 138.519 9.088C138.615 9.45067 138.759 9.776 138.951 10.064C139.143 10.3413 139.394 10.5653 139.703 10.736C140.012 10.9067 140.38 10.992 140.807 10.992C141.479 10.992 142.002 10.816 142.375 10.464C142.759 10.112 142.994 9.616 143.079 8.976H144.471C144.322 10 143.938 10.7893 143.319 11.344C142.711 11.8987 141.879 12.176 140.823 12.176C140.194 12.176 139.634 12.0747 139.143 11.872C138.663 11.6693 138.258 11.3813 137.927 11.008C137.607 10.6347 137.362 10.192 137.191 9.68C137.031 9.15733 136.951 8.58667 136.951 7.968C136.951 7.34933 137.031 6.77333 137.191 6.24C137.351 5.696 137.591 5.22667 137.911 4.832C138.242 4.42667 138.652 4.112 139.143 3.888C139.634 3.65333 140.204 3.536 140.855 3.536C141.324 3.536 141.762 3.59467 142.167 3.712C142.583 3.81867 142.946 3.98933 143.255 4.224C143.575 4.45867 143.836 4.75733 144.039 5.12C144.242 5.472 144.37 5.89333 144.423 6.384H143.015ZM151.609 6.384C151.502 5.86133 151.278 5.456 150.937 5.168C150.595 4.88 150.137 4.736 149.561 4.736C149.07 4.736 148.659 4.82667 148.329 5.008C147.998 5.18933 147.731 5.42933 147.529 5.728C147.337 6.02667 147.198 6.37333 147.113 6.768C147.027 7.152 146.985 7.552 146.985 7.968C146.985 8.352 147.027 8.72533 147.113 9.088C147.209 9.45067 147.353 9.776 147.545 10.064C147.737 10.3413 147.987 10.5653 148.297 10.736C148.606 10.9067 148.974 10.992 149.401 10.992C150.073 10.992 150.595 10.816 150.969 10.464C151.353 10.112 151.587 9.616 151.673 8.976H153.065C152.915 10 152.531 10.7893 151.913 11.344C151.305 11.8987 150.473 12.176 149.417 12.176C148.787 12.176 148.227 12.0747 147.737 11.872C147.257 11.6693 146.851 11.3813 146.521 11.008C146.201 10.6347 145.955 10.192 145.785 9.68C145.625 9.15733 145.545 8.58667 145.545 7.968C145.545 7.34933 145.625 6.77333 145.785 6.24C145.945 5.696 146.185 5.22667 146.505 4.832C146.835 4.42667 147.246 4.112 147.737 3.888C148.227 3.65333 148.798 3.536 149.449 3.536C149.918 3.536 150.355 3.59467 150.761 3.712C151.177 3.81867 151.539 3.98933 151.849 4.224C152.169 4.45867 152.43 4.75733 152.633 5.12C152.835 5.472 152.963 5.89333 153.017 6.384H151.609ZM156.027 2.24H154.667V0.575999H156.027V2.24ZM154.667 3.728H156.027V12H154.667V3.728ZM162.267 4.672C162.235 4.096 162.293 3.56267 162.443 3.072C162.592 2.58133 162.821 2.16 163.131 1.808C163.451 1.44533 163.845 1.16267 164.315 0.959999C164.784 0.757332 165.317 0.655999 165.915 0.655999C166.405 0.655999 166.864 0.730666 167.291 0.879999C167.728 1.01867 168.107 1.22667 168.427 1.504C168.747 1.77067 168.997 2.10667 169.179 2.512C169.371 2.91733 169.467 3.38667 169.467 3.92C169.467 4.42133 169.387 4.864 169.227 5.248C169.077 5.632 168.875 5.97867 168.619 6.288C168.363 6.58667 168.069 6.85867 167.739 7.104C167.408 7.34933 167.067 7.584 166.715 7.808C166.363 8.02133 166.011 8.23467 165.659 8.448C165.307 8.65067 164.981 8.86933 164.683 9.104C164.395 9.33867 164.144 9.59467 163.931 9.872C163.728 10.1387 163.595 10.448 163.531 10.8H169.355V12H161.947C162 11.328 162.117 10.7573 162.299 10.288C162.491 9.808 162.731 9.392 163.019 9.04C163.307 8.688 163.632 8.37867 163.995 8.112C164.357 7.84533 164.736 7.59467 165.131 7.36C165.611 7.06133 166.032 6.78933 166.395 6.544C166.757 6.288 167.056 6.032 167.291 5.776C167.536 5.52 167.717 5.24267 167.835 4.944C167.963 4.64533 168.027 4.29867 168.027 3.904C168.027 3.59467 167.968 3.31733 167.851 3.072C167.733 2.816 167.573 2.59733 167.371 2.416C167.179 2.23467 166.949 2.096 166.683 2C166.416 1.904 166.133 1.856 165.835 1.856C165.44 1.856 165.099 1.94133 164.811 2.112C164.533 2.272 164.304 2.48533 164.123 2.752C163.941 3.01867 163.808 3.32267 163.723 3.664C163.648 3.99467 163.616 4.33067 163.627 4.672H162.267ZM172.565 6.416C172.565 6.84267 172.576 7.32267 172.597 7.856C172.629 8.37867 172.714 8.87467 172.853 9.344C173.002 9.80267 173.237 10.192 173.557 10.512C173.877 10.832 174.325 10.992 174.901 10.992C175.477 10.992 175.925 10.832 176.245 10.512C176.565 10.192 176.794 9.80267 176.933 9.344C177.082 8.87467 177.168 8.37867 177.189 7.856C177.221 7.32267 177.237 6.84267 177.237 6.416C177.237 6.13867 177.232 5.83467 177.221 5.504C177.221 5.16267 177.194 4.82667 177.141 4.496C177.098 4.15467 177.029 3.824 176.933 3.504C176.848 3.184 176.714 2.90667 176.533 2.672C176.362 2.42667 176.144 2.22933 175.877 2.08C175.61 1.93067 175.285 1.856 174.901 1.856C174.517 1.856 174.192 1.93067 173.925 2.08C173.658 2.22933 173.434 2.42667 173.253 2.672C173.082 2.90667 172.949 3.184 172.853 3.504C172.768 3.824 172.698 4.15467 172.645 4.496C172.602 4.82667 172.576 5.16267 172.565 5.504C172.565 5.83467 172.565 6.13867 172.565 6.416ZM171.125 6.432C171.125 6.016 171.136 5.584 171.157 5.136C171.178 4.688 171.232 4.25067 171.317 3.824C171.402 3.39733 171.525 2.992 171.685 2.608C171.845 2.224 172.064 1.888 172.341 1.6C172.618 1.312 172.965 1.08267 173.381 0.912C173.808 0.741333 174.314 0.655999 174.901 0.655999C175.488 0.655999 175.989 0.741333 176.405 0.912C176.832 1.08267 177.184 1.312 177.461 1.6C177.738 1.888 177.957 2.224 178.117 2.608C178.277 2.992 178.4 3.39733 178.485 3.824C178.57 4.25067 178.624 4.688 178.645 5.136C178.666 5.584 178.677 6.016 178.677 6.432C178.677 6.848 178.666 7.28 178.645 7.728C178.624 8.176 178.57 8.61333 178.485 9.04C178.4 9.46667 178.277 9.872 178.117 10.256C177.957 10.6293 177.738 10.96 177.461 11.248C177.184 11.536 176.837 11.7653 176.421 11.936C176.005 12.096 175.498 12.176 174.901 12.176C174.314 12.176 173.808 12.096 173.381 11.936C172.965 11.7653 172.618 11.536 172.341 11.248C172.064 10.96 171.845 10.6293 171.685 10.256C171.525 9.872 171.402 9.46667 171.317 9.04C171.232 8.61333 171.178 8.176 171.157 7.728C171.136 7.28 171.125 6.848 171.125 6.432ZM180.048 4.672C180.016 4.096 180.074 3.56267 180.224 3.072C180.373 2.58133 180.602 2.16 180.912 1.808C181.232 1.44533 181.626 1.16267 182.096 0.959999C182.565 0.757332 183.098 0.655999 183.696 0.655999C184.186 0.655999 184.645 0.730666 185.072 0.879999C185.509 1.01867 185.888 1.22667 186.208 1.504C186.528 1.77067 186.778 2.10667 186.96 2.512C187.152 2.91733 187.248 3.38667 187.248 3.92C187.248 4.42133 187.168 4.864 187.008 5.248C186.858 5.632 186.656 5.97867 186.4 6.288C186.144 6.58667 185.85 6.85867 185.52 7.104C185.189 7.34933 184.848 7.584 184.496 7.808C184.144 8.02133 183.792 8.23467 183.44 8.448C183.088 8.65067 182.762 8.86933 182.464 9.104C182.176 9.33867 181.925 9.59467 181.712 9.872C181.509 10.1387 181.376 10.448 181.312 10.8H187.136V12H179.728C179.781 11.328 179.898 10.7573 180.08 10.288C180.272 9.808 180.512 9.392 180.8 9.04C181.088 8.688 181.413 8.37867 181.776 8.112C182.138 7.84533 182.517 7.59467 182.912 7.36C183.392 7.06133 183.813 6.78933 184.176 6.544C184.538 6.288 184.837 6.032 185.072 5.776C185.317 5.52 185.498 5.24267 185.616 4.944C185.744 4.64533 185.808 4.29867 185.808 3.904C185.808 3.59467 185.749 3.31733 185.632 3.072C185.514 2.816 185.354 2.59733 185.152 2.416C184.96 2.23467 184.73 2.096 184.464 2C184.197 1.904 183.914 1.856 183.616 1.856C183.221 1.856 182.88 1.94133 182.592 2.112C182.314 2.272 182.085 2.48533 181.904 2.752C181.722 3.01867 181.589 3.32267 181.504 3.664C181.429 3.99467 181.397 4.33067 181.408 4.672H180.048ZM193.658 8.144V2.592H193.626L189.85 8.144H193.658ZM194.938 8.144H196.474V9.344H194.938V12H193.658V9.344H188.682V8.032L193.85 0.655999H194.938V8.144Z" fill="#8A8A8A"/>
</svg>
