<svg width="171" height="16" viewBox="0 0 171 16" fill="none" xmlns="http://www.w3.org/2000/svg">
<path d="M2.912 3.728H4.56V4.928H2.912V10.064C2.912 10.224 2.92267 10.352 2.944 10.448C2.976 10.544 3.02933 10.6187 3.104 10.672C3.17867 10.7253 3.28 10.7627 3.408 10.784C3.54667 10.7947 3.72267 10.8 3.936 10.8H4.56V12H3.52C3.168 12 2.864 11.9787 2.608 11.936C2.36267 11.8827 2.16 11.792 2 11.664C1.85067 11.536 1.73867 11.3547 1.664 11.12C1.58933 10.8853 1.552 10.576 1.552 10.192V4.928H0.144V3.728H1.552V1.248H2.912V3.728ZM6.02288 3.728H7.30288V5.472H7.33488C7.66554 4.8 8.07088 4.304 8.55088 3.984C9.03088 3.664 9.63888 3.51467 10.3749 3.536V4.976C9.83088 4.976 9.36688 5.05067 8.98288 5.2C8.59888 5.34933 8.28954 5.568 8.05488 5.856C7.82021 6.144 7.64954 6.496 7.54288 6.912C7.43621 7.31733 7.38288 7.78667 7.38288 8.32V12H6.02288V3.728ZM16.7338 6.384C16.6271 5.86133 16.4031 5.456 16.0618 5.168C15.7204 4.88 15.2618 4.736 14.6858 4.736C14.1951 4.736 13.7844 4.82667 13.4538 5.008C13.1231 5.18933 12.8564 5.42933 12.6538 5.728C12.4618 6.02667 12.3231 6.37333 12.2378 6.768C12.1524 7.152 12.1098 7.552 12.1098 7.968C12.1098 8.352 12.1524 8.72533 12.2378 9.088C12.3338 9.45067 12.4778 9.776 12.6698 10.064C12.8618 10.3413 13.1124 10.5653 13.4218 10.736C13.7311 10.9067 14.0991 10.992 14.5258 10.992C15.1978 10.992 15.7204 10.816 16.0938 10.464C16.4778 10.112 16.7124 9.616 16.7978 8.976H18.1898C18.0404 10 17.6564 10.7893 17.0378 11.344C16.4298 11.8987 15.5978 12.176 14.5418 12.176C13.9124 12.176 13.3524 12.0747 12.8618 11.872C12.3818 11.6693 11.9764 11.3813 11.6458 11.008C11.3258 10.6347 11.0804 10.192 10.9098 9.68C10.7498 9.15733 10.6698 8.58667 10.6698 7.968C10.6698 7.34933 10.7498 6.77333 10.9098 6.24C11.0698 5.696 11.3098 5.22667 11.6298 4.832C11.9604 4.42667 12.3711 4.112 12.8618 3.888C13.3524 3.65333 13.9231 3.536 14.5738 3.536C15.0431 3.536 15.4804 3.59467 15.8858 3.712C16.3018 3.81867 16.6644 3.98933 16.9738 4.224C17.2938 4.45867 17.5551 4.75733 17.7578 5.12C17.9604 5.472 18.0884 5.89333 18.1418 6.384H16.7338ZM27.0395 11.968C26.8048 12.1067 26.4795 12.176 26.0635 12.176C25.7115 12.176 25.4288 12.08 25.2155 11.888C25.0128 11.6853 24.9115 11.36 24.9115 10.912C24.5382 11.36 24.1008 11.6853 23.5995 11.888C23.1088 12.08 22.5755 12.176 21.9995 12.176C21.6262 12.176 21.2688 12.1333 20.9275 12.048C20.5968 11.9627 20.3088 11.8293 20.0635 11.648C19.8182 11.4667 19.6208 11.232 19.4715 10.944C19.3328 10.6453 19.2635 10.288 19.2635 9.872C19.2635 9.40267 19.3435 9.01867 19.5035 8.72C19.6635 8.42133 19.8715 8.18133 20.1275 8C20.3942 7.808 20.6928 7.664 21.0235 7.568C21.3648 7.472 21.7115 7.392 22.0635 7.328C22.4368 7.25333 22.7888 7.2 23.1195 7.168C23.4608 7.12533 23.7595 7.072 24.0155 7.008C24.2715 6.93333 24.4742 6.832 24.6235 6.704C24.7728 6.56533 24.8475 6.368 24.8475 6.112C24.8475 5.81333 24.7888 5.57333 24.6715 5.392C24.5648 5.21067 24.4208 5.072 24.2395 4.976C24.0688 4.88 23.8715 4.816 23.6475 4.784C23.4342 4.752 23.2208 4.736 23.0075 4.736C22.4315 4.736 21.9515 4.848 21.5675 5.072C21.1835 5.28533 20.9755 5.696 20.9435 6.304H19.5835C19.6048 5.792 19.7115 5.36 19.9035 5.008C20.0955 4.656 20.3515 4.37333 20.6715 4.16C20.9915 3.936 21.3542 3.776 21.7595 3.68C22.1755 3.584 22.6182 3.536 23.0875 3.536C23.4608 3.536 23.8288 3.56267 24.1915 3.616C24.5648 3.66933 24.9008 3.78133 25.1995 3.952C25.4982 4.112 25.7382 4.34133 25.9195 4.64C26.1008 4.93867 26.1915 5.328 26.1915 5.808V10.064C26.1915 10.384 26.2075 10.6187 26.2395 10.768C26.2822 10.9173 26.4102 10.992 26.6235 10.992C26.7408 10.992 26.8795 10.9653 27.0395 10.912V11.968ZM24.8315 7.728C24.6608 7.856 24.4368 7.952 24.1595 8.016C23.8822 8.06933 23.5888 8.11733 23.2795 8.16C22.9808 8.192 22.6768 8.23467 22.3675 8.288C22.0582 8.33067 21.7808 8.40533 21.5355 8.512C21.2902 8.61867 21.0875 8.77333 20.9275 8.976C20.7782 9.168 20.7035 9.43467 20.7035 9.776C20.7035 10 20.7462 10.192 20.8315 10.352C20.9275 10.5013 21.0448 10.624 21.1835 10.72C21.3328 10.816 21.5035 10.8853 21.6955 10.928C21.8875 10.9707 22.0902 10.992 22.3035 10.992C22.7515 10.992 23.1355 10.9333 23.4555 10.816C23.7755 10.688 24.0368 10.5333 24.2395 10.352C24.4422 10.16 24.5915 9.95733 24.6875 9.744C24.7835 9.52 24.8315 9.312 24.8315 9.12V7.728ZM29.1373 9.392C29.1479 9.69067 29.2173 9.94667 29.3453 10.16C29.4733 10.3627 29.6386 10.528 29.8413 10.656C30.0546 10.7733 30.2893 10.8587 30.5453 10.912C30.8119 10.9653 31.0839 10.992 31.3613 10.992C31.5746 10.992 31.7986 10.976 32.0333 10.944C32.2679 10.912 32.4813 10.8533 32.6733 10.768C32.8759 10.6827 33.0413 10.56 33.1693 10.4C33.2973 10.2293 33.3613 10.016 33.3613 9.76C33.3613 9.408 33.2279 9.14133 32.9613 8.96C32.6946 8.77867 32.3586 8.63467 31.9533 8.528C31.5586 8.41067 31.1266 8.30933 30.6573 8.224C30.1879 8.128 29.7506 8 29.3453 7.84C28.9506 7.66933 28.6199 7.43467 28.3533 7.136C28.0866 6.83733 27.9533 6.42133 27.9533 5.888C27.9533 5.472 28.0439 5.11467 28.2253 4.816C28.4173 4.51733 28.6573 4.27733 28.9453 4.096C29.2439 3.904 29.5746 3.76533 29.9373 3.68C30.3106 3.584 30.6786 3.536 31.0413 3.536C31.5106 3.536 31.9426 3.57867 32.3373 3.664C32.7319 3.73867 33.0786 3.87733 33.3773 4.08C33.6866 4.272 33.9319 4.53867 34.1133 4.88C34.2946 5.21067 34.4013 5.62667 34.4333 6.128H33.0733C33.0519 5.86133 32.9826 5.64267 32.8653 5.472C32.7479 5.29067 32.5986 5.14667 32.4173 5.04C32.2359 4.93333 32.0333 4.85867 31.8093 4.816C31.5959 4.76267 31.3773 4.736 31.1533 4.736C30.9506 4.736 30.7426 4.752 30.5293 4.784C30.3266 4.816 30.1399 4.87467 29.9693 4.96C29.7986 5.03467 29.6599 5.14133 29.5533 5.28C29.4466 5.408 29.3932 5.57867 29.3932 5.792C29.3932 6.02667 29.4732 6.224 29.6332 6.384C29.8039 6.53333 30.0173 6.66133 30.2733 6.768C30.5293 6.864 30.8173 6.94933 31.1373 7.024C31.4573 7.088 31.7773 7.15733 32.0973 7.232C32.4386 7.30667 32.7693 7.39733 33.0893 7.504C33.4199 7.61067 33.7079 7.75467 33.9533 7.936C34.2093 8.10667 34.4119 8.32533 34.5613 8.592C34.7213 8.85867 34.8013 9.18933 34.8013 9.584C34.8013 10.0853 34.6946 10.5013 34.4813 10.832C34.2786 11.1627 34.0066 11.4293 33.6653 11.632C33.3346 11.8347 32.9559 11.9733 32.5293 12.048C32.1133 12.1333 31.6973 12.176 31.2812 12.176C30.8226 12.176 30.3853 12.128 29.9693 12.032C29.5533 11.936 29.1853 11.7813 28.8653 11.568C28.5453 11.344 28.2893 11.056 28.0973 10.704C27.9053 10.3413 27.7986 9.904 27.7773 9.392H29.1373ZM38.1933 3.728H39.8413V4.928H38.1933V10.064C38.1933 10.224 38.2039 10.352 38.2253 10.448C38.2573 10.544 38.3106 10.6187 38.3853 10.672C38.4599 10.7253 38.5613 10.7627 38.6893 10.784C38.8279 10.7947 39.0039 10.8 39.2173 10.8H39.8413V12H38.8013C38.4493 12 38.1453 11.9787 37.8893 11.936C37.6439 11.8827 37.4413 11.792 37.2812 11.664C37.1319 11.536 37.0199 11.3547 36.9453 11.12C36.8706 10.8853 36.8333 10.576 36.8333 10.192V4.928H35.4253V3.728H36.8333V1.248H38.1933V3.728ZM42.1841 9.392C42.1948 9.69067 42.2641 9.94667 42.3921 10.16C42.5201 10.3627 42.6855 10.528 42.8881 10.656C43.1015 10.7733 43.3361 10.8587 43.5921 10.912C43.8588 10.9653 44.1308 10.992 44.4081 10.992C44.6215 10.992 44.8455 10.976 45.0801 10.944C45.3148 10.912 45.5281 10.8533 45.7201 10.768C45.9228 10.6827 46.0881 10.56 46.2161 10.4C46.3441 10.2293 46.4081 10.016 46.4081 9.76C46.4081 9.408 46.2748 9.14133 46.0081 8.96C45.7415 8.77867 45.4055 8.63467 45.0001 8.528C44.6055 8.41067 44.1735 8.30933 43.7041 8.224C43.2348 8.128 42.7975 8 42.3921 7.84C41.9975 7.66933 41.6668 7.43467 41.4001 7.136C41.1335 6.83733 41.0001 6.42133 41.0001 5.888C41.0001 5.472 41.0908 5.11467 41.2721 4.816C41.4641 4.51733 41.7041 4.27733 41.9921 4.096C42.2908 3.904 42.6215 3.76533 42.9841 3.68C43.3575 3.584 43.7255 3.536 44.0881 3.536C44.5575 3.536 44.9895 3.57867 45.3841 3.664C45.7788 3.73867 46.1255 3.87733 46.4241 4.08C46.7335 4.272 46.9788 4.53867 47.1601 4.88C47.3415 5.21067 47.4481 5.62667 47.4801 6.128H46.1201C46.0988 5.86133 46.0295 5.64267 45.9121 5.472C45.7948 5.29067 45.6455 5.14667 45.4641 5.04C45.2828 4.93333 45.0801 4.85867 44.8561 4.816C44.6428 4.76267 44.4241 4.736 44.2001 4.736C43.9975 4.736 43.7895 4.752 43.5761 4.784C43.3735 4.816 43.1868 4.87467 43.0161 4.96C42.8455 5.03467 42.7068 5.14133 42.6001 5.28C42.4935 5.408 42.4401 5.57867 42.4401 5.792C42.4401 6.02667 42.5201 6.224 42.6801 6.384C42.8508 6.53333 43.0641 6.66133 43.3201 6.768C43.5761 6.864 43.8641 6.94933 44.1841 7.024C44.5041 7.088 44.8241 7.15733 45.1441 7.232C45.4855 7.30667 45.8161 7.39733 46.1361 7.504C46.4668 7.61067 46.7548 7.75467 47.0001 7.936C47.2561 8.10667 47.4588 8.32533 47.6081 8.592C47.7681 8.85867 47.8481 9.18933 47.8481 9.584C47.8481 10.0853 47.7415 10.5013 47.5281 10.832C47.3255 11.1627 47.0535 11.4293 46.7121 11.632C46.3815 11.8347 46.0028 11.9733 45.5761 12.048C45.1601 12.1333 44.7441 12.176 44.3281 12.176C43.8695 12.176 43.4321 12.128 43.0161 12.032C42.6001 11.936 42.2321 11.7813 41.9121 11.568C41.5921 11.344 41.3361 11.056 41.1441 10.704C40.9521 10.3413 40.8455 9.904 40.8241 9.392H42.1841ZM51.2401 3.728H52.8881V4.928H51.2401V10.064C51.2401 10.224 51.2508 10.352 51.2721 10.448C51.3041 10.544 51.3575 10.6187 51.4321 10.672C51.5068 10.7253 51.6081 10.7627 51.7361 10.784C51.8748 10.7947 52.0508 10.8 52.2641 10.8H52.8881V12H51.8481C51.4961 12 51.1921 11.9787 50.9361 11.936C50.6908 11.8827 50.4881 11.792 50.3281 11.664C50.1788 11.536 50.0668 11.3547 49.9921 11.12C49.9175 10.8853 49.8801 10.576 49.8801 10.192V4.928H48.4721V3.728H49.8801V1.248H51.2401V3.728ZM61.247 12H59.967V10.688H59.935C59.647 11.2 59.279 11.5787 58.831 11.824C58.383 12.0587 57.855 12.176 57.247 12.176C56.703 12.176 56.2497 12.1067 55.887 11.968C55.5243 11.8187 55.231 11.6107 55.007 11.344C54.783 11.0773 54.623 10.7627 54.527 10.4C54.4417 10.0267 54.399 9.616 54.399 9.168V3.728H55.759V9.328C55.759 9.84 55.9083 10.2453 56.207 10.544C56.5057 10.8427 56.9163 10.992 57.439 10.992C57.855 10.992 58.2123 10.928 58.511 10.8C58.8203 10.672 59.0763 10.4907 59.279 10.256C59.4817 10.0213 59.631 9.74933 59.727 9.44C59.8337 9.12 59.887 8.77333 59.887 8.4V3.728H61.247V12ZM64.2816 7.936C64.2816 8.32 64.3296 8.69867 64.4256 9.072C64.5323 9.43467 64.687 9.76 64.8896 10.048C65.103 10.336 65.3696 10.5653 65.6896 10.736C66.0203 10.9067 66.4043 10.992 66.8416 10.992C67.3003 10.992 67.6896 10.9013 68.0096 10.72C68.3296 10.5387 68.591 10.304 68.7936 10.016C68.9963 9.71733 69.1403 9.38133 69.2256 9.008C69.3216 8.63467 69.3696 8.256 69.3696 7.872C69.3696 7.46667 69.3216 7.07733 69.2256 6.704C69.1296 6.32 68.975 5.984 68.7616 5.696C68.559 5.408 68.2923 5.17867 67.9616 5.008C67.631 4.82667 67.231 4.736 66.7616 4.736C66.303 4.736 65.9136 4.82667 65.5936 5.008C65.2736 5.18933 65.0176 5.42933 64.8256 5.728C64.6336 6.02667 64.495 6.368 64.4096 6.752C64.3243 7.136 64.2816 7.53067 64.2816 7.936ZM70.6816 12H69.3216V10.88H69.2896C69.0656 11.3387 68.7136 11.6693 68.2336 11.872C67.7536 12.0747 67.2256 12.176 66.6496 12.176C66.0096 12.176 65.4496 12.0587 64.9696 11.824C64.5003 11.5893 64.1056 11.2747 63.7856 10.88C63.4763 10.4853 63.2416 10.0267 63.0816 9.504C62.9216 8.98133 62.8416 8.42667 62.8416 7.84C62.8416 7.25333 62.9163 6.69867 63.0656 6.176C63.2256 5.65333 63.4603 5.2 63.7696 4.816C64.0896 4.42133 64.4843 4.112 64.9536 3.888C65.4336 3.65333 65.9883 3.536 66.6176 3.536C66.831 3.536 67.0603 3.55733 67.3056 3.6C67.551 3.64267 67.7963 3.71733 68.0416 3.824C68.287 3.92 68.5163 4.05333 68.7296 4.224C68.9536 4.384 69.1403 4.58667 69.2896 4.832H69.3216V0.575999H70.6816V12ZM74.214 2.24H72.854V0.575999H74.214V2.24ZM72.854 3.728H74.214V12H72.854V3.728ZM77.3129 7.872C77.3129 8.37333 77.3769 8.82133 77.5049 9.216C77.6435 9.6 77.8302 9.92533 78.0649 10.192C78.2995 10.448 78.5715 10.6453 78.8809 10.784C79.2009 10.9227 79.5369 10.992 79.8889 10.992C80.2409 10.992 80.5715 10.9227 80.8809 10.784C81.2009 10.6453 81.4782 10.448 81.7129 10.192C81.9475 9.92533 82.1289 9.6 82.2569 9.216C82.3955 8.82133 82.4649 8.37333 82.4649 7.872C82.4649 7.37067 82.3955 6.928 82.2569 6.544C82.1289 6.14933 81.9475 5.81867 81.7129 5.552C81.4782 5.28533 81.2009 5.08267 80.8809 4.944C80.5715 4.80533 80.2409 4.736 79.8889 4.736C79.5369 4.736 79.2009 4.80533 78.8809 4.944C78.5715 5.08267 78.2995 5.28533 78.0649 5.552C77.8302 5.81867 77.6435 6.14933 77.5049 6.544C77.3769 6.928 77.3129 7.37067 77.3129 7.872ZM75.8729 7.872C75.8729 7.264 75.9582 6.69867 76.1289 6.176C76.2995 5.64267 76.5555 5.184 76.8969 4.8C77.2382 4.40533 77.6595 4.096 78.1609 3.872C78.6622 3.648 79.2382 3.536 79.8889 3.536C80.5502 3.536 81.1262 3.648 81.6169 3.872C82.1182 4.096 82.5395 4.40533 82.8809 4.8C83.2222 5.184 83.4782 5.64267 83.6489 6.176C83.8195 6.69867 83.9049 7.264 83.9049 7.872C83.9049 8.48 83.8195 9.04533 83.6489 9.568C83.4782 10.0907 83.2222 10.5493 82.8809 10.944C82.5395 11.328 82.1182 11.632 81.6169 11.856C81.1262 12.0693 80.5502 12.176 79.8889 12.176C79.2382 12.176 78.6622 12.0693 78.1609 11.856C77.6595 11.632 77.2382 11.328 76.8969 10.944C76.5555 10.5493 76.2995 10.0907 76.1289 9.568C75.9582 9.04533 75.8729 8.48 75.8729 7.872ZM93.0284 7.68C92.9857 7.81867 92.943 7.96267 92.9004 8.112C92.8684 8.25067 92.8524 8.37867 92.8524 8.496C92.8524 8.82667 92.9804 8.992 93.2364 8.992C93.4817 8.992 93.7324 8.88 93.9884 8.656C94.255 8.432 94.495 8.144 94.7084 7.792C94.9217 7.44 95.0977 7.04533 95.2364 6.608C95.375 6.17067 95.4444 5.73867 95.4444 5.312C95.4444 4.68267 95.3217 4.112 95.0764 3.6C94.8417 3.088 94.5217 2.656 94.1164 2.304C93.711 1.94133 93.247 1.664 92.7244 1.472C92.2124 1.28 91.6737 1.184 91.1084 1.184C90.4257 1.184 89.7857 1.32267 89.1884 1.6C88.6017 1.86667 88.0897 2.23467 87.6524 2.704C87.215 3.17333 86.8684 3.71733 86.6124 4.336C86.367 4.95467 86.2444 5.616 86.2444 6.32C86.2444 7.03467 86.3724 7.70133 86.6284 8.32C86.895 8.93867 87.2524 9.47733 87.7004 9.936C88.159 10.384 88.687 10.7413 89.2844 11.008C89.8817 11.264 90.5164 11.392 91.1884 11.392C91.9564 11.392 92.6924 11.216 93.3964 10.864C94.111 10.512 94.6977 10.0427 95.1564 9.456H96.1644C95.9084 9.904 95.599 10.304 95.2364 10.656C94.8737 10.9973 94.4737 11.2907 94.0364 11.536C93.6097 11.7707 93.151 11.9467 92.6604 12.064C92.1697 12.192 91.6684 12.256 91.1564 12.256C90.3137 12.256 89.5244 12.1013 88.7884 11.792C88.063 11.4827 87.4284 11.0613 86.8844 10.528C86.351 9.984 85.9297 9.34933 85.6204 8.624C85.311 7.888 85.1564 7.09333 85.1564 6.24C85.1564 5.41867 85.311 4.65067 85.6204 3.936C85.9404 3.21067 86.367 2.58133 86.9004 2.048C87.4444 1.504 88.0737 1.07733 88.7884 0.768C89.5137 0.458666 90.2817 0.304 91.0924 0.304C91.8284 0.304 92.527 0.426667 93.1884 0.672C93.8497 0.917333 94.4257 1.25867 94.9164 1.696C95.4177 2.12267 95.8124 2.64 96.1004 3.248C96.3884 3.84533 96.5324 4.50667 96.5324 5.232C96.5324 5.92533 96.4044 6.56 96.1484 7.136C95.903 7.70133 95.5937 8.18667 95.2204 8.592C94.847 8.99733 94.4417 9.312 94.0044 9.536C93.567 9.76 93.1617 9.872 92.7884 9.872C92.511 9.872 92.2764 9.78667 92.0844 9.616C91.8924 9.44533 91.7857 9.184 91.7644 8.832H91.7164C91.471 9.10933 91.1777 9.36 90.8364 9.584C90.495 9.79733 90.127 9.904 89.7324 9.904C89.391 9.904 89.0764 9.84 88.7884 9.712C88.511 9.57333 88.271 9.392 88.0684 9.168C87.8764 8.944 87.7217 8.67733 87.6044 8.368C87.4977 8.05867 87.4444 7.728 87.4444 7.376C87.4444 6.82133 87.535 6.272 87.7164 5.728C87.8977 5.184 88.1484 4.69867 88.4684 4.272C88.799 3.84533 89.1937 3.49867 89.6524 3.232C90.1217 2.96533 90.639 2.832 91.2044 2.832C91.5777 2.832 91.9244 2.93333 92.2444 3.136C92.5644 3.328 92.815 3.664 92.9964 4.144L93.3644 3.136H94.3724L93.0284 7.68ZM91.2044 3.92C90.831 3.92 90.4844 4.032 90.1644 4.256C89.855 4.46933 89.5884 4.74133 89.3644 5.072C89.1404 5.40267 88.9644 5.76533 88.8364 6.16C88.7084 6.544 88.6444 6.912 88.6444 7.264C88.6444 7.712 88.7724 8.08533 89.0284 8.384C89.2844 8.672 89.615 8.816 90.0204 8.816C90.3724 8.816 90.6977 8.704 90.9964 8.48C91.295 8.24533 91.5564 7.95733 91.7804 7.616C92.0044 7.264 92.1804 6.89067 92.3084 6.496C92.4364 6.10133 92.5004 5.73867 92.5004 5.408C92.5004 5.216 92.463 5.02933 92.3884 4.848C92.3244 4.66667 92.2284 4.512 92.1004 4.384C91.983 4.24533 91.8444 4.13333 91.6844 4.048C91.535 3.96267 91.375 3.92 91.2044 3.92ZM105.441 11.296C105.441 12.6507 105.132 13.664 104.513 14.336C103.895 15.008 102.924 15.344 101.601 15.344C101.217 15.344 100.823 15.3013 100.417 15.216C100.023 15.1307 99.6599 14.992 99.3293 14.8C99.0093 14.608 98.7426 14.3573 98.5293 14.048C98.3159 13.7387 98.1986 13.36 98.1773 12.912H99.5373C99.5479 13.1573 99.6226 13.3653 99.7613 13.536C99.9106 13.7067 100.087 13.8453 100.289 13.952C100.503 14.0587 100.732 14.1333 100.977 14.176C101.223 14.2293 101.457 14.256 101.681 14.256C102.129 14.256 102.508 14.176 102.817 14.016C103.127 13.8667 103.383 13.6533 103.585 13.376C103.788 13.1093 103.932 12.784 104.017 12.4C104.113 12.016 104.161 11.5947 104.161 11.136V10.592H104.129C103.895 11.104 103.537 11.4827 103.057 11.728C102.588 11.9627 102.087 12.08 101.553 12.08C100.935 12.08 100.396 11.968 99.9373 11.744C99.4786 11.52 99.0946 11.2213 98.7853 10.848C98.4759 10.464 98.2413 10.0213 98.0813 9.52C97.9319 9.008 97.8573 8.46933 97.8573 7.904C97.8573 7.41333 97.9213 6.912 98.0493 6.4C98.1773 5.87733 98.3906 5.408 98.6893 4.992C98.9879 4.56533 99.3826 4.21867 99.8733 3.952C100.364 3.67467 100.967 3.536 101.681 3.536C102.204 3.536 102.684 3.65333 103.121 3.888C103.559 4.112 103.9 4.45333 104.145 4.912H104.161V3.728H105.441V11.296ZM101.633 10.896C102.081 10.896 102.46 10.8053 102.769 10.624C103.089 10.432 103.345 10.1867 103.537 9.888C103.729 9.57867 103.868 9.232 103.953 8.848C104.049 8.464 104.097 8.08 104.097 7.696C104.097 7.33333 104.055 6.976 103.969 6.624C103.884 6.272 103.745 5.95733 103.553 5.68C103.372 5.392 103.132 5.16267 102.833 4.992C102.535 4.82133 102.172 4.736 101.745 4.736C101.308 4.736 100.935 4.82133 100.625 4.992C100.316 5.152 100.06 5.37067 99.8573 5.648C99.6653 5.92533 99.5213 6.24533 99.4253 6.608C99.3399 6.97067 99.2973 7.34933 99.2973 7.744C99.2973 8.11733 99.3346 8.49067 99.4093 8.864C99.4839 9.23733 99.6119 9.57867 99.7933 9.888C99.9746 10.1867 100.215 10.432 100.513 10.624C100.812 10.8053 101.185 10.896 101.633 10.896ZM107.493 3.728H108.773V4.944H108.805C109.423 4.00533 110.314 3.536 111.477 3.536C111.989 3.536 112.453 3.64267 112.869 3.856C113.285 4.06933 113.578 4.432 113.749 4.944C114.026 4.496 114.389 4.14933 114.837 3.904C115.295 3.65867 115.797 3.536 116.341 3.536C116.757 3.536 117.13 3.584 117.461 3.68C117.802 3.76533 118.09 3.904 118.325 4.096C118.57 4.288 118.757 4.53867 118.885 4.848C119.023 5.14667 119.093 5.50933 119.093 5.936V12H117.733V6.576C117.733 6.32 117.711 6.08 117.669 5.856C117.626 5.632 117.546 5.44 117.429 5.28C117.311 5.10933 117.146 4.976 116.933 4.88C116.73 4.784 116.463 4.736 116.133 4.736C115.461 4.736 114.933 4.928 114.549 5.312C114.165 5.696 113.973 6.208 113.973 6.848V12H112.613V6.576C112.613 6.30933 112.586 6.064 112.533 5.84C112.49 5.616 112.41 5.424 112.293 5.264C112.175 5.09333 112.015 4.96533 111.813 4.88C111.621 4.784 111.37 4.736 111.061 4.736C110.666 4.736 110.325 4.816 110.037 4.976C109.759 5.136 109.53 5.328 109.349 5.552C109.178 5.776 109.05 6.01067 108.965 6.256C108.89 6.49067 108.853 6.688 108.853 6.848V12H107.493V3.728ZM128.461 11.968C128.227 12.1067 127.901 12.176 127.485 12.176C127.133 12.176 126.851 12.08 126.637 11.888C126.435 11.6853 126.333 11.36 126.333 10.912C125.96 11.36 125.523 11.6853 125.021 11.888C124.531 12.08 123.997 12.176 123.421 12.176C123.048 12.176 122.691 12.1333 122.349 12.048C122.019 11.9627 121.731 11.8293 121.485 11.648C121.24 11.4667 121.043 11.232 120.893 10.944C120.755 10.6453 120.685 10.288 120.685 9.872C120.685 9.40267 120.765 9.01867 120.925 8.72C121.085 8.42133 121.293 8.18133 121.549 8C121.816 7.808 122.115 7.664 122.445 7.568C122.787 7.472 123.133 7.392 123.485 7.328C123.859 7.25333 124.211 7.2 124.541 7.168C124.883 7.12533 125.181 7.072 125.437 7.008C125.693 6.93333 125.896 6.832 126.045 6.704C126.195 6.56533 126.269 6.368 126.269 6.112C126.269 5.81333 126.211 5.57333 126.093 5.392C125.987 5.21067 125.843 5.072 125.661 4.976C125.491 4.88 125.293 4.816 125.069 4.784C124.856 4.752 124.643 4.736 124.429 4.736C123.853 4.736 123.373 4.848 122.989 5.072C122.605 5.28533 122.397 5.696 122.365 6.304H121.005C121.027 5.792 121.133 5.36 121.325 5.008C121.517 4.656 121.773 4.37333 122.093 4.16C122.413 3.936 122.776 3.776 123.181 3.68C123.597 3.584 124.04 3.536 124.509 3.536C124.883 3.536 125.251 3.56267 125.613 3.616C125.987 3.66933 126.323 3.78133 126.621 3.952C126.92 4.112 127.16 4.34133 127.341 4.64C127.523 4.93867 127.613 5.328 127.613 5.808V10.064C127.613 10.384 127.629 10.6187 127.661 10.768C127.704 10.9173 127.832 10.992 128.045 10.992C128.163 10.992 128.301 10.9653 128.461 10.912V11.968ZM126.253 7.728C126.083 7.856 125.859 7.952 125.581 8.016C125.304 8.06933 125.011 8.11733 124.701 8.16C124.403 8.192 124.099 8.23467 123.789 8.288C123.48 8.33067 123.203 8.40533 122.957 8.512C122.712 8.61867 122.509 8.77333 122.349 8.976C122.2 9.168 122.125 9.43467 122.125 9.776C122.125 10 122.168 10.192 122.253 10.352C122.349 10.5013 122.467 10.624 122.605 10.72C122.755 10.816 122.925 10.8853 123.117 10.928C123.309 10.9707 123.512 10.992 123.725 10.992C124.173 10.992 124.557 10.9333 124.877 10.816C125.197 10.688 125.459 10.5333 125.661 10.352C125.864 10.16 126.013 9.95733 126.109 9.744C126.205 9.52 126.253 9.312 126.253 9.12V7.728ZM131.167 2.24H129.807V0.575999H131.167V2.24ZM129.807 3.728H131.167V12H129.807V3.728ZM133.354 0.575999H134.714V12H133.354V0.575999ZM137.125 10.224H138.901V12H137.125V10.224ZM146.89 6.384C146.783 5.86133 146.559 5.456 146.218 5.168C145.877 4.88 145.418 4.736 144.842 4.736C144.351 4.736 143.941 4.82667 143.61 5.008C143.279 5.18933 143.013 5.42933 142.81 5.728C142.618 6.02667 142.479 6.37333 142.394 6.768C142.309 7.152 142.266 7.552 142.266 7.968C142.266 8.352 142.309 8.72533 142.394 9.088C142.49 9.45067 142.634 9.776 142.826 10.064C143.018 10.3413 143.269 10.5653 143.578 10.736C143.887 10.9067 144.255 10.992 144.682 10.992C145.354 10.992 145.877 10.816 146.25 10.464C146.634 10.112 146.869 9.616 146.954 8.976H148.346C148.197 10 147.813 10.7893 147.194 11.344C146.586 11.8987 145.754 12.176 144.698 12.176C144.069 12.176 143.509 12.0747 143.018 11.872C142.538 11.6693 142.133 11.3813 141.802 11.008C141.482 10.6347 141.237 10.192 141.066 9.68C140.906 9.15733 140.826 8.58667 140.826 7.968C140.826 7.34933 140.906 6.77333 141.066 6.24C141.226 5.696 141.466 5.22667 141.786 4.832C142.117 4.42667 142.527 4.112 143.018 3.888C143.509 3.65333 144.079 3.536 144.73 3.536C145.199 3.536 145.637 3.59467 146.042 3.712C146.458 3.81867 146.821 3.98933 147.13 4.224C147.45 4.45867 147.711 4.75733 147.914 5.12C148.117 5.472 148.245 5.89333 148.298 6.384H146.89ZM150.86 7.872C150.86 8.37333 150.924 8.82133 151.052 9.216C151.19 9.6 151.377 9.92533 151.612 10.192C151.846 10.448 152.118 10.6453 152.428 10.784C152.748 10.9227 153.084 10.992 153.436 10.992C153.788 10.992 154.118 10.9227 154.428 10.784C154.748 10.6453 155.025 10.448 155.26 10.192C155.494 9.92533 155.676 9.6 155.804 9.216C155.942 8.82133 156.012 8.37333 156.012 7.872C156.012 7.37067 155.942 6.928 155.804 6.544C155.676 6.14933 155.494 5.81867 155.26 5.552C155.025 5.28533 154.748 5.08267 154.428 4.944C154.118 4.80533 153.788 4.736 153.436 4.736C153.084 4.736 152.748 4.80533 152.428 4.944C152.118 5.08267 151.846 5.28533 151.612 5.552C151.377 5.81867 151.19 6.14933 151.052 6.544C150.924 6.928 150.86 7.37067 150.86 7.872ZM149.42 7.872C149.42 7.264 149.505 6.69867 149.676 6.176C149.846 5.64267 150.102 5.184 150.444 4.8C150.785 4.40533 151.206 4.096 151.708 3.872C152.209 3.648 152.785 3.536 153.436 3.536C154.097 3.536 154.673 3.648 155.164 3.872C155.665 4.096 156.086 4.40533 156.428 4.8C156.769 5.184 157.025 5.64267 157.196 6.176C157.366 6.69867 157.452 7.264 157.452 7.872C157.452 8.48 157.366 9.04533 157.196 9.568C157.025 10.0907 156.769 10.5493 156.428 10.944C156.086 11.328 155.665 11.632 155.164 11.856C154.673 12.0693 154.097 12.176 153.436 12.176C152.785 12.176 152.209 12.0693 151.708 11.856C151.206 11.632 150.785 11.328 150.444 10.944C150.102 10.5493 149.846 10.0907 149.676 9.568C149.505 9.04533 149.42 8.48 149.42 7.872ZM159.055 3.728H160.335V4.944H160.367C160.986 4.00533 161.877 3.536 163.039 3.536C163.551 3.536 164.015 3.64267 164.431 3.856C164.847 4.06933 165.141 4.432 165.311 4.944C165.589 4.496 165.951 4.14933 166.399 3.904C166.858 3.65867 167.359 3.536 167.903 3.536C168.319 3.536 168.693 3.584 169.023 3.68C169.365 3.76533 169.653 3.904 169.887 4.096C170.133 4.288 170.319 4.53867 170.447 4.848C170.586 5.14667 170.655 5.50933 170.655 5.936V12H169.295V6.576C169.295 6.32 169.274 6.08 169.231 5.856C169.189 5.632 169.109 5.44 168.991 5.28C168.874 5.10933 168.709 4.976 168.495 4.88C168.293 4.784 168.026 4.736 167.695 4.736C167.023 4.736 166.495 4.928 166.111 5.312C165.727 5.696 165.535 6.208 165.535 6.848V12H164.175V6.576C164.175 6.30933 164.149 6.064 164.095 5.84C164.053 5.616 163.973 5.424 163.855 5.264C163.738 5.09333 163.578 4.96533 163.375 4.88C163.183 4.784 162.933 4.736 162.623 4.736C162.229 4.736 161.887 4.816 161.599 4.976C161.322 5.136 161.093 5.328 160.911 5.552C160.741 5.776 160.613 6.01067 160.527 6.256C160.453 6.49067 160.415 6.688 160.415 6.848V12H159.055V3.728Z" fill="#8A8A8A"/>
</svg>
