<svg width="33" height="32" viewBox="0 0 33 32" fill="none" xmlns="http://www.w3.org/2000/svg">
<path fill-rule="evenodd" clip-rule="evenodd" d="M16.7421 0C7.73716 0 0.45752 7.3333 0.45752 16.4056C0.45752 23.6576 5.12183 29.7962 11.5925 31.9689C12.4015 32.1322 12.6978 31.6159 12.6978 31.1815C12.6978 30.8012 12.6711 29.4975 12.6711 28.1392C8.14115 29.1172 7.19782 26.1836 7.19782 26.1836C6.46983 24.2822 5.39117 23.7936 5.39117 23.7936C3.90851 22.7886 5.49917 22.7886 5.49917 22.7886C7.14382 22.8972 8.00682 24.4726 8.00682 24.4726C9.46248 26.9712 11.8081 26.2652 12.7518 25.8306C12.8865 24.7712 13.3181 24.0379 13.7765 23.6306C10.1635 23.2502 6.36216 21.8379 6.36216 15.5363C6.36216 13.7436 7.00883 12.2769 8.03349 11.1363C7.87182 10.729 7.30549 9.04463 8.19549 6.79031C8.19549 6.79031 9.57048 6.35564 12.6708 8.4743C13.9982 8.11519 15.367 7.9325 16.7421 7.93097C18.1171 7.93097 19.5188 8.1213 20.8131 8.4743C23.9138 6.35564 25.2888 6.79031 25.2888 6.79031C26.1787 9.04463 25.6121 10.729 25.4504 11.1363C26.5021 12.2769 27.1221 13.7436 27.1221 15.5363C27.1221 21.8379 23.3208 23.2229 19.6808 23.6306C20.2741 24.1466 20.7861 25.1242 20.7861 26.6726C20.7861 28.8725 20.7594 30.6382 20.7594 31.1812C20.7594 31.6159 21.0561 32.1322 21.8648 31.9692C28.3354 29.7959 32.9997 23.6576 32.9997 16.4056C33.0264 7.3333 25.7201 0 16.7421 0Z" fill="#F1F1F1"/>
</svg>
