<svg width="101" height="13" viewBox="0 0 101 13" fill="none" xmlns="http://www.w3.org/2000/svg">
<path d="M2.48 3.6C2.48 3.90933 2.53333 4.18133 2.64 4.416C2.74667 4.64 2.89067 4.82667 3.072 4.976C3.25333 5.12533 3.46667 5.23733 3.712 5.312C3.95733 5.38667 4.21867 5.424 4.496 5.424C5.04 5.424 5.488 5.264 5.84 4.944C6.192 4.624 6.368 4.176 6.368 3.6C6.368 3.024 6.18667 2.592 5.824 2.304C5.472 2.00533 5.01867 1.856 4.464 1.856C4.19733 1.856 3.94133 1.89333 3.696 1.968C3.45067 2.04267 3.23733 2.15467 3.056 2.304C2.88533 2.45333 2.74667 2.63467 2.64 2.848C2.53333 3.06133 2.48 3.312 2.48 3.6ZM1.04 3.552C1.04 3.08267 1.13067 2.672 1.312 2.32C1.49333 1.95733 1.73867 1.65333 2.048 1.408C2.35733 1.16267 2.70933 0.975999 3.104 0.848C3.50933 0.719999 3.93067 0.655999 4.368 0.655999C4.98667 0.655999 5.51467 0.741333 5.952 0.912C6.38933 1.072 6.74133 1.29067 7.008 1.568C7.28533 1.83467 7.488 2.144 7.616 2.496C7.744 2.83733 7.808 3.18933 7.808 3.552C7.808 4.064 7.664 4.53333 7.376 4.96C7.09867 5.376 6.72 5.69067 6.24 5.904C6.92267 6.11733 7.42933 6.46933 7.76 6.96C8.09067 7.44 8.256 8.032 8.256 8.736C8.256 9.29067 8.15467 9.78133 7.952 10.208C7.76 10.6347 7.49333 10.9973 7.152 11.296C6.82133 11.584 6.42667 11.8027 5.968 11.952C5.50933 12.1013 5.01867 12.176 4.496 12.176C3.952 12.176 3.44533 12.1067 2.976 11.968C2.50667 11.8293 2.096 11.616 1.744 11.328C1.40267 11.04 1.13067 10.6827 0.928 10.256C0.736 9.81867 0.64 9.312 0.64 8.736C0.64 8.064 0.810667 7.48267 1.152 6.992C1.49333 6.49067 1.984 6.128 2.624 5.904C2.144 5.712 1.76 5.40267 1.472 4.976C1.184 4.53867 1.04 4.064 1.04 3.552ZM2.08 8.8C2.08 9.48267 2.304 10.0213 2.752 10.416C3.21067 10.8 3.792 10.992 4.496 10.992C4.83733 10.992 5.14667 10.9387 5.424 10.832C5.712 10.7147 5.95733 10.56 6.16 10.368C6.37333 10.1653 6.53333 9.93067 6.64 9.664C6.75733 9.39733 6.816 9.104 6.816 8.784C6.816 8.47467 6.752 8.192 6.624 7.936C6.50667 7.66933 6.34133 7.44 6.128 7.248C5.91467 7.056 5.664 6.90667 5.376 6.8C5.09867 6.68267 4.8 6.624 4.48 6.624C4.14933 6.624 3.83467 6.67733 3.536 6.784C3.248 6.88 2.992 7.024 2.768 7.216C2.55467 7.408 2.384 7.63733 2.256 7.904C2.13867 8.17067 2.08 8.46933 2.08 8.8ZM11.0026 6.416C11.0026 6.84267 11.0133 7.32267 11.0346 7.856C11.0666 8.37867 11.152 8.87467 11.2906 9.344C11.44 9.80267 11.6746 10.192 11.9946 10.512C12.3146 10.832 12.7626 10.992 13.3386 10.992C13.9146 10.992 14.3626 10.832 14.6826 10.512C15.0026 10.192 15.232 9.80267 15.3706 9.344C15.52 8.87467 15.6053 8.37867 15.6266 7.856C15.6586 7.32267 15.6746 6.84267 15.6746 6.416C15.6746 6.13867 15.6693 5.83467 15.6586 5.504C15.6586 5.16267 15.632 4.82667 15.5786 4.496C15.536 4.15467 15.4666 3.824 15.3706 3.504C15.2853 3.184 15.152 2.90667 14.9706 2.672C14.8 2.42667 14.5813 2.22933 14.3146 2.08C14.048 1.93067 13.7226 1.856 13.3386 1.856C12.9546 1.856 12.6293 1.93067 12.3626 2.08C12.096 2.22933 11.872 2.42667 11.6906 2.672C11.52 2.90667 11.3866 3.184 11.2906 3.504C11.2053 3.824 11.136 4.15467 11.0826 4.496C11.04 4.82667 11.0133 5.16267 11.0026 5.504C11.0026 5.83467 11.0026 6.13867 11.0026 6.416ZM9.56263 6.432C9.56263 6.016 9.57329 5.584 9.59463 5.136C9.61596 4.688 9.66929 4.25067 9.75463 3.824C9.83996 3.39733 9.96263 2.992 10.1226 2.608C10.2826 2.224 10.5013 1.888 10.7786 1.6C11.056 1.312 11.4026 1.08267 11.8186 0.912C12.2453 0.741333 12.752 0.655999 13.3386 0.655999C13.9253 0.655999 14.4266 0.741333 14.8426 0.912C15.2693 1.08267 15.6213 1.312 15.8986 1.6C16.176 1.888 16.3946 2.224 16.5546 2.608C16.7146 2.992 16.8373 3.39733 16.9226 3.824C17.008 4.25067 17.0613 4.688 17.0826 5.136C17.104 5.584 17.1146 6.016 17.1146 6.432C17.1146 6.848 17.104 7.28 17.0826 7.728C17.0613 8.176 17.008 8.61333 16.9226 9.04C16.8373 9.46667 16.7146 9.872 16.5546 10.256C16.3946 10.6293 16.176 10.96 15.8986 11.248C15.6213 11.536 15.2746 11.7653 14.8586 11.936C14.4426 12.096 13.936 12.176 13.3386 12.176C12.752 12.176 12.2453 12.096 11.8186 11.936C11.4026 11.7653 11.056 11.536 10.7786 11.248C10.5013 10.96 10.2826 10.6293 10.1226 10.256C9.96263 9.872 9.83996 9.46667 9.75463 9.04C9.66929 8.61333 9.61596 8.176 9.59463 7.728C9.57329 7.28 9.56263 6.848 9.56263 6.432ZM23.2053 8.144V2.592H23.1733L19.3973 8.144H23.2053ZM24.4853 8.144H26.0213V9.344H24.4853V12H23.2053V9.344H18.2293V8.032L23.3973 0.655999H24.4853V8.144ZM27.4719 6.912H32.0959V8.192H27.4719V6.912ZM35.0346 9.264C35.088 9.81867 35.312 10.2453 35.7066 10.544C36.1013 10.8427 36.5706 10.992 37.1146 10.992C37.9466 10.992 38.5706 10.6347 38.9866 9.92C39.4026 9.19467 39.632 8.09067 39.6746 6.608L39.6426 6.576C39.3866 7.056 39.024 7.44 38.5546 7.728C38.0853 8.00533 37.5733 8.144 37.0186 8.144C36.4426 8.144 35.9306 8.05333 35.4826 7.872C35.0346 7.68 34.656 7.41867 34.3466 7.088C34.048 6.75733 33.8186 6.35733 33.6586 5.888C33.5093 5.41867 33.4346 4.90667 33.4346 4.352C33.4346 3.808 33.5253 3.312 33.7066 2.864C33.888 2.40533 34.144 2.016 34.4746 1.696C34.8053 1.36533 35.2 1.10933 35.6586 0.927999C36.1173 0.746666 36.6186 0.655999 37.1626 0.655999C37.696 0.655999 38.1973 0.741333 38.6666 0.912C39.136 1.072 39.5466 1.35467 39.8986 1.76C40.2506 2.16533 40.528 2.72 40.7306 3.424C40.944 4.11733 41.0506 5.00267 41.0506 6.08C41.0506 8.04267 40.736 9.552 40.1066 10.608C39.488 11.6533 38.4906 12.176 37.1146 12.176C36.1653 12.176 35.376 11.936 34.7466 11.456C34.1173 10.976 33.76 10.2453 33.6746 9.264H35.0346ZM39.4346 4.448C39.4346 4.096 39.3813 3.76533 39.2746 3.456C39.1786 3.14667 39.0293 2.87467 38.8266 2.64C38.6346 2.39467 38.3946 2.20267 38.1066 2.064C37.8186 1.92533 37.4826 1.856 37.0986 1.856C36.6933 1.856 36.3466 1.93067 36.0586 2.08C35.7813 2.22933 35.552 2.432 35.3706 2.688C35.2 2.93333 35.072 3.216 34.9866 3.536C34.912 3.856 34.8746 4.192 34.8746 4.544C34.8746 4.85333 34.928 5.152 35.0346 5.44C35.152 5.728 35.3066 5.984 35.4986 6.208C35.7013 6.432 35.936 6.61333 36.2026 6.752C36.48 6.88 36.784 6.944 37.1146 6.944C37.4666 6.944 37.7866 6.88 38.0746 6.752C38.3626 6.61333 38.608 6.432 38.8106 6.208C39.0133 5.97333 39.168 5.70667 39.2746 5.408C39.3813 5.09867 39.4346 4.77867 39.4346 4.448ZM49.9253 2.016C49.3493 2.58133 48.8106 3.25333 48.3093 4.032C47.8079 4.81067 47.3599 5.64267 46.9653 6.528C46.5813 7.41333 46.2666 8.32533 46.0213 9.264C45.7759 10.2027 45.6266 11.1147 45.5733 12H44.0533C44.1173 11.04 44.2719 10.1067 44.5173 9.2C44.7733 8.28267 45.0986 7.408 45.4933 6.576C45.8879 5.73333 46.3413 4.93867 46.8533 4.192C47.3759 3.44533 47.9359 2.75733 48.5333 2.128H42.5813V0.848H49.9253V2.016ZM56.3679 12H55.0079V3.872H52.0639V2.784C52.4479 2.784 52.8212 2.75733 53.1839 2.704C53.5465 2.64 53.8719 2.528 54.1599 2.368C54.4585 2.208 54.7092 1.98933 54.9119 1.712C55.1145 1.43467 55.2532 1.08267 55.3279 0.655999H56.3679V12ZM60.3625 6.912H64.9865V8.192H60.3625V6.912ZM68.2613 3.6C68.2613 3.90933 68.3146 4.18133 68.4213 4.416C68.5279 4.64 68.6719 4.82667 68.8533 4.976C69.0346 5.12533 69.2479 5.23733 69.4933 5.312C69.7386 5.38667 69.9999 5.424 70.2773 5.424C70.8213 5.424 71.2693 5.264 71.6213 4.944C71.9733 4.624 72.1493 4.176 72.1493 3.6C72.1493 3.024 71.9679 2.592 71.6053 2.304C71.2533 2.00533 70.7999 1.856 70.2453 1.856C69.9786 1.856 69.7226 1.89333 69.4773 1.968C69.2319 2.04267 69.0186 2.15467 68.8373 2.304C68.6666 2.45333 68.5279 2.63467 68.4213 2.848C68.3146 3.06133 68.2613 3.312 68.2613 3.6ZM66.8213 3.552C66.8213 3.08267 66.9119 2.672 67.0933 2.32C67.2746 1.95733 67.5199 1.65333 67.8293 1.408C68.1386 1.16267 68.4906 0.975999 68.8853 0.848C69.2906 0.719999 69.7119 0.655999 70.1493 0.655999C70.7679 0.655999 71.2959 0.741333 71.7333 0.912C72.1706 1.072 72.5226 1.29067 72.7893 1.568C73.0666 1.83467 73.2693 2.144 73.3973 2.496C73.5253 2.83733 73.5893 3.18933 73.5893 3.552C73.5893 4.064 73.4453 4.53333 73.1573 4.96C72.8799 5.376 72.5013 5.69067 72.0213 5.904C72.7039 6.11733 73.2106 6.46933 73.5413 6.96C73.8719 7.44 74.0373 8.032 74.0373 8.736C74.0373 9.29067 73.9359 9.78133 73.7333 10.208C73.5413 10.6347 73.2746 10.9973 72.9333 11.296C72.6026 11.584 72.2079 11.8027 71.7493 11.952C71.2906 12.1013 70.7999 12.176 70.2773 12.176C69.7333 12.176 69.2266 12.1067 68.7573 11.968C68.2879 11.8293 67.8773 11.616 67.5253 11.328C67.1839 11.04 66.9119 10.6827 66.7093 10.256C66.5173 9.81867 66.4213 9.312 66.4213 8.736C66.4213 8.064 66.5919 7.48267 66.9333 6.992C67.2746 6.49067 67.7653 6.128 68.4053 5.904C67.9253 5.712 67.5413 5.40267 67.2533 4.976C66.9653 4.53867 66.8213 4.064 66.8213 3.552ZM67.8613 8.8C67.8613 9.48267 68.0853 10.0213 68.5333 10.416C68.9919 10.8 69.5733 10.992 70.2773 10.992C70.6186 10.992 70.9279 10.9387 71.2053 10.832C71.4933 10.7147 71.7386 10.56 71.9413 10.368C72.1546 10.1653 72.3146 9.93067 72.4213 9.664C72.5386 9.39733 72.5973 9.104 72.5973 8.784C72.5973 8.47467 72.5333 8.192 72.4053 7.936C72.2879 7.66933 72.1226 7.44 71.9093 7.248C71.6959 7.056 71.4453 6.90667 71.1573 6.8C70.8799 6.68267 70.5813 6.624 70.2613 6.624C69.9306 6.624 69.6159 6.67733 69.3173 6.784C69.0293 6.88 68.7733 7.024 68.5493 7.216C68.3359 7.408 68.1653 7.63733 68.0373 7.904C67.9199 8.17067 67.8613 8.46933 67.8613 8.8ZM80.3679 12H79.0079V3.872H76.0639V2.784C76.4479 2.784 76.8212 2.75733 77.1839 2.704C77.5465 2.64 77.8719 2.528 78.1599 2.368C78.4585 2.208 78.7092 1.98933 78.9119 1.712C79.1145 1.43467 79.2532 1.08267 79.3279 0.655999H80.3679V12ZM86.0425 3.6C86.0425 3.90933 86.0958 4.18133 86.2025 4.416C86.3092 4.64 86.4532 4.82667 86.6345 4.976C86.8158 5.12533 87.0292 5.23733 87.2745 5.312C87.5198 5.38667 87.7812 5.424 88.0585 5.424C88.6025 5.424 89.0505 5.264 89.4025 4.944C89.7545 4.624 89.9305 4.176 89.9305 3.6C89.9305 3.024 89.7492 2.592 89.3865 2.304C89.0345 2.00533 88.5812 1.856 88.0265 1.856C87.7598 1.856 87.5038 1.89333 87.2585 1.968C87.0132 2.04267 86.7998 2.15467 86.6185 2.304C86.4478 2.45333 86.3092 2.63467 86.2025 2.848C86.0958 3.06133 86.0425 3.312 86.0425 3.6ZM84.6025 3.552C84.6025 3.08267 84.6932 2.672 84.8745 2.32C85.0558 1.95733 85.3012 1.65333 85.6105 1.408C85.9198 1.16267 86.2718 0.975999 86.6665 0.848C87.0718 0.719999 87.4932 0.655999 87.9305 0.655999C88.5492 0.655999 89.0772 0.741333 89.5145 0.912C89.9518 1.072 90.3038 1.29067 90.5705 1.568C90.8478 1.83467 91.0505 2.144 91.1785 2.496C91.3065 2.83733 91.3705 3.18933 91.3705 3.552C91.3705 4.064 91.2265 4.53333 90.9385 4.96C90.6612 5.376 90.2825 5.69067 89.8025 5.904C90.4852 6.11733 90.9918 6.46933 91.3225 6.96C91.6532 7.44 91.8185 8.032 91.8185 8.736C91.8185 9.29067 91.7172 9.78133 91.5145 10.208C91.3225 10.6347 91.0558 10.9973 90.7145 11.296C90.3838 11.584 89.9892 11.8027 89.5305 11.952C89.0718 12.1013 88.5812 12.176 88.0585 12.176C87.5145 12.176 87.0078 12.1067 86.5385 11.968C86.0692 11.8293 85.6585 11.616 85.3065 11.328C84.9652 11.04 84.6932 10.6827 84.4905 10.256C84.2985 9.81867 84.2025 9.312 84.2025 8.736C84.2025 8.064 84.3732 7.48267 84.7145 6.992C85.0558 6.49067 85.5465 6.128 86.1865 5.904C85.7065 5.712 85.3225 5.40267 85.0345 4.976C84.7465 4.53867 84.6025 4.064 84.6025 3.552ZM85.6425 8.8C85.6425 9.48267 85.8665 10.0213 86.3145 10.416C86.7732 10.8 87.3545 10.992 88.0585 10.992C88.3998 10.992 88.7092 10.9387 88.9865 10.832C89.2745 10.7147 89.5198 10.56 89.7225 10.368C89.9358 10.1653 90.0958 9.93067 90.2025 9.664C90.3198 9.39733 90.3785 9.104 90.3785 8.784C90.3785 8.47467 90.3145 8.192 90.1865 7.936C90.0692 7.66933 89.9038 7.44 89.6905 7.248C89.4772 7.056 89.2265 6.90667 88.9385 6.8C88.6612 6.68267 88.3625 6.624 88.0425 6.624C87.7118 6.624 87.3972 6.67733 87.0985 6.784C86.8105 6.88 86.5545 7.024 86.3305 7.216C86.1172 7.408 85.9465 7.63733 85.8185 7.904C85.7012 8.17067 85.6425 8.46933 85.6425 8.8ZM95.9411 5.52C95.9945 5.53067 96.0425 5.536 96.0851 5.536C96.1385 5.536 96.1918 5.536 96.2451 5.536H96.5331C96.8211 5.536 97.0931 5.49867 97.3491 5.424C97.6158 5.33867 97.8451 5.22133 98.0371 5.072C98.2398 4.912 98.3998 4.71467 98.5171 4.48C98.6345 4.24533 98.6931 3.97867 98.6931 3.68C98.6931 3.072 98.5011 2.61867 98.1171 2.32C97.7331 2.01067 97.2531 1.856 96.6771 1.856C96.3145 1.856 95.9945 1.92533 95.7171 2.064C95.4505 2.192 95.2265 2.368 95.0451 2.592C94.8745 2.816 94.7465 3.07733 94.6611 3.376C94.5758 3.67467 94.5331 3.98933 94.5331 4.32H93.1731C93.1945 3.776 93.2798 3.28 93.4291 2.832C93.5891 2.384 93.8131 2 94.1011 1.68C94.3891 1.36 94.7465 1.10933 95.1731 0.927999C95.6105 0.746666 96.1118 0.655999 96.6771 0.655999C97.1678 0.655999 97.6211 0.719999 98.0371 0.848C98.4638 0.965333 98.8318 1.14667 99.1411 1.392C99.4505 1.63733 99.6905 1.952 99.8611 2.336C100.042 2.72 100.133 3.17333 100.133 3.696C100.133 4.208 99.9838 4.66133 99.6851 5.056C99.3865 5.45067 99.0131 5.74933 98.5651 5.952V5.984C99.2585 6.13333 99.7705 6.45867 100.101 6.96C100.442 7.46133 100.613 8.05333 100.613 8.736C100.613 9.30133 100.506 9.80267 100.293 10.24C100.09 10.6667 99.8131 11.024 99.4611 11.312C99.1091 11.6 98.6931 11.8187 98.2131 11.968C97.7438 12.1067 97.2425 12.176 96.7091 12.176C96.1331 12.176 95.6105 12.096 95.1411 11.936C94.6718 11.776 94.2718 11.5413 93.9411 11.232C93.6105 10.912 93.3545 10.5227 93.1731 10.064C93.0025 9.60533 92.9225 9.08267 92.9331 8.496H94.2931C94.3145 9.232 94.5278 9.83467 94.9331 10.304C95.3385 10.7627 95.9305 10.992 96.7091 10.992C97.0398 10.992 97.3545 10.944 97.6531 10.848C97.9518 10.7413 98.2131 10.5973 98.4371 10.416C98.6611 10.224 98.8371 9.99467 98.9651 9.728C99.1038 9.45067 99.1731 9.14133 99.1731 8.8C99.1731 8.448 99.1091 8.13867 98.9811 7.872C98.8531 7.59467 98.6825 7.36533 98.4691 7.184C98.2558 6.992 97.9998 6.85333 97.7011 6.768C97.4131 6.672 97.0985 6.624 96.7571 6.624C96.4691 6.624 96.1971 6.64 95.9411 6.672V5.52Z" fill="#8A8A8A"/>
</svg>
